<mxfile modified="2024-03-16T19:46:29.850Z" host="Electron" agent="Mozilla/5.0 (Windows NT 10.0; Win64; x64) AppleWebKit/537.36 (KHTML, like Gecko) draw.io/21.4.0 Chrome/112.0.5615.204 Electron/24.5.1 Safari/537.36" etag="z6zIXSZZQJ7TudHKFsGT" version="21.4.0" type="device">
  <diagram id="Ht1M8jgEwFfnCIfOTk4-" name="Page-1">
    <mxGraphModel dx="1034" dy="511" grid="1" gridSize="10" guides="1" tooltips="1" connect="1" arrows="1" fold="1" page="1" pageScale="1" pageWidth="1169" pageHeight="827" math="0" shadow="0">
      <root>
        <mxCell id="0" />
        <mxCell id="1" parent="0" />
        <mxCell id="-QjtrjUzRDEMRZ5MF8oH-9" value="1" style="rounded=1;whiteSpace=wrap;html=1;fillColor=#007CBD;strokeColor=none;fontColor=#FFFFFF;fontStyle=1;fontSize=22;" parent="1" vertex="1">
          <mxGeometry x="216.5" y="163.5" width="40" height="38" as="geometry" />
        </mxCell>
        <mxCell id="-QjtrjUzRDEMRZ5MF8oH-18" value="&lt;b style=&quot;background-color: rgb(0, 0, 0);&quot;&gt;&lt;font color=&quot;#66ffff&quot;&gt;Vectors&lt;/font&gt;&lt;/b&gt;" style="outlineConnect=0;fontColor=#232F3E;gradientColor=none;fillColor=#116D5B;strokeColor=none;dashed=0;verticalLabelPosition=bottom;verticalAlign=top;align=center;html=1;fontSize=12;fontStyle=0;aspect=fixed;pointerEvents=1;shape=mxgraph.aws4.sagemaker_model;" parent="1" vertex="1">
          <mxGeometry x="681.5" y="250" width="29" height="29" as="geometry" />
        </mxCell>
        <mxCell id="-QjtrjUzRDEMRZ5MF8oH-27" value="2" style="rounded=1;whiteSpace=wrap;html=1;fillColor=#007CBD;strokeColor=none;fontColor=#FFFFFF;fontStyle=1;fontSize=22;" parent="1" vertex="1">
          <mxGeometry x="483.5" y="164.5" width="40" height="38" as="geometry" />
        </mxCell>
        <mxCell id="-QjtrjUzRDEMRZ5MF8oH-28" value="3" style="rounded=1;whiteSpace=wrap;html=1;fillColor=#007CBD;strokeColor=none;fontColor=#FFFFFF;fontStyle=1;fontSize=22;" parent="1" vertex="1">
          <mxGeometry x="105.5" y="496.5" width="40" height="38" as="geometry" />
        </mxCell>
        <mxCell id="-QjtrjUzRDEMRZ5MF8oH-29" value="4" style="rounded=1;whiteSpace=wrap;html=1;fillColor=#007CBD;strokeColor=none;fontColor=#FFFFFF;fontStyle=1;fontSize=22;" parent="1" vertex="1">
          <mxGeometry x="633.5" y="399.5" width="40" height="38" as="geometry" />
        </mxCell>
        <mxCell id="-QjtrjUzRDEMRZ5MF8oH-30" value="5" style="rounded=1;whiteSpace=wrap;html=1;fillColor=#007CBD;strokeColor=none;fontColor=#FFFFFF;fontStyle=1;fontSize=22;" parent="1" vertex="1">
          <mxGeometry x="697.5" y="585" width="40" height="38" as="geometry" />
        </mxCell>
        <mxCell id="-QjtrjUzRDEMRZ5MF8oH-31" value="6" style="rounded=1;whiteSpace=wrap;html=1;fillColor=#007CBD;strokeColor=none;fontColor=#FFFFFF;fontStyle=1;fontSize=22;" parent="1" vertex="1">
          <mxGeometry x="503.5" y="640" width="40" height="38" as="geometry" />
        </mxCell>
        <mxCell id="-QjtrjUzRDEMRZ5MF8oH-47" value="Pythonic Golu Architecture" style="text;html=1;resizable=0;points=[];autosize=1;align=left;verticalAlign=top;spacingTop=-4;fontSize=30;fontStyle=1" parent="1" vertex="1">
          <mxGeometry x="56.5" y="64.5" width="410" height="40" as="geometry" />
        </mxCell>
        <mxCell id="-QjtrjUzRDEMRZ5MF8oH-48" value="&lt;b&gt;&lt;font color=&quot;#ff0000&quot;&gt;R&lt;/font&gt;&lt;/b&gt;etrieval &lt;b&gt;&lt;font color=&quot;#ff0000&quot;&gt;A&lt;/font&gt;&lt;/b&gt;ugmented &lt;b&gt;&lt;font color=&quot;#ff0000&quot;&gt;G&lt;/font&gt;&lt;/b&gt;eneration Using Milvus and Python" style="text;html=1;resizable=0;points=[];autosize=1;align=left;verticalAlign=top;spacingTop=-4;fontSize=16;" parent="1" vertex="1">
          <mxGeometry x="56.5" y="114.5" width="440" height="30" as="geometry" />
        </mxCell>
        <mxCell id="-QjtrjUzRDEMRZ5MF8oH-49" value="User Documents" style="text;html=1;resizable=0;points=[];autosize=1;align=left;verticalAlign=top;spacingTop=-4;fontSize=16;fontStyle=1" parent="1" vertex="1">
          <mxGeometry x="14.5" y="191.5" width="150" height="30" as="geometry" />
        </mxCell>
        <mxCell id="SCVMTBWpLvtzJIhz15lM-1" value="" style="line;strokeWidth=2;html=1;fontSize=14;" parent="1" vertex="1">
          <mxGeometry x="52.5" y="139.5" width="1060" height="10" as="geometry" />
        </mxCell>
        <mxCell id="SCVMTBWpLvtzJIhz15lM-5" value="" style="shape=curlyBracket;whiteSpace=wrap;html=1;rounded=1;fontSize=14;" parent="1" vertex="1">
          <mxGeometry x="332.5" y="175.5" width="20" height="290" as="geometry" />
        </mxCell>
        <mxCell id="SCVMTBWpLvtzJIhz15lM-17" value="&lt;span&gt;&lt;b&gt;Generate enbeddings and &lt;br&gt;store in vector database&lt;/b&gt;&lt;/span&gt;" style="edgeStyle=orthogonalEdgeStyle;html=1;endArrow=open;elbow=vertical;startArrow=none;endFill=0;strokeColor=#545B64;rounded=0;fontSize=14;strokeWidth=2;" parent="1" edge="1">
          <mxGeometry x="-0.037" y="20" width="100" relative="1" as="geometry">
            <mxPoint x="418.5" y="319.5" as="sourcePoint" />
            <mxPoint x="612" y="320" as="targetPoint" />
            <mxPoint as="offset" />
          </mxGeometry>
        </mxCell>
        <mxCell id="SCVMTBWpLvtzJIhz15lM-19" value="&lt;b&gt;User Query&lt;/b&gt;" style="edgeStyle=orthogonalEdgeStyle;html=1;endArrow=open;elbow=vertical;startArrow=none;endFill=0;strokeColor=#545B64;rounded=0;fontSize=14;strokeWidth=2;" parent="1" edge="1">
          <mxGeometry x="-0.037" y="20" width="100" relative="1" as="geometry">
            <mxPoint x="49.50000000000023" y="583.5" as="sourcePoint" />
            <mxPoint x="169.5" y="583.5" as="targetPoint" />
            <mxPoint as="offset" />
          </mxGeometry>
        </mxCell>
        <mxCell id="SCVMTBWpLvtzJIhz15lM-25" value="" style="edgeStyle=orthogonalEdgeStyle;html=1;endArrow=open;elbow=vertical;startArrow=none;endFill=0;strokeColor=#545B64;rounded=0;fontSize=14;strokeWidth=2;entryX=0.414;entryY=1.083;entryDx=0;entryDy=0;entryPerimeter=0;" parent="1" target="NJQEp5nP68rqL0rwDxV9-14" edge="1">
          <mxGeometry x="-0.037" y="20" width="100" relative="1" as="geometry">
            <mxPoint x="285" y="602" as="sourcePoint" />
            <mxPoint x="366" y="602" as="targetPoint" />
            <mxPoint as="offset" />
          </mxGeometry>
        </mxCell>
        <mxCell id="SCVMTBWpLvtzJIhz15lM-26" value="" style="edgeStyle=orthogonalEdgeStyle;html=1;endArrow=open;elbow=vertical;startArrow=none;endFill=0;strokeColor=#545B64;rounded=0;fontSize=14;strokeWidth=2;" parent="1" edge="1">
          <mxGeometry x="-0.037" y="20" width="100" relative="1" as="geometry">
            <mxPoint x="93" y="580" as="sourcePoint" />
            <mxPoint x="748" y="634" as="targetPoint" />
            <mxPoint as="offset" />
            <Array as="points">
              <mxPoint x="93" y="634" />
            </Array>
          </mxGeometry>
        </mxCell>
        <mxCell id="NJQEp5nP68rqL0rwDxV9-25" value="&lt;b&gt;&lt;font style=&quot;font-size: 13px;&quot;&gt;Query text&lt;/font&gt;&lt;/b&gt;" style="edgeLabel;html=1;align=center;verticalAlign=middle;resizable=0;points=[];" parent="SCVMTBWpLvtzJIhz15lM-26" vertex="1" connectable="0">
          <mxGeometry x="-0.1913" y="3" relative="1" as="geometry">
            <mxPoint as="offset" />
          </mxGeometry>
        </mxCell>
        <mxCell id="NJQEp5nP68rqL0rwDxV9-1" value="" style="shape=datastore;whiteSpace=wrap;html=1;strokeColor=#00CC00;strokeWidth=2;" parent="1" vertex="1">
          <mxGeometry x="12" y="217" width="138" height="178" as="geometry" />
        </mxCell>
        <mxCell id="HK9NlegRddoSVr3_TbAF-1" value="" style="shape=image;verticalLabelPosition=bottom;labelBackgroundColor=default;verticalAlign=top;aspect=fixed;imageAspect=0;image=data:image/png,iVBORw0KGgoAAAANSUhEUgAAAgAAAAIACAYAAAD0eNT6AAAABHNCSVQICAgIfAhkiAAAAAlwSFlzAAAOxAAADsQBlSsOGwAAABl0RVh0U29mdHdhcmUAd3d3Lmlua3NjYXBlLm9yZ5vuPBoAACAASURBVHic7d15kF3lnd7x573dakm0hLbulhDaEEJCahZjC+xIQkvjAcw49jgGk2Rm4hhQM5OJMwOVSZzFY8+SpEw8lfLE9kTdYKaKmtQUTGCMy7FNALWQkC1jMFi0QGa1JLB6gVZra6mX++YPIRCHlnSX8973vOf9fqoou6B1+tcXpPPc3znPPRIAAAAAAAAAAAAAAAAAAAAAAAAAAAAAAAAAAAAAAKgd43sAAHGZ84Unmm3d2IVWhbky1hZtcc9YYezlgY7fGPQ9GxATAgAAh6yZs3HzilFbt9oYu1rSKklLkl9lpOGizA8Kpvg3vR0b/qH2cwLxIQAASE/7zyY0FQ9eZkzdGsmulrRBUlN5BzFbVNDGvk3rXnIxIoATCAAAKtZy26Ozi7b+KlOwq6XCGsmulDQxhUMPFouFa9+6Z+1PUzgWgHEQAACUqLR1fooGTKG4oXdT23MOvwcQLQIAgPGlss6v2s4+M+Uj6lg5UuPvC+Reve8BAGRD87/aPMcMF1bJ2DVW+keyhz8iU5ggWZ9jXdpiD/1hr/R1n0MAeUQAACI1+5ati22huEYFu1pWa+yIlltjM7gVNF+U7F9KxmsSAfImg7/ZAaQuG+v8ihmZ1b2d67b7ngPIEzYAQA594O58e3ilTGGi53V+FYqrJBEAgBQRAIAc+MA6X1pujMyJJV+oJ/33WGme7xmAvCEAAIGZd8f2ycePjlypMbtGxqyS7KqixmZIysO5/jTMbN8TAHlDAAAyLrnOP354+MSH7Rgpx2f8pILvAYC8IQAAGZP3dT6AbCAAAD6Nc3d+UWMn7s7nXA/AIQIAUEP5uzsfQKgIAIBDrPMBZBUBAEgL63wAASEAABVinQ8gZAQAoESs8wHkCQEAGA/rfAA5RwAAxDofQHwIAIgS63wAsSMAIP9Y5wPABxAAkDus8wHg7AgACB7rfAAoHwEAYWGdDwCpIAAg01jnA4AbBABkCut8AKgNAgD8YZ0PAN4QAFAzrPMBIDsIAHCGdT4AZBcBAOlgnQ8AQSEAoCKs8wEgbAQAlIR1PgDkCwEAH8Q6HwByjwAA1vkAECECQIRY5wMACAB5xzofADAOAkDOsM4HAJSCABA41vkAgEoQAELCOh8AkBICQIaxzgcAuGJ8D4D3jLfOF/+OABmjVyU96nsOIOuK1hQLpthjrV7XBP2w79sb9p/uazm5+DLOOl9Sk++xAAC5UZT0hIz9cl/Hhm3Jf0gAqJEPrPNlV0qa6HsuAEAEjO6dNvHo77/8P284/t7fghOs8wEAGbNdE+x1fd/ecFjihJQO1vkAgDD8oO9A7z/WA58bowVQAe7OBwAE6hNNM2bf1i9tYgNQAtb5AIAc+XXh2PGLOIklsc4HAOSclf1n0QcA7s4HAETo76ILAKzzAQDQC/k+8bHOBwBgPAdzFQBY5wMAUJqgAwDrfAAAKhPOyZJ1PgAAqclsAGCdDwCAO5kJAKzzAQCoHT8nWNb5AAB4VZMAwDofAIBscRIAWOcDAJBt1Z+UWecDABCcsgMA63wAAMJ31gAw8/YnVhTG7Bpj7GpJqyQtcT8WALxPj5V2+h4C8MFIsyVdmvZx68f7m3PbNzeNWHOnpH+qYvECrt4D8GxLf+f6m30PAfjQ3N51k6zuT/u4HwgATbdtaR+x9r9LOjftbwYAALLhlABgTUv7lv9lrW33Nw4AAKiFwsn/09S+5WvWipM/AAARKEjSrNu2tBmrf+t7GAAAUBsFfdUWCsZ+S3xQDwAA0Sg073viekkX+x4EAADUTsEY+1u+hwAAALVVkLTa9xAAAKC2ClY63/cQAACgtgriA38AAIhOQdz9DwBAdApn/xIAAJA3BAAAACJEAAAAIEIEAAAAIkQAAAAgQgQAAAAiRAAAACBCBAAAACJEAAAAIEIEAAAAIkQAAAAgQgQAAAAiRAAAACBCBAAAACJEAAAAIEIEAAAAIkQAAAAgQgQAAAAiRAAAACBCBAAAACJEAAAAIEIEAAAAIkQAAAAgQgQAAAAiRAAAACBCBAAAACJEAAAAIEIEAAAAIkQAAAAgQgQAAAAiVO97AAA4G2O0sqW9a5PvORCvojUHjbTPGrO1v2PtM77nSQMBAEDmWavFktp9z4F4GdkT/2utWjZ27bHW3NVXaOxQx8oRz6NVjEsAAACUwUoLZOw3W+zhZ5s2bl3qe55KEQAAAKiAlVYYje1o2bhlle9ZKkEAAACgctOttQ/PvmXrYt+DlIsAAABANYxm2bqxTt9jlIsAAABAlazU1nz75ut9z1EOAgAAAGkomqCaKgQAAADSce28O7ZP9j1EqQgAAACko3HkyMgS30OUigAAAEBKrB2b63uGUhEAAABIibV1db5nKBUBAACAlBiZfb5nKBUBAACAdBwzx4de8T1EqQgAAACk49Ge+6474nuIUhEAAABIgbHmXt8zlIPHAQMAUCUrs6Pv7rUP+Z6jHGwAAACozqF6jd0qGet7kHIQAAAAqNyQMebG/Z1t3b4HKRcBAACAShjttbZ4dW/Hukd8j1IJAgAAAOU5YKWvFIaOL++/u+1p38NUipsAAYSgx0o7fQ+BOBmrUcn2SNpnCoUnegeauvRA67DvuapFAAAQgi39netv9j0EkCdcAgAAIEIEAAAAIkQAAAAgQgQAAAAiRAAAACBCBAAAACJEAAAAIEIEAAAAIkQAAAAgQgQAAAAiRAAAACBCBAAAACJEAAAAIEIEAAAAIkQAAAAgQgQAAAAiRAAAACBCBAAAACJEAAAAIEIEAAAAIkQAAAAgQgQAAAAiRAAAACBCBAAAACJEAAAAIEIEAAAAIkQAAAAgQgQAAAAiRAAAACBCBAAAACJEAAAAIEIEAAAAIkQAAAAgQgQAAAAiRAAAACBCBAAAACJEAAAAIEIEAAAAIkQAAAAgQgQAAAAiRAAAACBC9b4HSMOl8xt1/eUz9eFFU7WoebIk6fDxUe3ad1TbXxrUw0/3a2i46HlKQJrROEFXXjhVVyycoplTJshK2vfWcb345lFt231Ax0b473Q8xmhlS3vXJt9zIF5Faw4aaZ81Zmt/x9pnfM+TBtO8scv6HqJSVyyaqj/5Jwt11YXnnvHrDg6NatNjv9a3HtmnkbFgf9yaqisYXbl4qtYtn655syapeWq9Dh8rav/gce14+aC2vDCog0OjvscMxgXNk/TF6+bpM1c2qaF+/MXb4NFRPfRUv/7qR3vVMzhS4wkBlMpIe6w1d/UVGjvUsdL5b9bm9q6bZHV/2scNNgD80Sfm644b5qm+YEr+NbveOKLP//ULenNg2OFkYWuoN/rt1XP0xevO1+xpDaf9uuFRq/t/0qv/8X/3av8gr+eZfH7tHH35M4s0uaG0K26DR0f1J3//mv5+R5/jyQBUw0i7iqr7TH/n1b90+X1cBYAg7wH4D59eoD/+5PyyTv6StOL8Rj1056WaP2uio8nCtrBpkn747y/XX3zugjOe/KUTQeF31szWtq9+WJ/+SFONJgzPlz61QP/15sUln/wlado59frGv7hIf3Dt+Q4nA1AtK60wGtvRsnHLKt+zVCK4AHDTR5v1r6+dV/GvnzdzojbdtkwT6soLD3n3oYVT9P1/d5mWzT2nrF83uaGgb31hqf7w+sr/neTVv1w3R1+8rvLX5T9+eqE+97GWFCcC4MB0a+3Ds2/Zutj3IOUKKgA0TZ2gr3x2UdXHuXzBFP1BFSEib+ZMa9B3bl+uGY2V3RNqjPTHn1yg31rJJuCkeTMn6j99emHVx/mzmy7Q+TPZWAGZZjTL1o11+h6jXEEFgM+vnaMZjRNSOdat6+do0oSgfnxnvv47F2r2tOpeV2Okr//2Ep03/cyXDmJx5w3zdc7EuqqPM3VSnf5NFVsEALVhpbbm2zdf73uOcgRzBiwY6Z+vnp3a8WZOmaBPce1aq5dO04YVM1I51uSGgu78zfmpHCtkjRPr9MkPz0rteJ+9qlnTz8lFYxfIt6Jp9z1COYIJABe0TNacs9yYVq7rLpuZ6vFCdOuG81I93k0fbdG5k+M+WX38khlqTOHd/0mTGwq6asmZq64AMuHaeXdsn+x7iFIFEwBWnF/ezWmlWL1smhrq470ZsKHeaPXSaakec0Kd0dUXp3vM0LS1prNROdVHLpiS+jEBpK5x5MjIEt9DlCqYADB1UvrvKqdOqtPKxfG+s7rqwmmaMim9d6onpXVJIUQFI61bnn4AmjklnXtfALhl7dhc3zOUKpgAMGbdfF5R24rpTo4bgg0r3LxTb2udIRPpYuXS+VPUfG76N0JOqAvmtyoQNWvr0n9X5Ugwf6rs6T/u5LgbHKxrQ9F2iZt7IGZPm6DlcxudHDvrrrnEzX9Pvx5w898/gHQZmX2+ZyhVMAHguT2HNVpMfwtw8dxzdP6M+Kprc2c0aOkcd/equLgOHoINjjZKL7551MlxAaTqmDk+9IrvIUoVTAA4enxMO/ccdnLs9RFes77G8Ql6Q2t8l1ZmNNbr8oVubtb72WuHnBwXQKoe7bnvuiO+hyhVMAFAkjbvOuDkuDG+W3X9M69cPFXTIuuur1s+XXVlPp+iFLvfPKo33uYSAJB1xpp7fc9QjqACwOPdA06OuyayOmBDvdGqlOt/SfWF9CuGWecqVLn67x5AeqzMjt671z7ke45yBBUAnvvVYfUfSv/Ry1MiqwO6qv8lxbRZKRhpraPPP3C1+QKQmkP1GrtVMm7qao4EFQCKVnrixUEnx3Z181YW1er6fFvr9GjqgJctcFP/O3J8TE+9yvV/IMOGjDE37u9s6/Y9SLmCCgCStLn7bSfHdX1TXJbU6p357GkN0dQBXb2m23YPani06OTYAKpktNfa4tW9Hese8T1KJYILAF0vDMpBG1DLIqkDuq7/JcVyGcDVBonr/0AmHbDSVwpDx5f33932tO9hKhXcbdpvHx7Rc786pCsWTU392OtXzNDfPtmT+nGzpNabjg2t0/XNR4L5XIyKuKz/cf3/XT1W2ul7CMTJWI1KtkfSPlMoPNE70NSlB1qHfc9VreACgHTiD0UXAaCtNf8BoNbvyE/WAQePjtb0+9YS9b+a2NLfuf5m30MAeRLcJQCJOmClalH/S4qhDkj9D0CIggwALuuAV+a4Dlir+l9Snu8DOPH0PzfX/1n/A3ApyABAHbAyvj6eN891wMsWTFHT1PQf1Uv9D4BrQQYAyV0dMM/vVn39bLOnNejiued4+d6uUf8DEKpgAwB1wPLUuv6XdE2rm0cP+0b9D0Cogg0AJ+uALuTx6YDXXOL3BJzHpwNS/wMQsmADgMTTAcvh+2fK49MB11P/AxCwoAOAqzXp1RdPU0N90C/N+zTUG626yG+7IY91QOp/AEIW9FnOVR2wcWKdrlyc/gcN+eKr/pfkewuRpoKR1lL/AxCwoAMAdcDSZOX6e57qgNT/AIQu6AAgUQcsRVZ+ljzVAan/AQhd8AHAaR1w5sT0D1xjvut/SVkJI9Wi/gcgdMEHAJd1wDxcBvBd/0vKw2tK/Q9AHgQfACTqgGeStZ/hygvPDb4OSP0PQB7kIgC4fTpguC9RFup/SXmoA1L/A5AH4Z7dTkEdcHxZqf8lZW0rUQ7qfwDyIhcBgDrg+LJS/0sKuQ5I/Q9AXuQiAEjUAceT1dlDrgNecwn1PwD5kJsAQB3w/bJW/0vKajg5G+p/APIiNwGAOuD7Za3+lxTiazqjsV6XLaD+ByAfchMAJOqAp8r6zCHWAan/AciTXAUA6oAnZLH+lxRiHZD6H4A8CeesVgKXdcCrLgynDvjRJdms/yVlfUtxKup/APImVwGAOuAJocwaUh3w8oXU/wDkS64CgEQdUApn1pDqgDz9D0De5C4AuKoDLj0vjDrg3BkNuijD9b+kUMIK9T8AeZO7AOCyDtgWwGrdVf3POghVUhgBYOaUCe7qfwQAAJ7kLgBI7m6q2hDAycrVCfWhp/qcHHfl4qk6d3K264DrLp7mrv43MJz6cQGgFLkMALHWAV3W/zo3/1q/6j+W+nHrC0ZrlmW7Dkj9D0AeZfdsVoVY64Cu6n9vHRrR83sPqyvCD1qi/gcgr3IZAGKtAzq7UW3XARWty09azG4dkPofgLzKZQCQ4qwDultVn3gtt754QMdG0q+sZbkOSP0PQF7lNgDEVgd0Vf8bK1ptffGgJOnYSFE7Xj6Y+veQshusqP8ByKvcBoDY6oCu6n8/f/2wBo68dz+Fs4ZFBl9Tp/U/rv8D8Cy3AUCK6+mArmZKvoau3rleeeG5masDrl/usP7H0/8AeJbrABBLHbCh3mj1Ujf1v+Rr+ErPkLM64Opl2XqC4YZWN1sV1v8AsiA7ZzEHXNUBz8lYHfCjS6apcWL69b/+d+p/SZu7879ZKRhp7cVuPp+A9T+ALMh1AIilDuhqls3v1P/G+/suXNM6IzN1QOp/APIu1wFAiqMO6Lr+l7Rtd/7rgNT/AORd7gNA3uuAtaj/JcVQB6T+ByDvch8A8l4H/HiN6n9Jea4DzpwyQZcvdHOPB9f/AWRFtnpXjmzedUBXLEr/D/S21hm6b1tP6sctdwYXznaierx7QF/97KLUv+/JOuDBodHUj12q9cunyUH7j/pfFYzRypb2rk2+50C8itYcNNI+a8zW/o61z/ieJw1RBIDHuwd05w3zUz/uyTqgr2u6DfVGqxzV/x57/sz3TpysAy5smpTq9z1ZB/zBs27u3SgF9b/ssVaLJbX7ngPxMjpxLdlYq5aNXXusNXf1FRo71LEy/apZjeT+EoCU3zqgy/pf974jZ/26PNYBqf8BOBsrLZCx32yxh59t2rh1qe95KhVFAMhrHbDW9b/xvs4Fn3XAyxdOpf4HoCRWWmE0tqNl45ZVvmepRBQBQHJYB3R0E15J37vG9b+kPNYBXYUq6n9Abk231j48+5ati30PUq5oAkDXC4Mac9AHXDpnspc64Pke6n9JeawDugtVXP8Hcstolq0b6/Q9RrmiCQBvHx7RL/Z88GNt0+CjDujq6X/PvHbojPW/pDzVAU/U/xw9/Y8AAOSaldqab998ve85yhFNAJDy9XRAX/W/pDw9HdBp/W9gOP0DA8iWogmqqRJVAMjL0wFd1v/KfY3y9HRA6n8AqnTtvDu2p39t1pGoAoDbOmDtTlau6n+9B4f1fAn1v6Q81AGp/wFIQePIkZElvocoVVQBwGkdsLV216xdXR/f8sKgbAX3SeahDkj9D0AarB2b63uGUkUVAKR8PB3Qd/0vKQ91QOp/ANJgbV3661lHogsAodcB3db/KtuOHBsp6icvudms1CpYUf8DkAYjs8/3DKWKLgCEXgd0W/+r/AE8IdcBqf8BSMkxc3zoFd9DlCq6ACCFXQfMSv0vKeQ64PoV06n/AUjDoz33XVf+ndSeRBkAQq0DZqn+l/Rq77Fg64Cs/wGkwVhzr+8ZyhFlAAi1Dpi1+l9SiHXAgpGuXkb9D0B1rMyO3rvXPuR7jnJEGQBCrQO6uh7etetARfW/pBDrgNT/AKTgUL3GbpVM+neYOxRlAJDCrANec0m2V9Uu64DLznNTB6T+B6BKQ8aYG/d3tnX7HqRc0QaA0OqA82ZO1JLZbup/23answ1xWQd0FX64/g+gYkZ7rS1e3dux7hHfo1Qi2gDgtA7o4KTi6kRVbf0vKaQ6IPU/ABU6YKWvFIaOL++/u+1p38NUqraPW8uYzbsO6IpFU1M/blvrDN23dX/qx3Qh7RP2490D+tMbL0j1mNJ7dcCDQ+mFFep/Qemx0k7fQyBOxmpUsj2S9plC4YnegaYuPdAa/G/yqAPA490DuvOG+akfd83Sc9VQX0jtGnCW639JJ+uAC5smpXrck3XAHzyb3r0brP+DsqW/c/3NvocA8iTaSwBSOHXAj12U7fpfUgh1QOp/AGIXdQAIpQ6Y9fpfkrv7ANKrA1L/AxC7qAOAFEYdMLRVtas64HnT06sDUv8DELvoA4DLOuC8FOqAIdT/kkJ4OmDWP1MBAFyLPgC4rANuSOFkFUr9LynLdcCZUybosgXU/wDELfoAIGX76YCh1P+SXL0TvmpJ9U8HpP4HAAQASQ6fDvhOHbBSDfUFZ/W/xxy/U83y0wFDu6cCAFwgACi7dcCPXXSus/pft4P6X5KrE2I1J3DqfwBwAgFA2a0Dhlb/S8piHfBDi6j/AYBEAHiXqzrgNVW8Ww19Vf3k7sHM1QGp/wHACQSAd7iqA140Z7IWNJVfBwyx/peUxTpg6KEKANJCAHiHyzrguuXln3Rcnaiedlz/S8pSHZD6HwC8hwBwiizVAUOt/yW5emd88umA5aD+BwDvIQCcIit1QJf1v1qvql/tPabX+9KvA06oK78OyPofAN5DADiFyzrgR5eUfrIKvf6XtHmX/zpgwUhrqf8BwLsIAKdwWgcs45p16PW/pCzUAT+0aKpmUf8DgHcRABKy8HTAvK2qs1AHpP4HAO9HAEjwXQfMQ/0vKQt1wLyFKgCoFgEgwXcd0NVjamtd/0vyWQek/gcAH0QAGIfPOqCrVbXvG9V81gE3UP8DgA8gAIzDVx3wRP3PzZ3qvlfVPuuArP8B4IMIAOPwVQfMW/0vyUcdkKf/AcD4CADj8FUHdLb+7/ZT//vAHB7qgNT/AGB8BIDT8FEHzPuq2kcdkPofAIyPAHAata4Dzp/lrv735C/91P+SfNQB8x6qAKBSBIDTcFkHXD9OHTAvT/87m1rWAWdNpf4HAKdDADiDWtYB81r/S3rs+drVAdcvp/4HAKdDADgDV2ve1Yk6YJ7rf0mv9bmrAyafoMj6HwBOjwBwBrWqA+a9/pdUizpgXcFo3XLqfwBwOgSAM6hVHTDv9b8kl5dWTtYBL184RTMaqf8BwOkQAM6iFnXAayJbVdeiDugqVG19kfofgHwgAJyF6zrg/FkTdWHO639Jx0aK+rHjOqCrhyplNVQBQLkIAGfhug4YS/0vaXO3uzrgrKkTdOl8N/W/Lkf3LwBArREASuDymnUs9b8kl08H/NSHm6j/AcBZEABK4LIOuDqS+l+SyzrgH31iXurHlbL/mgJAOQgAJXBZBzwnovpfkqs6YJODh/9I2d+qAEA5CAAlcFkHdCGr9b+kkE6o1P8A5A0BoESu6oAuhLKqfnL3oIaGw6jUUf8DkDcEgBK5qgOmLcv1v6RjI0X95OUwZg0lVAFAqQgAJXJZB0zTz17Ndv0vyVUdMG3U/wDkDQGgDCFcsw5hxlOF8M6a+h+APKo/+5fgpMe7B3TnDfN9j3FGIZxQT3WyDrioeZLvUU4rtNc0j4zRypb2rk2+50C8itYcNNI+a8zW/o61z/ieJw0EgDKcrAO6qplVq/fgsHa9kf36X9LmXQP6wrrzfI9xWqFtVfLIWi2W1O57DsTL6MQ9YMZatWzs2mOtuauv0NihjpXpd8RrhEsAZch6HTCU+l9Slk+wh4+N6alXD/oeA0CGWGmBjP1miz38bNPGrUt9z1MpAkCZslwHDHVVneU64LbdgxoeDTBVAXDOSiuMxna0bNyyyvcslSAAlCmrdcCQ6n9JWa4DhhqqANTMdGvtw7Nv2brY9yDlIgCUKat1wNDqf0lZrQNS/wNwVkazbN1Yp+8xykUAqEAWr1lncaZyZPGdNvU/AKWyUlvz7Zuv9z1HOQgAFcjiySqLM5XD1dMBqxH6awqgxoomqKYKAaACrp4OWKlQ639JWTvhhr5VAVBz1867Y/tk30OUigBQgazVAR8PtP6XlKUTLvU/ABVoHDkyssT3EKUiAFQoS3XArL1zrtT2X2anDkj9D0AlrB2b63uGUhEAKpSVOuBo0Wrb7uxsI6qRpTpgXkIVgNqytq7O9wylIgBUKCt1wKdfPaTBo+HW/5KyUgek/gegEkZmn+8ZSkUAqEIWrllnYYY0/b/n/V9aof4HoELHzPGhV3wPUSoCQBWysCbOwgxp2tN/3HsdMG+vKYCaebTnvuuCqWQRAKrguw7YM5iP+l+S7xNw3rYqAGrDWHOv7xnKQQCogu864OZd+aj/Jfk8AVP/A1AJK7Oj9+61D/meoxwEgCr5rAP6fqfsis86IPU/ABU4VK+xWyUT1B8eBIAq+aoD5qn+l+SzDpjXUAXAmSFjzI37O9u6fQ9SLgJAlXzVAfNW/0vyVQek/gegZEZ7rS1e3dux7hHfo1SCAJACH9es836jmo86IPU/ACU6YKWvFIaOL++/u+1p38NUqt73AHnwePeA7rxhfk2/52PP5/ud6sk64KLmSTX7nqz/M63HSjt9D4E4GatRyfZI2mcKhSd6B5q69EBr8O8WCAApOFkHbJo6oSbfr2dwWC+8mb/6X9Lj3QO6Zf15Nft+ed+qBG5Lf+f6m30PAeQJlwBSUOs6YF7rf0m1PCFT/wMQGwJASmpZB4xlVV3LOiD1PwCxIQCkpFZ1wDzX/5KOjRT145dq87PGEqoA4CQCQEpqVQf8Wc7rf0m1ugxA/Q9AbAgAKarFySorj8utlUdrUAek/gcgRgSAFNVijRzbqroWTweM7TUFAIkAkCrXTweMpf6X5PoETf0PQIwIAClyXQeMpf6X5PIETf0PQKwIAClzWQeMdVXtsg5I/Q9ArAgAKXNVB4yp/pfksg4Ya6gCAAJAylzVAWOr/yW5ugxA/Q9ArAgADrg4WcVW/0tyUQek/gcgZgQABx5+ul9pXgUYLVp9/+f96R0wQHv6j+uX+4dSPeaPflH7Rw4DQFYQABx4af+QHvxpX2rH+7vtvXrNcRc+BA/8pDe1Y1krPbAjveMBQGgIAI78t+/+Sn0Hq18v9wyO6C+/vzeFicL3t0/26K2UPmfhe8+8pVd7CVUA4kUAcGT/4LBu69yt4dHK62vHRoq6ZdML6k0hSOTB4NFRffXB16s+zsCRUf35Q69VPxAABIwA4NDPXj2km/9qV0WfDtgzOKzPfaNbz/7K/QOGQvLgT/vU+fibGQGBmAAACD1JREFUFf/64VGr37tnt97k5j8AkSMAOPbTVw7qhq89p+8981ZJn+JXtNKDT/XrE197Tk+/dsj9gAH60wdf1zd+uK/sT0U8ODSq3/32rmg/TwEATlXve4AYvDEwrN+7Z7cund+oz1zZrGsvm6kLmie9+8+tlV7uGdKjO9/W/3mqTy+8cdTjtNlnrXTX9/Zo+y8P6r/cfIGWzJ581q//4XNv68sPvKpfH+CdPwBIBICa2rn3iHbuPaI/e/B1NdQXNGtKvYyR+g6OaGSMj6Mt17bdB7Thz3+uttaZ+s0rZuqqC8/VedMbNHFCQYePjeml/UP68UuDuv8nvXop5QohAISOAODJ8GiRd6MpKNoTHxJ06gcF1ReMRh18HDMA5An3ACB3OPkDwNkRAAAAiBABAACACBEAAACIEAEAAIAIEQAAAIgQAQAAgAgRAAAAiBABAACACBEAAACIEAEAAIAIEQAAAIgQAQAAgAgRAAAAiBABAACACBEAAACIEAEAAIAIEQAAAIgQAQAAgAgRAAAAiFC97wEA4GyM0cqW9q5NvudAvIrWHDTSPmvM1v6Otc/4nicNBAAAmWetFktq9z0H4mVkT/yvtWrZ2LXHWnNXX6GxQx0rRzyPVjEuAQAAUAYrLZCx32yxh59t2rh1qe95KkUAAACgAlZaYTS2o2XjllW+Z6kEAQAAgMpNt9Y+PPuWrYt9D1IuAgAAANUwmmXrxjp9j1EuAgAAAFWyUlvz7Zuv9z1HOQgAAACkoWiCaqoQAAAASMe18+7YPtn3EKUiAAAAkI7GkSMjS3wPUSoCAAAAKbF2bK7vGUpFAAAAICXW1tX5nqFUBAAAAFJiZPb5nqFUBAAAANJxzBwfesX3EKUiAAAAkI5He+677ojvIUpFAAAAIAXGmnt9z1AOHgcMAECVrMyOvrvXPuR7jnKwAQAAoDqH6jV2q2Ss70HKQQAAAKByQ8aYG/d3tnX7HqRcBAAAACphtNfa4tW9Hese8T1KJQgAAACU54CVvlIYOr68/+62p30PUyluAgQQgh4r7fQ9BOJkrEYl2yNpnykUnugdaOrSA63DvueqFgEAQAi29Heuv9n3EECecAkAAIAIEQAAAIgQAQAAgAgRAAAAiBABAACACBEAAACIEAEAAIAIEQAAAIgQAQAAgAgRAAAAiBABAACACBEAAACIEAEAAIAIEQAAAIgQAQAAgAgRAAAAiBABAACACBEAAACIEAEAAIAIEQAAAIgQAQAAgAgRAAAAiBABAACACBEAAACIEAEAAIAIEQAAAIgQAQAAgAgRAAAAiBABAACACBEAAACIEAEAAIAIEQAAAIgQAQAAgAgRAAAAiBABAACACBEAAACIEAEAAIAIEQAAAIgQAQAAgAgRAAAAiBABAACACNX7HgAAzsYYrWxp79rkew7Ah6LVYuPguAQAAJlnrRZLavc9B+CDi5O/xCUAAACiRAAAACBCBAAAACJEAAAAIEIEAAAAIkQAAAAgQgQAAAAiRAAAACBCBAAAACJUkHTU9xAAAKCmDhck9fieAgAA1JDRGwVJz/qeAwAA1FR3wVrzQ99TAACA2jFF892CaSj+b1m95XsYAADgnpHeHikMf7fQ9+0Nh1WwX/c9EAAAcK9o9BcDHb8xWJCkvrnr75LU5XckAADg2Nb+geZvSSc/B+Crplg3WvicpF/4nAoAALhhpe6GhtHP6IHWYemUDwLaf+/avoaG0TYjPexvPAAAkDqr7xUnTVr1xrc+/u49f2a8r2u+bcvNMvZLkj5Us+EAAECqrNRdMPY/93Zs+IfkPxs3AJzUfOuWK2ydXW+srpK0VNIySY2O5gSA0+mx0k7fQwBZZ6yGrLSvIL1mrP1Bzz0bnj/t15Z78Gm/v3VGw9hoqy0WVhhTXCyZVhmtkNUi8WwBAG7c39e5/mbfQwB5Ul/uLxj866sHJG1756/33NTdMGd6z0VjprBC1iw2xi621rRK9jJJU9MZFwAApKHsAHBaD7QO75e6deKv92FrAABAtqQXAM6ArQEAANlSkwBwWmwNAADwwm8AOAO2BgAAuJPZAHBabA0AAKhaeAHgDNgaAABQmlwFgNNiawAAwPvEEQDOgK0BACBG0QeA02JrAADIMQJABdgaAABCRwBIE1sDAEAgCAA1wtYAAJAlBADf2BoAADwgAGQYWwMAgCsEgBCxNQAAVIkAkDNsDQAApSAAxIKtAQDgFAQAsDUAgAgRAHB6bA0AILcIAKgIWwMACBsBAOliawAAQSAAoGbYGgBAdhAA4B9bAwCoOQIAMo2tAQC4QQBAmNgaAEBVCADIHbYGAHB2BADEg60BALyLAACIrQGA+BAAgDNhawAgpwgAQIVOtzWY/bs/aiw2TFpqC8VlsoVlxtiLZbRMVkslNXoZFgASCABAynruu+6IpJ+/89f7sDWojDE64HsGIG8IAEANsTWojLV2r+8ZgLwxvgcAcGZsDSRTLK7pvaftSd9zAHlCAAACFdHWoLfPTJmnjpUjvgcB8oQAAORQvrYG5kt9neu+5nsKIG8IAEBEAtwavGLH6q/o/86aQ74HAfKGAABAkjSjfduCBjuytGgLy1QoLpc1S420zErz5efPimPWFFb3d6x9xsP3BnKPAADgzPx8GuJho+KNvZ1tP3J0fCB6BAAAFXOyNbD6ccHa9p57Njyf7rQATkUAAJC6Cu41GJP0mKz5Tt/da++XjK3xyEB0CAAAasiaGe1Pzq+zwxfUWU0vykwoFOze48Nm94G/2cCn/QEAAAAAAAAAAAAAAAAAAAAAAAAAAAAAAAAAAAAAACCn/j/0VJqLsPVQLQAAAABJRU5ErkJggg==;" parent="1" vertex="1">
          <mxGeometry x="58.5" y="281.5" width="43.5" height="43.5" as="geometry" />
        </mxCell>
        <mxCell id="HK9NlegRddoSVr3_TbAF-2" value="" style="shape=image;verticalLabelPosition=bottom;labelBackgroundColor=default;verticalAlign=top;aspect=fixed;imageAspect=0;image=data:image/png,iVBORw0KGgoAAAANSUhEUgAAAgAAAAIACAYAAAD0eNT6AAAABHNCSVQICAgIfAhkiAAAAAlwSFlzAAB+jAAAfowB9hn7bAAAABl0RVh0U29mdHdhcmUAd3d3Lmlua3NjYXBlLm9yZ5vuPBoAADKlSURBVHja7d3Zs1RVouD/juhfd/+inzv6qd/6vSO6O3r4FzqaWUCcQEVxBiwvipYDgljOKIoDjlBSKCo4XblqgSJoQcGZ53k+J62rVWqVWuXA6rO2RZV6Ec7JvTPPzsxPRnzfNDPZO0+uT+5hrX8VQvhX+nsffjj4Xya7bbL3Juub7MvJgiSdoo8ne3OyjZP9V9+lqoRshL8P/P97sqO+yCSl7JuJ8b4He3vq/7PvVgFAvgf+/2+yRyc77otLUhaNj/eFnq66vwwNtv1vA40AIJ+D/7+ZbLcvLElZA6Cr47cRAV9BgAAgnwB43peVpFIBAAIEAPkc/Jf4opJUagBAgAAgX4P/f5jsd76oJJUDABAgAMgPADb4kpJUTgBAgABg5gf/eOHfhC8pSeUGAAQIAGYWAIt9QUmaKQBAgABg5gCwwxeUpJkEAAQIAGYGAH2+oCTNNAAgQABQ3sH/P/pykpQXAECAAKB8APg/vpwk5QkAECAAKA8AlvlykpQ3AECAAKD0AFjly0lSHgEAAQKA0gLgZl9OkvIKAAgQAJQOAPf6cpKUZwBAgACgNAC435eTpLwDAAIEAAAgqUYBAAECAACQVKMAgAABAABIqlEAQIAAAAAk1SgAIEAAAACSahQAECAAAABJNQoACBAAAICkGgUABAgAAEBSjQIAAgQAACCpRgEAAQIAAJBUowCAAAEAAEiqUQB8DwH/y6AmAAAASTUEAAgQAACApBoFAAQIAABAUo0CAAIEAAAgqUYBAAECAACQVKMAgAABAABIqlEAQIAAAAAk1SgAIEAAAACSahQAECAAAABJNQoACBAAAICkGgUABAgAfDlJqlEAQIAAQJJqFAAQIACQpBoFAAQIACSpRgEAAQIASapRAEAAAACAJNUoACAAAABAkmoUABAAAAAgSTUKAAgAAACQpBoFAAQAAABIUo0CAAIAAAAkqUYBAAEAAACSVKMAgAAAAABJqlEAQAAAAIAk1SgAIAAAAECSahQAEAAAACBJNQoACAAAAJCkGgXA9xDwPw2gAAAAklRDAIAAAAAASapRAEAAAACAJNUoACAAAABAkmoUABAAAAAgSTUKAAgAAACQpBoFAAQAAABIOW6s5WgYeH1P6N32ZOjadE9ou+mG0HzF5aF9/S1h4JUXw0R/u+0EABAAAAAgVXojH7wTep54NLRdvzbUn7kkHPu/s07d7Dmh8547Q2Gsz/YDAAgAAACQKq2hd98KLVevPv2A/xM1X3VlGO9stC0BAAIAAACkSjnE37J6VdED//drOOusMHL4gO0KABAAAAAg5fpw/5H3kkE7i8H/+wgYb2+wfQEAAgAAAKRcHvLfvzfULTgj08H/RE2XXhIKw922MwBAAAAAgJSnRhsPh7r580sy+J+o7aafhw8LA7Y3AEAAAACAlIcKk4NM8+WXlXTwP1H3ow/Z5gAAAQAAAFIe6t6yuSyD/4kGXn3JdgcACAAAAJBm+tD/sVmzywqAeKohXmxo+wMABAAAAEgzVPv6dWUd/E/UuGxZmBjssA8AAAIAAACk8v/6P1L2X//fr+OOjfYDAEAAAACAVPZf/7fdOmOD/4kpg+OkQ/YFAEAAAACAVKYKoz0lv+3PUQAAgAAAAAApZ8VJf2Z68I/VL15sbgAAgAAAAACpXHU9cF8uABCzVgAAQAAAAIBUppouuiiTOf6zAEDPk4/ZJwAAAQAAAFLJB5X2hvSD/7nnhvGeltB20w2pn6v1ujX2CwBAAAAAgFTq+nbtSH31/vB7byfPFRf4abzwgnQLBV18kf0CABAAAAAglfz8/6Z70s3nv+WBHzzfwCsvprsQcNEi+wUAIAAAAEAqdR0b1xc/je+CM8JEf/sPn7MwkPqagsKIpYIBAAIAAACkktZ2w9qiB+quB+8/6XP2bn8yFQBMCAQAZUHAQOv/MGADAACoZmtZtbLoc//j3c0nH6g6G1NNKzx88Nf2DQBAAAAAgFTKij1c3/oPPzs1LK5eXTQAht55074BAAgAAACQSlnD2WcXNUj37dh2yuftefyR4o8A/PWuAgEABAAAAEglqm7uvKIG6Th/wKmed+D1PcUD4P399g0AQAAAAIBUUgAsWDD9e/VXXHza5x2t+8B0wAAAAQAAAFJea1y2bNoDdNvNN572eQtjvUVfCDh67H37BgAgAAAAQCplzVdcXsTtf5umdn1BkesDjDYctm8AAAIAAACkUta69trpXwD43C+n9Nz1Z55Z3DwAzeYBAAAIAAAAkEpa+223Tv82vX17pwaARYtKcoEhAAgCAAAApJR13X9vye7TrztjYXFTAY/22DcAAAEAAABSKet58rFpD9D9e3ZNDQDzp3+HQf3ixfYLAEAAAACAVOr6X9w57UG6d9sTp33e5C6A2XOKuMVwhf0CABAAAAAglbp4z/207wJ44L7TP+/RQ8VNMXztGvsFACAAAABAKnXxfPt0f6m3r7/l9EcWdj9XFAA6br/NfgEACAAAAJDKUdMlK6Y1SMf7+z+c6D/lc8ajBMUAoPuRB+0TAIAAAAAAqRx1bNww7YF6cO+rp3zOuFpgUYsM7dxunwAABAAAAEjlqPfZp6c/HfANa0/5nMVOAjS49xX7BAAgAAAAQCpHcfndaQ/Ws+eE8a6mkz7faOOR4hcC+s279gkAQAAAAIBUjiYGO4pauKfnqa0nfb7uRx8qGgDjHWYBBAAIAAAAkMpW4/ILi5q0Z6y9/ofPVRgoaoXBWN28+cn/b38AAAQAAABIZarz3ruKGrSbr7oyFCYHpr+dTji4r+hf/82XXWpfAAAEAAAASOVs8M3Xih64uzb/fWKgjrt+UfTzxIWJ7AsAgAAAAACpjBWGOkPdnLlFD94REHH632JXAEyuKXj6cfsCACAAAABAKnctV68qevCO1wP0bn+q6P8/QcRbr9sPAFA1CBgcaP3vAAAAUkVUzMqAWTbWVmc/nKKJif7Q19uoCmmgv3liZLjj3wMAAEi5r5iFgbKqbsECdwCoGrsUAABAyn+TA3CxM/ilrfnKK2x/VWONAAAAUkUUV/qbCQB0/MIqgKra/i0AAICU+wb+cc+MAKB3+5O2v6q1/wQAACDlvsJIT6hbcEbZATC0b6/tr2rtvwEAAEgVUfv6dWUHwHhno22vau3/AAAASBXR4N5Xyzr41y9cZLurmlsGAAAgVUTJjH4LF5YNAC2rV9ruquauBQAAkCqmOC9/uQDQdf+9trmqubsBAACkiilOy1suAAy8tts2VzV3PwAAgFQxFcb6Ui3sM60pgNvrbXMBAAAAgJSXujbdU/LBv+Hss21rAQAAAICUp8aajpQcAG033WBbCwAAAACkvNW65pqSAqDn6cdtZwEAAACAlLcG975SUgAMv/e27SwAAAAAkHLXRH9oOO+80gBg9pxQGO62jQUAAAAAUh7refKxkgCg6bJLbV8BAAAAgJTXxntaQt3cuZkDoPPuO2xfAQAAAICU59o3ZL9AUP/u521bAQAAAICU54bf3585AEYbj9i2AgAAAAAp78Vz9pmtALh4cfiwMGC7CgAAAACkvNe/a0dmAGi9bo1tKgAAAACQKqHCSHdm6wN0b33YNhUAAAAASJVSXLo3CwAM/foN21MAAAAAIFVKY81Hw7FZs1MDYKK/3fYUAAAAAEiVVOu1a9IfAXjnTdtSAAAAACBVUvH+/bQAaL7icncBCAAAAACkSqrrwfszuQ5g4PU9tqcAAAAAQKqUmi5ZkQkAGpdfmCw2ZJsKAAAAAKScN97VlO10wLt22K4CAAAAACnv9e9+LlMANJx7biiM9Ni2AgAAAAApz7XfenPmawL0bnvCthUAAAAASLmtMJDM4Z81AOJzTgx02L4CAAAAACmPjRw+kPng/7epgR/ebBsLAAAAAKQ81vP4IyUDQN38BWG8u9l2FgAAAABIeatl1cqSASDWec+dtrMAAAAAQMpT8Rz9sdlzSgqAujlzw1jLMdtbAAAAACDlpYF/3FPSwf9E7evX2d4CAAAAACkvddx5e1kAEFcaHD16yDYXAAAAAEh5qOG888oDgMla115rmwsAAAAApJlutOFw2Qb/Ew2/97ZtLwAAAACQZrLeXz5VdgA0r7zKthcAAAAASDNZ67Vryg6A2OA/vWr7CwAAAACkmSgu1FM3b/6MAKDp4ouS6YftBwEAAACAVOaG9u2dkcH/RH2/2mY/CAAAAACkctd1/70zCoD6hQvDeFeTfSEAAAAAkMpZ00UXzSgAYm0332hfCAAAAACkcjXe3pBuat8FZ4SO2zdkc0Hg26/bJwIAAAAAqRz179qR+pf7RF9rqF+8ODUAGpcuDYXhbvtFAAAAACCVujiApxm0+3c/nzxP387tmRwF6Hpwk/0iAAAAAJBK2kR/qF+4qPgBe/ac5Nf/iedquvSS9AiYfM7RY+/bNwIAAAAAqVQNvfNmqsG6ZfWqHzzf8MFfZzND4FVXmhtAAAAAACCVqs6770g1UPdue+JfPGf7+luymRtg53b7SAAAAAAgZd5Ef2g466xUg/RY05F/8bzjnY2hbsGCDOYGWBTGu80NIAAAAACQMm34wFvprthffuFPPnfPU1szOQrQvu5m+0oAAAAAIGVZ5713pbxa//6ffO7CWG9ovOCCTBAw9Os37C8BAAAAgJRJhYHQcPbZqQbm4UP7Tvkag2+9ngkAGpctC4URcwMIAAAAAKTUDR/cl+78/JlLkmsITvc6rddflwkCurc8YL8JAAAAAKS0dW26J9WAHKf+ncrrjDUfDXVz52YzN0DdB/adAAAAAEAqunj4/9xz083Z/8bLU3697i2bs5kbYOVV5gYQAAAAAEjFNvz+/nSL/8ydFwrDXVN+vfjfpgXH3+YGeP5Z+1AAAAAAIBVT1wP3pRqEW9deO+3XzOqCwPpFi8J4T4v9KAAAAACQplvD0vNm5Fd4+4Zbs5kb4Jab7EcBAAAAgDSdRg4fSD0Ax5n+inntib621DMP/m0Fwhd32p8CAAAAAGmqxcl7Ul2Id+UVqV5/4B/3ZAKAONXwyaYhlgAAAABAOklxUp1Ui/9sfzL1e2i7+cZMENB02aXJjIP2qwAAAABAOkUjR95LN+jOmh3G2xtSv494EV/94sWZIKDr/nvsWwEAAACAdKrS3o+f3Ief0XsZePmFTACQzEnw9uv2rwAAAABA+qnSLs7T++wzmb6ftuvXZnNr4JIllg0WAAAAAEgna/TY++kP/3dlO8jGuwnqFy7KBAGta64xS6AAAAAAQPpx3Y8+lGqAbbl6VUneV/8Lv8rsVEDP04/b1wIAAAAA6fs1XbQ83eQ/O7eX7L3FX++Z3Bo4Z24yz4H9LQAAAACQJhut/yD94f8STr871lYX6hackQkCGs8/PxSGOu13AQAAAIDUvfXhdIf/r/lZyd9j36+2ZXYqIE45bL8LAAAAAFTzNa24OP8r8BUGQut1azJDQP+e5+17AQAAAIBqt9HGI+kG09lzwkRfa1neazzNkNVaAfGUwljLUZ8BAQAAAIBqs+5Ht6S7ve7aNWV9v0O/fiO55iALBDRfcXkojPf5HAgAAAAAVGMVBkLj0qUVt+pe1wP3ZXYqoOvBTT4HAgAAAADVVkPvvpX6trqJ/vayv+/CWF9ovuzSbBAwa3YY2r/X50EAAAAAoNqpY+P6dIf/r79uxt57XOo3LvmbBQLidQXjHQ0+EwIAAAAAVX/xXvi6+ekG0P7dM3slfTz9kNWpgKZLLzE/gAAAAABA1V/awbNu7rwwMdgx4/+O9nU3Z4aA1rXXhg8n+n0+BAAAAACq3lpWr0o1WLbdfGMu/h0RIWkvZPx+nffe5fMhAAAAAFB1Fu9/TztQDr75Wm7+PcPv70/mI8gKAb2/fMrnRAAAAACg6qv7kQdTDZD1S5bk7lB5zxOPZAaAeGfA4D+96rMiAAAAAFAVVRgIDeedl+7e+fvvyeW/q+Xq1ZkhIF4gOXLkPZ8XAQAAAICqo6F33kw9OI789mAu/23jnY2ZTRWc3B549jluDxQAAAAAqDpq37Au3e1yK1bk+t83fHBfMkGR2wMFAAAAANJfmxiM9/7PT3eB3LYncv/vjKsTZnY9gNsDBQAAAACq9Pp37Ui98t94d1NF/Fs777kzUwTE5/MZEgAAAACoImteeVW6X8LXramYf2tc5S/LiwKTox/bZ+72wMJoT7Ic8ljz0TDacDiMdzWFwkiPzzUAAAAASKdurOm3qQfAgVdfrKh/80Rva2hYel6+bg8sDISxtrpkAaL+F341iYonkyWZuzbdEzpu3xDabvp5aP2HnyVLFTdecEFyy2Xd3LmnmJFxbnLhY+Py5Qnw4umK9vXrkgmN4qmQ0cYjPv8AAAAAoFqu++HN6e79X7iwIn9xjh49lHrNg2JuD4x3JAwfeDs57RKXHG678YbQdNFFyRTKWR6VmNrdDGeH9ltvBgIAAAAAUM0V7/0/99xUg0jHHRsr9t8/8NrujAfU724PjEcY4iyE/bufSyZXal93U3LXQFarFJYSBB0bN+T2dk4AAAAAkDJqaN/e1INGvL2ulo+AnOyCyDwP8lO+rmPNNWH4wFv+TgAAAABA1Vj7+ltSDRKNy5YlRxEq/ShI2w1rq2LQLkWdd98RCiPd/l4AAAAAQNXSxEBHqJuX7t7/7q0PV8e2GOwMTRctN+D/FPSWL3eNAAAAAACoWspiUpyxlmPVdTpk1mwD/imuD4AAAAAAAFAV1HzVlakGhJbVqyr63z/e3hD6dz+f3GLXuHSpQX6KCIi3Kvr7AQAAAABVaPGXXNrBoP/FnZU14Hc2hoGXX0juWojXLhjQi7840N8QAAAAAKhC697yQPp7/4fzfWFYnJp44JUXQ8ddv0gmzjF4Z1e8vdHfEQAAAACowopT4cZDuamuDL/3rvz9uyZBEmfji1etx4vWDNQlvCgw3v3hbwkAAAAAVFnFX8VpB4DRY+/n4t8SL0Ls3fFMaL12zYzMpFfLjRw95O8JAAAAAFRJpb34L84rP5NHL4befSt0bb7Pr/wZLs5w6O8JAAAAAFQhjRw+kP7870vlPf8bV7qLr9l2843JtQcG33wU503wNwUAAAAAqpA6Nq5PefHfotLPClcYSBbViZMMxZXv3Juf3+K6B/6uAAAAAEA5L/6SPtXysVO6+O++u0s36H/wTuh64L7QcN55BtfYJHzikr9NKy5OlgGOS/l23X9P6HlqazKJU5zDIC5mNLj31TD06zeSUyNxAaKIp3ikJ87jP/jW68l/E2/Z7Hn8kdC+Yd13qMpovQJzAgAAAACAKqCeJx5Jf/Ff3QeZDvrDh/Ylg1raFQmr6gr7Cy4Io/WT23miv3QY7G5KPg9psTXe1eRvCwAAAACU55Jb/845Z+Yv/ouD/sFfh85Nd6d+P1WNgKVLw2gZrrLv3pJuJcSJvjZ/XwAAAACgPJfFuvfxkHPRg/6Bt5O5A9LOP1BL1c1fEAZefbFkn4mx9vrUi0EVhjr9fQEAAACA8lzLqpXpLv5bFC/+65nWoB/PScdJeRrOOqs6B+gzFpbl1EXXg/eX5HRA2qWg6xcvrvyloAEAAABA1dzIbw+mH4Q23TOl1xptPJxMM1yN5/QjZOKtiL3PPp1s0zgoF4a7Quv115X8teNERxP97Zl9JoYP7U/9njpuv83fFwAAAAAoz8Uv6tQX/9X/5ieff6KvNfTt2Pbd1eXVdB5+2bLktsn+F34VxppOsQzuJATikY7SXxx4/ncXB6Yd/A/+Ojmik/b9xDsM/H0BAAAAgHJaHJzTTpHbsnrlv3jewlhfGHzj5dB24w2hbs7cyh/wZ81ObrfrvOfO5Lx7XDlwutu6d9sTJZ+zoG7BGclUzsV+HgZe35PJlMnx9EdhrNffGAAAAAAor/U8+Vj6i//27Pr76YTfvJtczBfP/1b0gD97Tmi+8orQ9eCmMPjma5kdXh/4xz2pL6ybEsquXpXc7z+V9xQH6jjwJ6cqMgJKnJPA3xcAAAAAKK9N9Kc+Fx8H+nj4O0Kioufenxz44hoI3Y9tCUPvvFnSpYzjhEb1Zy4py7+pde21yZz88S6PuDhPnPxn4OUXQs/TW5NJm9puuqEkWIvb0N8YAAAAACinxV+jqQ/1xl+zFToVb1w3oH3dTcnti3EWxHJu+7hKYePyC6vy7od42sffFwAAAAAox8XDxDU3gc7y5clKgfGXcJz8aCa3fzytUG37IILQ9L8AAAAAoBw3euz92pgsZ+7c0LrmmtD77DOTv7qP5m4/xPPv8Xx5tWzveArF3xcAAAAAKMd13LGxagf9OJtg/PfFuxAqYia6wkBynr7ij64sXTq9yaAEAAAAACrzoee+tlA3f371DPrxAr4rLg89Wx/+7sr3Cp19Ll44F+cWqNT9MLj3FX9fAAAAAKA81/P041VxrjlewR6XsR3vbq6afRPvPohX51fahZXxCIa/LQAAAABQnou3/i09rzIH/tlzktva+vc8HyYGq3uRmbgMcqXcJdCxcYO/KwAAAABQ3ouHaSvt8H7LNVeHvuefrbmlZQujPclCPxE+ed0/cQ2Cmb6bAgAAAACk01UYCC0/u7oiBv44C19cVGe8q6nm99vI4QOhacWK/O2jyy613C8AAAAAKO+H/eP89XEu+zwP+k2XrEhmFBxrPWaf/fhowFhfcotdXtZViBddVtO1FwAAAACgqhv4+3c/FxovvCC/t45dcEHofvShU64mqL8X528ox/LCpzol071ls8P+AAAAAKB8/lrsTc6Z5/WWsrj+QNfmTVNerEYnOS1w9FBou/nGst4tEC8eHX7vbdsfAAAAAJS7gX+kJ5nxLu0CP6UoLjgTl9IdPrivYu/Tz+URgYbDyVX4pZ7XoX3DujAx0GGbAwAAAIByNfAPd4XeZ54IDWedlbuBv2X1qmT1uXhFu31Vws/AUGeyqFGc9jirowINZ5+THO4fa87fFMoAAAAAoJpuYrAj9DzxSEmWc031a3/RotC56W7n9Weo8c7G5BRQPDKQzCUwDRDEiwzjan6Db76WXENiewIAAACA8vRrb7wv9O54pjxryk/nyvCrrgz9Lz1nPvi8QbG/PQzt35vMmhiPFHU9uCl03H5b6Lz3rmRWyHiHyPCh/WG8vcGgDwAAAADKa3GBm3jlfG6m5D1jYei8+47k6nT7RwIAAAAAZdzw+/tD88qr8vNr/4rLQ/+uHcn1B/aPBAAAAADKuHgBVnK7Vx5+7S9YEDruvN3texIAAAAAqFRN9LUmF9LlYea3pksvCX07t1f9AjwSAAAAAGjGilO+9jy9NdQvXDjzh/lXXhVGPnjHfpEAAAAAQKUsXonddNFFuVmFz4V9EgAAAACohMVD63GWvHJO63ramd/W3WTfSAAAAACgUjX4T6/mb+re+Ou/4bD9IwEAAACAsi4updp+y025XKynfcOt9pEEAAAAAMq0wkBy/3ycLjeXS/TOnmPudwkAAAAAlGVj7fWh5WdX53Pg/2sdv7jNvpIAAAAAQFk1+PbruVu052QLwYy11dlfEgAAAAAodRP9ofuRB3N1hf9PFef0t88kAAAAAFDKxntaQss1P8v9wJ/8+p87L4x3NNhvEgAAAAAoTcMH94WGs8+piME/+fV/3932mwQAAAAASlPvtieTq+nLddV+6l//8+eH8e4m+04CAAAAABVTYay3fCv3zZqdnLNvu35t6ufq2nyf/ScBAAAAgIoa/Ie7Q+uaa8qzOt+KFWH4/f3JQj1pLy6MS/xO9LbahxIAAAAAaLpNDHaEllUrS3+h3vz5oeepraEw3pdMKBRX60v7nN1bNtuHEgAAAABo2oN/X2tovuzSkg/+rdeuCWOtx/72ugOvvJD6OeOSwxP97fajBAAAAACaTuNdTSVfvrfhrLPCwKsv/uB1CyPdmSwg1P3YFvtRAgAAAABNpzhjXuP555f0Ir+Ou35x0l/o3VsfTv/rf/Hi5NSFfSkBAAAAgKZYvGiucenSEl7kd3EYPrT/5EcdOhtD3fwFqV+j58nH7EsJAAAAADTlJvpLN7vf7Dmh54lHv7vI7ydePy7Vm/rX/5lLQmG4y76UAAAAAEBTLd4zX4rBv37JkjD83tunfO0sbvuL9W57wr6UAAAAAEBTbeDVl0oy+Ddfcfnp5+Gf6A/Nl1+WyUWF8SJC+1MCAAAAAE2h0boPMjn3/uM6Nq4PhdGe075+/NWexev17dhmf0oAAAAAoKk0MdARGi84P/Pz/b3PPjOl14/3/8dJgLK4uDAeSbBPJQAAAADQFOq6/97sz/cfeHvKr5/VFMPDB96yPyUAAAAA0FRKbrubOy+78/2XXxbG2xum/Pr9u5/L5HXb191kf0oAAAAAoKkWJ+PJavCPKwVO5Xz/3/DR05JM2JN+DYEFp7/IUBIAAAAA6LvGWo4m5+qzGPxbrl4dCmN903r99vW3ZPLaJv2RAAAAAEDTGYA3rMtkAG5cvnzai+4MvL47m9e+4PxJePTanxIAAAAAaEq//puOZDLpTrzg7/ur+E2l0cYjoW7BGZkAYPCt1+1PCQAAAAA01Xq3P5XBuff5yex903ndwnB3aLo4mxUGW6+/zr6UAAAAAEDTqe3n16dezW/wjZen/brt67M57VA3b35yDYN9KQEAAACAplphINQvXJRqAO5+5MFpv27fzu2Z3XHQ+4z5/iUAAAAA0LQaOfJe+vn2p7na3shv3g11c+dmM9fAlVeY8U8CAAAAAE233u1Ppptv/1fTm29/oq81NJx3XjaH/ufOC6MNh+1HCQAAAAA03Tp+cVuqc//TuuWvMBBar12T2aF/9/xLAAAAAKBiAXD7hlRL+07ntbof25LpNMMO/UsAAAAAoBkAQMuqlVN+ncF/ejWTuQaSQ/9z5iZLFtt/EgAAAABoBgAQLwCcymsMvPJiMmhnduj/8UfsOwkAAAAAlAoAd2xMt+zuof2nfP7eHc9k9sv/xFX/hfE++04CAAAAAKUp7f34ce7/n1r1L84PkNXAf+KIg5X+JAAAAABQBo02Hk4/De91a0JhpPvvzzvRHzozXFo4afacMPze2/aZBAAAAADKqoazz05/aH7lVcktgUPvvBmaLr0k28E/zjewY5t9JQEAAACAsiyrOfnrFy/OfOCPdWzcYD9JAAAAAKCs639xZ0kG7kwu+rvi8p+8xkASAAAAAChFcYBtXLYsd4N//ZIlYbzdRX8SAAAAAKhkxeV8cwWAeNHfARf9SQAAAACgkte65prcAKD32WfsEwkAAAAAVI5G63+T/PKe6cHfTH8SAAAAAKjMdd1/z8wN/rNmu91PEgAAgGaiicHO0LTi4hk559+/Z5d9IAkAAEAz1XhnY2hYel7ZBv+6efPD4Juv2faSAAAANNONNh4J9WeeWfrB/4yFrvaXBAAAoFwhoOFwSecHiMAYOfKebS0JAABAeWuirzW0rF6V+eDfev11yakG21gSAACAclphrC90xNX9Zs3OZL2A/t3P266SAAAAVCmNHns/tF2/triBf9Gi0P3oljDR12ZbSgIAAFAlNnxof2i55urTHxGYPSe0rFoZerc/mdxeaNtJAgAA8CGvggojPWHktweT+/e7tzwQ2tffEjo33R16nt4aBl7fEyb6220nSQAAAAAgSQIAAJAkCQAAQJIkAAAASRIAAAAASJIAAAAAQJIEAAAAAJIkAAAAAJAkAQAAAIAkCQAAAAAkSQAAAAAgSQIAAAAASRIAAAAASJIAAAAAQJIEAAAAAJIkAAAAAJAkAQAAAIAkCQAAAAAkSQAAAD7kkiQAAABJkgAAACRJAAAAACBJAgAAAABJEgAAAABIkgAAAABAkgQAAAAAkiQAAAAAkCQBAAAAgCQJAAAAACRJAAAAACBJAgAAAABJEgAAAABIkgAAAABAkgQAAAAAkiQAAAAAkCQBAAAAgCQJAABAkiQAAABJEgAAAABIkgAAAABAkgQAAAAAkiQAAAAAkCQBAAAAgCQJAAAAACRJAAAAACBJAgAAAABJEgAAAABIkgAAAABAkgQAAAAAkiQAAAAAkCQBAAAAgCQJAADgR/Xv2fVC77NPB0mSflwcIwCgSmv7+fUNx/7vrCBJ0o+LYwQAAIAkCQAAAAAkSQAAAAAgSQIAAAAASRIAAAAASJIAAAAAQJIEAAAAAJIkAAAAAJAkAQAAAIAkCQAAAAAkSQAAAAAgSQIAAAAASRIAAAAASJIAAAAAQJIEAAAAAJIkAAAASZIAAAAkSQAAAAAgSQIAAAAASRIAAAAASJIAAAAAQJIEAAAAAJIkAAAAAJAkAQAAAIAkCQAAAAAkSQAAAAAgSQIAAAAASRIAAAAASJIAAAAAQJIEAAAAAJIkAAAAAJAkAQAAAIAkCQAAwAddkgQAACBJEgAAgKZc/fwF4cNXXilLhd27w+i27WFw84Oh97aNoXPNtaH1kktD/RkLK2qbjTz1VNm22YcvvxzGdz4Xhh99LPTdcWfouv6G0HbZ5aHx7HPCsVmza/IzO/jAA+Xb/jPUxK4XfD8BAAAAQGlrWHxmmOnH8W+/DZ/39ITCnj2hd8OG0LjkrFxvsy/6+2d8m3234Y6Hrz/5JHwxNBQ+a2oKHx84kACr87q1Ceyq9TP7h98czsf2L+Hjmz/9yfcTAAAAAFQ/AE42sH0xOBjGduwITeecCwDFbMKvvw5/6ugIhRdfCp3/sKaqjhYAgAAAAFStAPjRQPbx/v2hffXVAJDi8ZcPP0wOK7ddcSUAAAAAAAAAKP8A+P4j/qLt3XAbAKR8fN7dHbpvvBEAAAAAAAAAAKCyHr8/dOi7i+AAINXjs8am0JGjIysAAAAAAAAAAACnfcSL3/puvx0AMgJV64pLAAAAAAAAAAAAKufx8bsHyn7XQLUBID6Of/NN+Oe9e0PTeUsBAAAAAAAAAAAq4/HlyEhZ7xaoRgCceHz7l7+Ese3bc33XAAAIAABAAPB3BAwPh8ZzzgGAjB6/P3gwt3MJAIAAAAAEAD94xAlxyoGAWgBAfMS7BfJ4SgAABAAAoJkGwPHj4cuR0Sn3l8KH4dsvvywtAgYHS36HQBoAfDk6mvz/p+rPY2Ph688+S7bvTD+++uij0L5yVdUA4OtPPz3t9s9Df2xr8/0EAAAAAPkFQLG/UuKh5eYLLkxuQYvz2//+vYPh2z//ObNB64+trSU9h50GAO1XrZz6a03+G+IFjvEK/Y5rrgk9624NA/feF0YefzxM7NoVPmtpSSZKKvUj7puZuuMiawDEefb93QMAAACAZggAJ0XBgjMmMXBH+LS+PpNBa/ixxyofAFPZbmcsDD23rEsWDYqnQEr2OH78u4sDAUAAAAAAAAClOk8ZIfDVH/6Q+ldry/KLqh4APy6esx+4b9PkIPmbkpxCGH5sKwAIAAAAAACgdBcqNZy5JLnHP80jHiIvxamAPAPg+7WvWh0+bWjI9kDA11+HzjVrAEAAAAAAAAAlfH+Tg3dcCCjNY+iRR2oWACfq/vmNyXLLWT2++vjjGV2lEQAEAACgagfAZHVz5oY/HE5x1fcnn4S6ufNqGgAnMBVPrfx5fDwTBMSjK3Wz5wCAAAAAAAAASle8a+DPhULR7zPrFQQrEgAn9veixeGzpqZMEFB48SUAEAAAAAAAQGmLg3ixjzhgAMD3jqrMm5/cepnFo3dj+W8PBAABAACohgAQK/YWwXjhWpaTA1U6AE6cEvjw1VdTA+Cbzz8PzcvOBwABAAAAAACUrjgRTrGP4a2PA8BJGn3mmdQI+N1rrwOAAAAAAAAASnjoeu685BdnMY94FTwAnLzCnj2pABBXECznmgEAIAAAANUYAGLFzg0QBykAOHnxIssvh4ZTIaCw52UAEAAAAAAAQD4PWcd59QHg5MUFf9KsKxBnXiz1IkwAIAAAAACoYQD033130e+37cqrAOAUjf3yl6mOAkzsegEABAAAAAAAUJriNLTFPuJFhADw08WJff7U1VX85+GLL5IpnAFAAAAAAAAAmRdvOSv2MfTQQwBwmnpv25jqKMD4jl8BgAAAAAAAAErQrNlFn6se3/kcAJzuKMDceeHrTz8t+t8XpxoGAAEAAAAAAJQkAChtH76SboKglguXA4AAAAAAAACyrX7BGUW/3+FHHgWAKdS+cmUqAAw++FBJ3x8ACAAAQDUIgKaly4p+v32/uAMApvpvHBgo+t/4+0PvA4AAAAAAAAAy/uO+/Iqi32/XdWsBYIqN79xZ/Ofij39MrtUAAAEAAAAAAGRW57XXFf1+Wy+5FACmWFzlL82j42fXAIAAAAAAAACya+C+TUW/36zuUa8FALRcdHEqAMRJhQBAAAAAAAAAmfXPb71V1Hu1FsA0mzU7fPvll0X/O//Y0gIAAgAAAAAAyK54n3kxj0+OHgWAafanjo6i/51f/f73ACAAAAAAAIBsikvOFvsY2vIwAEyz372xt+h/5/Fvvy3ZhYAAIAAAANUYAAYfeKDo9xqnEAaA6TX2y2dDmkfjWWcDgAAAAAAAAFI2+Wuy2DXr4z3tWb6XWgHA8GOPpQJA22WXA4AAAAAAAADS1bt+Q9Hvc+L55wGgiNLccREfXTfckDsAfPzOu8k+yGNxNUbfSQAAAAAAAD/69f+njs6i32fH6qsBoBh0bSgeXfHRf+dduQNAnh/xb9F3EgAAAAAAwPca27696Pf4ydFjmb+fWgFA19rrUw1ow49tBQAAAAAAAAAAKK6edbeGcPx4cW9w8v9ru+JKACiy9lWrUw1oE7t2AQAAAAAAAAAAFPEL9IYbktco9vHRvn0leV+1AoDONWtSAuAFAAAAAAAAAACA6TXy1FPJveTFPo5/9VVoPv8CAEhR9003pxrQRp/ZBgAAAAAAAAAAMMVB58Ybw2ctLam/TAsv7S7ZNqsVAPTdnm5BoKFHHgEAAAAAAAAAAPiX1c2dlyzvG68WH3/u+fB5b28mX6R/bGsL9fMXAEDKBu69L9V+6L/nXgAAAAAAAACoRgAc/+ab5Mt4un1y5Ej4YnAwHP/668y/RL8cGQ2NS84q6TarFQAMPfxwqn0R524AAAAAAAAAgCoEQN4eX//hk9By4fKSb7NaAcDoU0+n2h9d160FAAAAAAAAAAAo7ePbP/858wl/ah0A4zt3pton7StXAgAAAAAAAAAAlO7x1Ucfhc4115Ztm9UKAAp7Xk61X1ouujh3APjdG28kn/k8VqrVEwEAAABAVQmAeD1Bqc/51yoAPtq3P9W+sRqgAAAAAAAAMn/ECwjjanUzsc1qBQCf9/Sk2kfxLg8AEAAAAAAAQGaPz7u7S3Z+GQD+2qzZyXUVxT6+/fLLkr03ABAAAIBqDACf1tWVbIlZAPhh8fx9mscfW1sBQAAAAAAAAMU/4lwDH+/fX5JFfQDgp4v38Kd5FPbsAQABAAAAAABM7/HVxx+Hj995Nwxu3hyali7L3TarBQDEefzTPOLsjgAgAAAAAACAk/+6/+qrZLD/YmAgfHzgQBh66KHQuuKS3G+zWgDAx++8k2rfluoWQAAQAACAD3oOABAvEuvdcNuUi6vLxTXmmy+8MNSfsbBit1ktACDNv/Hrzz4r6XsDAAEAAGiGAVDK5YABYOZqPOecEI4fL/rfGC/WBAABAAAAAAAAQIUBYHDzg6kO/4/vfA4ABAAAAAAAAACVBoBPjx1LBYBSrQIIAAIAAAAAAACAEn4e0izTfPzbb0Pj2ecAgAAAAAAAAACgkgDQf/c9qX79f3L0aMnfIwAIAABAAAAAWQ+u77+fCgB9d9wBAAIAAAAAAACASgJAXL0vzfz/8fNQN28+AAgAAAAAAAAAKgkAH77yaqpf/797443yHKUAAAEAAAgAACCb4sx9aS7+i4+Oa64BAAEAAAAAAABAJQHg9wcPphr8vxwdLdt7BQABAAAIAAAgg+Iv97SPuHgQAAgAAAAAAAAAKgUAs2aHP7a1pxr8v/7kk9CwaDEACAAAAAAAAAAqBQBxQEz7GNrycFnfMwAIAABAAAAAKRrdtj314P/l0HComz0HAAQAAAAAAAAAlQCAwc2bQxaPnltuKft7BwABAAAIAACgiHo33JbM2Z/28Wl9w4y8fwAQAACAAAAAplH9/AVh/Fc7U9/vHx8REG1XXAkAAgAAAAAAAIA8AyAeqv/z+HjI6jHyxJMztv0BQAAAAAIAADhNzcvOD78/lG6Bnx8/Ptq3b0a3PwAIAABAAAAAJ9unZy5JlvWNs/ulWdznZI8/dXaWZcEfABAAAAAAAAAATKE4l//I44+Hz5qbw/FvvgmleHz10Ueh6bylM779AUAAAAACgIoDQOGl3WF46+NFFafbLex5OXz8zjvh0/r68HlfXzIoZ3FR3+ke3375ZehYfXUutj8ACAAAQABQcQCoxMdffve70HblVbnZ/gAgAAAAAQAAlPjxp46O0HTOubna/gAgAAAAAQAAlPDx0b79M37BHwAIAAAAAAAAAMr0iOf74zUHed3+ACAAAAABAABk/Pj4wIHQtHRZrrc/AAgAAEAAAAAZPb4YGAhd162tiO0PAAIAABAAAEDKx+e9fWHg3nvLvqQvAAgAAAAAAAAAyv04fjwZRCvlFz8ACAAAAAAAAACKfPzln/85mUBocPPm0Hz+BRW9/QFAAAAAAgAAmMKAH6cJrqbtDwACAABQBsU14uOXYjFN7HqhJrfZyFNPFb3Nsi7ug5EnnwwDmzaFnlvXh85/WBOaL7iwqrf/4AMPFL29em/b6O8eAAAAACRJAAAAACBJAgAAAABJEgAAAABIkgAAAABAkgQAAAAAkiQAAAAAkCQBAAAAgCQJAAAAACRJAAAAACBJAgAAAABJEgAAAABIkgAAAABAkgQAtQqAG2+o9yGXJJ0UAJNjBABUaR2/uO0DH3JJ0smKYwQAVGndWza/7UMuSTpZcYwAgCqt/+VdL/iQS5JOVhwjAKBKK4z13l+/eLEPuiTpB8WxIY4RAFClffjh4PyOjet92CVJPyiODXGMAIDqBcC/HT166A/HZs32gZckfdfkmBDHhjhGAEB1I+DOjjs2+sBLkr779T85JsSxodbGw1oEwL8e72x8rXHZMh98Sarx4lgQx4Q4NgBAjZwKGD607726BQv8AUhSjRbHgDgW1Nqh/5oGwF8R8P8P7n3lvfozl/hDkKQaK373xzEgjgW1Og7WLABONPDqS+c2rbj4C38QklQbxe/8+N1f6+NfzQMgQcDre/515713bW1ctuwbfxySVJ3F7/j4XR+/8419APCDxpqP/rvuR7esbF9307Hmyy/7rGHp0q/r5s33hyNJFVb87o7f4fG7PH6nx+/2+B1vrPt7/w/O5OlTOyAwFwAAAABJRU5ErkJggg==;" parent="1" vertex="1">
          <mxGeometry x="15.5" y="284.5" width="32.5" height="32.5" as="geometry" />
        </mxCell>
        <mxCell id="HK9NlegRddoSVr3_TbAF-3" value="" style="shape=image;verticalLabelPosition=bottom;labelBackgroundColor=default;verticalAlign=top;aspect=fixed;imageAspect=0;image=data:image/png,iVBORw0KGgoAAAANSUhEUgAAAgAAAAIACAYAAAD0eNT6AAAABHNCSVQICAgIfAhkiAAAAAlwSFlzAAAOxAAADsQBlSsOGwAAABl0RVh0U29mdHdhcmUAd3d3Lmlua3NjYXBlLm9yZ5vuPBoAACAASURBVHic7d15nI3l/8fx931mNfYlWSokkjZFyVJJUhKpb1q/rd+0SLJVtGovWZIkJGnRoigZe5F9S7Lv29h3M2P2c67fH/20IWOc+1znnPv1/C9xfd55TGfec9/Xfd2OEL1at45RlW1nKU9ny2cqK+BUkU+nS6aMjFNGUmlJCZLiJBWxGxbIv3PLVVmz59Chhju7j9plOwsQqRzbARBEHeudJSemvnymvqTaCqimHCXZjgUEW/3K5ysuJmbVul276m/pPmKf7TxAJKIARLKuDUsqxzSVo+skXSupvO1IQCjUr3y+SicVU2pOxpIlO9c13Nd9XKrtTECkoQBEmg6NSsiX11JOoLXkXKvfL98DnnK4AEjS/sy0Rav27Ll8d/cR6ZZjARGFAhAZHHWq11iO7yFJrSTF2w4E2PTXAiBJB7LTZk5fsfFq9RuXbTEWEFEoAOGsbaMiSsp5QMZ5XNJZtuMA4eKfBUCS9mWk/jRz78pr1X1qnqVYQESJsR0AR9G5URnVq/ic4gKfS85NkkrZjgSEk9NLnKqkuIS//VqhuIQqp8YXr7O5cOWvtHy5sRQNiBixtgPgL55qUFQBp61MXjc5Km47DhBpShQqcn29y/O+mX2u/qPuCtjOA4Qzn+0AkPRQ7Th1qd9efm2UMW9Khm/+QAGVKVyiVf2SDw+znQMIdxQA27o0bKJihX6TcfqKS/1AUJQuUvy/Dfs9OtB2DiCcsQfAlg6NSqhBhb6S3pF0iu04QCQ52h6AfyoUl1C7TJPziqWM+2ViiGIBEYUCYEOX+jfKCUyQnCvFkxjACctPAZCkpPjEemWvvTBu89j5P4UgFhBRKACh1LFeIdWv3EtSb3H2PlBg+S0AkpQYF3f5KddcmJsydsF0l2MBEYUCECqdL68pRz/JUXPxUz9wUk6kADhynMS4+ManNr3o4Oax8+e4HA2IGGwCDIVODVpKZpakGrajAF7kyHGKJyb1atDv4UdsZwHCBQXAXY46139Fjr7j0T7ALsdxfCWTive7csBjd9vOAoQDbgG4pfu58apT/WPJaScu+QNBdSK3AP7KkXxxTlyLsk1rrU4ZN3+ZC9GAiMEVADc81aCo0kpMkNF/bUcB8Hc+nxNbslDhYVcNfLy57SyATRSAYOvQqIT8miCpke0oAI7OcZyEwrGFvr6878NX284C2EIBCKZul5ZWTO4USfVsRwHw7xwpqXiRYqOuGtCuge0sgA0UgGB5vG4x5cSNk1TLdhQA+ePIKZoUVyj5yv5tL7GdBQg1CkAwdGlaWHGxYyXxIQJEGJ/jFC+aWHhsk4Edz7edBQglCsDJ6i6fTPpncsRlRCBCOXLKJMTE/nhFn7bn2M4ChAoF4GSlNuwjOa1sxwBwcnyOc0qxYoUnN/+o65m2swChQAE4GZ0btpVj2tuOASA4HDkVnIB/8g3Dnq1oOwvgNgpAQXWpX08yfWzHABBcjuNUcfy5P18/9MlytrMAbqIAFMSTjcrJON9KircdBYALjKr6/M7k1h92L2U7CuAWCsCJc2Ryh0gqbzsIAPc4js7NcjKmthravYTtLIAbKAAnqkuDJ2R0ve0YAELi/LzAoYl3f/J2YdtBgGCjAJyIzpfXlNEbtmMACB1HziUH8/Ymd58yNNF2FiCYKAD51V0+mcAgSXwIAB5jTODKBeuXJz80cGCc7SxAsFAA8iu9fjsO+wG8y5HTeGf8hlHdp3SPtZ0FCAYKQH78vuv/VdsxANgVCASaL9qQ/Zkxhs9ORDy+iPMjkPuGpKK2YwCwz2/8t9308TOfGmMc21mAk0EBOJ7ODWtLusd2DADhwx/w39n6k+feowQgklEAjsu8If6eAPxDdl5u29bDnuttOwdQUHxj+zedGzaUdI3tGADCU3Yg94lbP3n+Fds5gIKgAPwbJ8DGPwDHZuRk5mU/e9dnL3WzHQU4URSAY+lc/xIZ50rbMQCEOSMnLefQq7d9+nwn21GAE0EBOBbHedp2BACRwRj5MnOze/x3+EsP284C5BcF4Gg6NjxTRq1sxwAQOYxRTFpW5rsPjHiTp4YQESgAR+MzbSTF2I4BILIETCB+b9qBQfcOf/lW21mA46EA/FP3RrGS7rUdA0BkCphAwsHszKFtvn6rpe0swL+hAPxTWm5LSeVtxwAQufwBf9LuQwc+a/Pt201sZwGOhQJwpLtsBwAQ+fwBf9E9qfu+eWTE241sZwGOhgLwV081KCqpme0YAKJDXsBffOehfd88Pqr3pbazAP9EAfirgNNCUiHbMQBEjzy/v/TWg3tGP5ncp5btLMBfUQD+yhg27QAIulx/3qnrdu9Kfnr0oHNtZwEOowAc1rp1jCQ27ABwRa7fX2H9/pQxr0wcWs12FkCiAPyp0tZLJZW2HQNA9MrKy668eOf65DdnfHKG7SwABeCwgBrbjgAg+mXlZFdbuH7N+H4zvq9gOwu8jQJwmOM0sB0BgDdk5mafM2PDwuQBM0eWtZ0F3kUB+J0jqa7tEAC8IyMns9bP6xeNHTZ3MrceYQUFQJKealBdUinbMQB4y6GcrNoT180cNXbNnGK2s8B7KACSlCeezwVgRWrmocuHz5s4ctmuZUVsZ4G3UAAkyeecbzsCAO86mJV+9RuTvx2RkpLCQWQIGQqAJJkAh3MAsOpgZvp1z8/85FNjTILtLPAGCoAkyTnTdgIA2Hvo4H8eHPHmYGNMvO0siH4UAEmSU8l2AgCQpF1p++9+9Ju3+xtj4mxnQXSjAHSsV0oyxW3HAIDDtqbuebDtyF69jDGxtrMgelEAfLHlbEcAgH/acnBXu8dH9X6DEgC3UAB8AQ7hABB+jJxNB3Z2bjeqz0vGGD6rEXR8URmnjO0IAHBURk7KgR1du4zu/wwlAMHGF1RARW1HAIBjMUa+NXtSXnwmeUB7Y4xjOw+iBwXAF+CZWwBhzcjELtu56e1nkwe3owQgWCgAxsejNgDCnpGJXbZr/dsvTBx8PyUAwUABkCgAACJCwAQSlmzd0O/Nnz673XYWRD4KgEOTBhA5/MafNHfzssGvThza2nYWRDYKAABEGH8gUHjh1jWDe08d3sJ2FkQuCgAARKDcQF7xWZuWf9R32oirbWdBZKIAAECEys7LKTN9w6Iv+k0f0ch2FkQeCgAARLDsvNxTpq9f/PnQOWMvs50FkYUCAAARLjMvu8KENXO+/GLR2ItsZ0HkoAAAQBQ4lJNVafTSed98vfjn821nQWSgAABAlEjPzjjzu8VTvk5eNLe67SwIfxQAAIgiadkZNb5cMeHruTtWVrGdBeGNAgAAUeZARvqF700Z8c28rWtPt50F4YsCAABR6EBG2sUDpn/15crdmyvYzoLwRAEAgCi159DB+j2nfP7pjrQdZW1nQfihAABAFNuZtr/xC+M/+TQ1NbW07SwILxQAAIhy21P3NH1q4sAhxpgStrMgfFAAAMADth7cfWOH79/tb4wpbjsLwgMFAAA8Yv3erXd2GfNeH2NMUdtZYB8FAAA8ZPWulPufHPN+L2NMEdtZYBcFAAA8ZtXuTQ8+O27wq8aYJNtZYA8FAAC8xshZsmNt+5cmfvQ8JcC7KAAA4EVGzsKtq556edLHXY0xibbjIPQoAADgUcbI90vKym49pnze0RiTYDsPQosCAAAeZmRiZ21c2v2d6V89aoyJt50HoRNrOwAAwK6ACcRPXbvozdiYOL8x5gPHcXJtZ4L7KAAAAAVMIOHHVQvejPfFZBpjPnYcJ892JriLAgAAkCT5jT9p/Kp5vQrFJmYbY4Y7juO3nQnuoQAAAP6Q588r9t3Saf18PifHGDPCcZyA7UxwBwUAAPA3uYG84t8tnf5eofiEHGPM95SA6EQBAAAcITsvp8yXC398Pyk+MdsYM85xHGM7E4KLAgAAOKqsvOxyQ+cmD4r1xf3PGDOREhBdKAAAgGPKzM2uOGTu6A8S5NxnjJlGCYgeFAAAwL86lJ1ZecDc0R/FxyfcK2mG7TwIDk4CBAAcV3p2xpn9ZnwzeFHKqkttZ0FwUAAAAPmSmnWoRu8ZXw9as3vbxbaz4ORRAAAA+bY/I+3C1378aPDafTvOs50FJ4cCAAA4IXsPpV78xqShg/Zkp9awnQUFRwEAAJywXen76z03ZmD/g1kHq9nOgoKhAAAACmTrgd2NuyYPej8zM7OK7Sw4cRQAAECBbTmwu8nT4z/oa4w5w3YWnBgKAADgpGzYt73Fk2P6v2WMqWg7C/KPAgAAOGmrdm2+/Zlxg14zxlSwnQX5QwEAAATF0u3r7n1u/OCXjTGn2s6C46MAAACCZvH2tQ+8MmnYc8aYsraz4N9RAAAAwWPkzN+y/LEeUz7vYowpbTsOjo2XAQEAgsvImblxcefeP8fkGWN6Oo6zz3YkHIkCAAAIOmPk+3ndoifjfDFZxph3Hcc5YDsT/o4CAABwhZGJ/XHtwmcT4xKzjTEfOI5z0HYm/IkCAABwTcAE4pNXzHopJsaXZ4wZ5DhOmu1M+B0FAADgqoAJJPywdObLSXGJWcaYYY7jpNvOBAoAACAE/Maf9PVvP71eKC4+2xgz3HGcDNuZvI4CAAAIiTx/XrFP5o/vGePE+I0xXzqOk2k7k5dRAAAAIZMbyCs+bMG4HolxCdnGmJGO42TZzuRVFAAAQEhl5+WUGTT7+15JCXE5xpgfHMfJtp3JiygAAICQy8rLLtf352/eiW0Ul2eMGes4To7tTF7DUcAAACsyc7Mr9pn2VZ/ftq5paoyJs53HaygAAABrDmVnVu7x8/Bea/elXGWM4ap0CFEAAABWpWVlVO8+fmjfzQd3XmmMibGdxysoAAAA61KzDtV4ftzgXtvTDzQwxvC9KQT4SwYAhIX9GWkXPpf8QY/9mWn1KAHu4y8YABA2dh/aX/epMe/3SM3NvMQY49jOE80oAACAsLIzbV/9p7/v/3pGbkYdSoB7KAAAgLCzNXV3465jB70o6UJKgDsoAACAsLRx7/bmHb7v+5KkC2xniUYUAABA2Fq/d1vLp5Pff9oYc67tLNGGAgAACGsrdm6647nxHz5JCQguCgAAIOwt3rbm3hcmDO5kjKluO0u0oAAAACLCom1r73/9x2HtjTFn2c4SDSgAAIDIYOTM3bz80d7Tvn7YGFPVdpxIx4sXAAARwxj5fl73S6cYn89vjBngOM4m25kiFQUAABBRjJHvp9ULOifGxGUbY4Y4jrPZdqZIRAEAAEQcIxM7buWcromxCVnGmE8cx9lqO1OkoQAAACJSwATiRy37+YXYmBi/MeYzx3G22c4USSgAAICIFQgEEr/5bcqLibFx2caYLx3H2Wk7U6SgAAAAIprf+JOG/zrppaS4xBxjzLeO4+yynSkSUAAAABEv159X/MN5Y16PiXX8/18C9trOFO4oAACAqJDrzy0xePYPryXFJOYaY753HGef7UzhjAIAAIga2Xm5Zd6d+e1rCfFxOcaYZMdxDtjOFK44CRAAEFWycrPL95zy5Vu/pqxpZowpbjtPuKIAAACiTmZudsUe04a/tmr35muMMUVt5wlHFAAAQFQ6lJ1R5eVJQ19LObCzsTGmiO084YYCAACIWmlZGdWfSR74xta0PY2MMUm284QTCgAAIKodzD50zrNjB76yO2N/I2NMIdt5wgUFAAAQ9fYdSq3V9YeBLxw8dOhyY0yi7TzhgAIAAPCE3Yf21+0ytv8LWXl5DYwxCbbz2MY5AAAizrzNy+U4ju0YiEwNPls4/t6u1175s+0gtlEAAEScvIDfdgREsFy/7u6ePHGKpKG2s9jELQAAgPcYp4TtCLZRAAAA8CAKAAAAHkQBAADAgygAAAB4EAUAAAAPogAAAOBBFAAAADyIAgAAgAdRAAAA8CAKAAAAHkQBAADAgygAAAB4EAUAAAAPogAAAOBBFAAAADyIAgAAgAdRAAAA8CAKAAAAHkQBAADAgygAAAB4EAUAAAAPogAAAOBBFAAAADyIAgAAgAdRAAAA8CAKAAAAHkQBAADAgygAAAB4EAUAAAAPogAAAOBBFAAAADyIAgAAgAdRAAAA8CAKAAAAHkQBAADAgygAAAB4EAUAAAAPogAAAOBBFAAAADyIAgAAgAdRAAAA8CAKAAAAHkQBAADAgygAAAB4EAUAAAAPogAAAOBBFAAAADyIAgAAgAdRAAAA8CAKAAAAHkQBAADAgygAAAB4EAUAAAAPogAAAOBBFAAAADyIAgAAgAdRAAAA8CAKAAAAHkQBAADAgygAAAB4EAUAAAAPogAAAOBBFAAAADyIAgAAgAdRAAAA8CAKAAAAHkQBAADAgygAAAB4EAUAAAAPogAAAOBBFAAAADyIAgAAgAdRAAAA8CAKAAAAHkQBAADAgygAAAB4EAUAAAAPogAAAOBBFAAAADyIAgAAgAdRAAAA8CAKAAAAHkQBAADAgygAAAB4EAUAAAAPogAAAOBBFAAAADyIAgAAgAdRAAAA8CAKAAAAHkQBAADAgygAAAB4EAUAAAAPogAAAOBBFAAAADyIAgAAgAdRAAAA8CAKAAAAHkQBAADAgygAAAB4EAUAAAAPogAAAOBBFAAAADyIAgAAgAdRAAAA8CAKAAAAHkQBAADAgygAAAB4EAUAAAAPogAAAOBBFAAAADyIAgAAgAdRAAAA8CAKAAAAHkQBAADAgygAAAB4EAUAAAAPogAAAOBBFAAAADyIAgAAgAdRAAAA8CAKAAAAHkQBAADAgygAAAB4EAUAAAAPirUdAAAiQawvRqcUKaFCcQlKiI1XUlyCjDE6kJUuSdqXkaoDmemWUwL5RwFAgRWKS1BibLyrMzJzs5WVl+PqjMOKJRZWjOPuRbHU7EPyBwL5/v2JsfEqFJfgWp70nEzl+vNcWz8SFU8soktOr6FaFavpwvJn6eyyZ6hi8VNUrmgp+Y7z9ZGVl6MdqXu1+cBOrdy1WSt2btTSHes1d/NypWVnhOi/AMgfCgAKrPZpZ2ta2/5yHMe1GQtSVqruuw8pYPL/TbMgLihfVQs7DlWMz70CsGr3Zl3Q8175lf//lsca3KyeLdq5lqnZh501fuVc19aPFOeVO1M3nX+Frj27ruqeUVOxvpgCrZMYG6/KpcqrcqnyuuLMWn/8uj8Q0KJta/Tzul81ZsUsTVu/6ISKIOAGCgAKbMaGxfr0lwm6p851rs2oc3oNPXRZS30w+zvXZjiOo343dXT1m78ktR/1jnL8ua7OQP6VKFRE99ZppnvrNNNFFau7OivG51Pt085W7dPOVqcrb9fejIMavWyGPpw7RrM2LnF1NnAsFACclKeS31fLcxuqRKEirs14rdlD+mbxFO05dNCV9e+o1eRvP625YeSSnzVx9TxXZyB/yhYpqQ5X3KrH6t+sYomFrWQonVRc91/SXPdf0lzLdmxQ/1kjNXRecshudwESTwHgJO1M26cXJnzo6oxSScX0xvWPuLJ2kYRC6nFDW1fWPiwjN0udRvdzdQaOLyE2Tt0a3631z4xQt8Z3W/vm/0/nlqui92/urHXPfK0Ol9/q+r4a4DAKAE7a+7NGatG2Na7OeODS5rr0jJpBX/e5JvepYvFTgr7uX73502fatH+HqzPw766uVltLunyq169/WIXjE23HOaoKxcqoz43ttfypz3XTeVfYjgMPoADgpPkDAT02sreMMa7N8Dk+9b+p03F3YZ+I6qecro5X3Bq09Y5m3d6tenvKcFdn4NhifTF64/pHNPGhPqpW5jTbcfKlSqnyGnnf6xr3YC+VL1badhxEMQoAgmLWxiX6eMFYV2cc3hAYLH1v7KD4mLigrXc0Hb9/l/u6lpQvVlrTHuuvro3/G9TiGCrX1air3zoN0w0169uOgigVef9XIGx1Tf5A+zPTXJ3xWrOHVKZw8ZNe58ZzL9d1NeoGIdGxJa+YpR+Wz3R1Bo6uVoVqmvfEYNWrdJ7tKCfllCIlNPr+t/TStf9z9XFbeBMFAEGzK32/nh8/2NUZwdgQmBgbrz43tg9SoqPLystRh+/fdXUGjq5JtTqa/tj7Oq14WdtRgsJxHL1wzf36/M4XlRDr7hUreAsFAEE1YNZ3mrd5uaszHri0uS6rdG6B//zTjf+rKqXKBzHRkXpO/UJr92xxdQaOVK/SeRp13xsqklDIdpSgu+OiJhr9wFs8JYCgoQAgqAImoCe+7+vqyX0+x6d+rToW6L5upZLl9NRVd7qQ6k+bD+zUGz9+6uoMHOmC8lU1vk2vqPzmf1jT6pfq63tecX3vCryBAoCgm7NpmYbOd39DYJvLWpzwn+vd8nElxbn7GFin0f2UkZvl6gz8XZGEQvrq7pfD5tl+N7Wo2UCDWj9lOwaiAAUArug29gPty0h1dcbrzR4+oQ2BTarV0c3nX+liImnS6vn6dvFUV2fgSB+27qoaZSvZjhEy99Zpprb1b7IdAxGOAgBX7E4/oGfHDXJ1xolsCIyLidW7rTq4mifHn6v2373j6gwcqVmNy3Rbrattxwi5Pje21wXlq9qOgQhGAYBrBs0ZHTYbAp+4vLXOObWyq1nemfa1Vu7a5OoM/F18TJzrT3SEq/iYOA274znFxfBKFxQMBQCuCZiAHv/uHesbAssXK63nm9znWgZJ2pa6R69OHubqDBzproub6uxTzrAdw5paFarpsfo3246BCEUBgKvmbV6uIfPGuDrjeBsC32re1vXNYV1+eE9p2RmuzsCRnri8te0I1j3b5F5PbH5E8FEA4LpuyQO1N8OdV/kedqwNgQ0qn6//XtzU1dnT1i/Sl4t+dHUGjlSv0nm6sMJZtmNYV6ZwcYoQCoQCANftzTioZ8YOdHXG0TYExvh86ndTR1ePUM0L+NVuVB9XX4SEo2t5bsOQz0zLztDMjUv07eKp+mhesr5dPFXT1i/SGsuHPj1Sr5VifTFWMyDysHsEIfHh3DF6sG4LXXL6Oa7NeODS5ho894c/Nh62qdtSF1Ws7to86fdXIS/Zvs7VGTi65ufUC8mc/Zlp+mhesoYvnKhF29Yec09L+WKldU31S3R7rSa67uy6IT27v0KxMmpRs4FGLZ0WspmIfFwBQEgEzO+vDHZ7Q+DhVwaXTiquV5u1cW2WJO1M26cXJwxxdQaOrlhiYZ1X7kzX5/SfOVJVX79VXX54Twu3rv7Xr9/tqXv1yYLxuv7DLrqoz/36bul01/P91V0u3+pC9KEAIGTmp6zQ4Dk/uDrj8CuDX23WRqWTTv6tgf+m69gPdCAz3dUZOLqap1Z2/Sfs58YPVrtRvQv0hsvftq3VTR93031fvhayzaHXVL+ERwJxQigACKlnxg3UnkPubgh8s/kjalO3paszZm9aqmELxrk6A8dW0+UzHRZuXR2U9zkMWzBO9fo97PrXvCQlxMZ76jREnDwKAEJqX0aquo39wNUZxROLKMbn3pe2PxDQ42z8s6pM4RKurv/x/LFBu121bMcGXf9hF9euBKQc2KXnxg/WGa/ezH4UnBAKAELuo3nJmuvyCYFuGjx3tH7Zssp2DE8rmpDk6vq/bVsb1PXmp6zQ/V+9HtQ1p6xdqFs+eU5nvt5ar00epl3p+4O6PqIfBQAh9/uGwF7yB9zbEOiWvRkH9dy4wbZjeF5SXIKr67vxNsdvF0/V5wsnntQa6dmZGjBrlM7rebcaf9Be3y6eqryAP0gJ4TUUAFjxy5ZVGjTne9sxTtiz4wa5fqgRji8zN9vV9d06Xrj9d+8UaOPoqt2b1f67d1TxlVZqO7KXlu3Y4EI6eA0FANY8O26QdqcfsB0j3xZuXa0P57r7FAPyJz0n09X1H2vgzvn6+zJS1X/mt/n6vQET0OQ1C9Tyo6d1To+71G/GN0rNOuRKLngTBQDW7M9MU9exA2zHyBdjTMTetohGbj9aV6/SeerW+G5X1u47Y8S/3mLYc+ig3pryuaq+cZuuGdhBPyyfyYZTuIICAKuGzh+r2ZuW2o5xXB8vGKs5m5bZjoH/l3Jgl+szXmv2kHrc0FbxMXFBXXd3+gGNWT7riF9fkLJS93/1uk5/5SZ1TR6gjfu2B3Uu8E8UAFj1+0/WvcP6J+sDmenqmuzuo4s4MSt2bnR9huM4erLRnfq101Ddf0lzJcQGrwh89/9H9mbn5eqzXybosncf0iV9H9TH88cqKy8naHOAf0MBgHW/bl2tAbNH2Y5xTC9OGMIjVmFmw77tys7LDcmsmqdW1ke3ddP2F0drcOundU31S5QYG39Sa45dMeePZ/fv/uKViH4sFpGLcyMRFp4fP1i3XthYZYuUtB3lbxZvX6f3Z420HQP/kBfwa+HWVapX6byQzSxZqKgerNtCD9ZtoczcbM3cuERzNy3TL1tWacGWlSd0W+JgVrpemzzMxbTA8VEAEBYOZKbr6eQBGnrbM7aj/MEYo8dH9eE56zA1YdW8kBaAvyoUl6Am1eqoSbU6f/za9tS9mp+yQvNSVmj+5hWau3m5DmbxrgiELwoAwsawBeN0X53rdWXVWrajSJKG/zpJ09Yvsh0DxzB+5Rx1b/qA7Rh/KF+stFqe21Atz20o6fcjoxdtW6Mxy2fqh+UztXDranbzI6ywBwBhwxijJ75/Jyx+4k7LztBTY963HQP/Yn7KSq3Zs8V2jGOK8flU+7Sz9WLTB7SgwxCt7/a1+t/cWVdWreX6mwyB/KAAIKz8tm1tWNxzf3nSUG1L3WM7Bv5FwAQ0YFb4bh79p8qlyqtt/Zs09dH3tOrpL/T0VXeF3Z4XeAsFAGHnhfFDtDNtn7X5K3ZuVN/pI6zNR/4NnZ/s+qFAbqhW5jS92fxRpTw/Ul/d/bKaVKvDVQGEHAUAYedgVrqeSrZ3+b3TD/2U68+zNh/5dyAzXX2mfWU7RoHFx8Tp1gsba9LD72hx52G6p851ivXF2I4Fj6AAICx9+ssETd/wW8jnfrN4isavnBvyuSi4Xj9/qT2HIv8FTeeVO1PDbn9OK58eI0sZ4wAAF5tJREFUrjsuasIVAbiOAoCwZIxRu5G9Q7ohMCM3S51HvxeyeQiO1KxDembsQNsxgqZq6Yoafld3LegwJGyeiEF0ogAgbC3evk7v5fPNacHw+o+favOBnSGbh+AZPHe0xq6YbTtGUF1csbqmPNJPA295SkUSCtmOgyhEAUBYe3HCEG1P3ev6nLV7tqjn1OGuz4F72ox4S1sP7rYdI6gcx9FDl7XUgg5DVKVUedtxEGUoAAhrmbnZITlN7ef1i0J2tjzcsS11j5p92EUHMqPv9L2zTzlD0x7rrxplK9mOgihCAUBYa9/wlpB86N1bp5nOK3em63PgriXb16nZh521w+JjpG45rXhZ/dz2PZ1V5jTbURAlKAAIW+WLldYL19wfklmxvhj1u6ljSGbBXXM2LVOdd/4XlW/YK1ukpEbe+5oKxyfajoIoQAFA2OrRvK2KJRYO2bxGVS/S7bWahGwe3LP14G5d0f8x9Zz6RdSdv39++ar68NautmMgClAAEJYaVrlAd13cNORz327Rlh3XUSLHn6snx/RX00EdtW7vVttxgur2Wk0oqzhpFACEnRifT+/d1MnKQSinFS+rZ6++N+Rz4Z7Jaxbo/J736OVJQ5WRm2U7TtD0bvm4iicWsR0DEYwCgLDzSL1WurDCWdbmd7ziNlVjo1VUyczN1osThqjq67fq3RkjlJWXYzvSSStfrLReue5B2zEQwSgACCunFCmhV65rYzVDQmyc+rbqYDUD3LEjbZ+e+K6vznj1Zj07bpC2HNxlO9JJebjejTq9RFnbMRChKAAIK683e1glCxW1HUPNalymluc2tB0DLtmdfkCv//iJKr16i64Z2EEjfpsifyBgO9YJi4+JU8crbrMdAxGKAoCwcekZNfXApc1tx/hDn5btlRgbbzsGXBQwAU1es0C3fvq8qr91u96a8rl2pe+3HeuEtKnbUqWTituOgQhEAUBY8Dk+9WvVQT4nfL4kzyxdQU9edaftGAiR9Xu3qWvyAFV4+UY1GtBOfaZ9pQ37ttuOdVxFEgrp7trX2o6BCBQ+n7bwtAcuba5Lz6hpO8YRujb+ryqVLGc7BkLIHwjo53WL1Gl0P535emvV6n2fnh8/WNPWL1KOPzyPi77xvMttR0AEirUdAChZqKheb/aw7RhHlRSXqF4t2umWT56zHQWW/LZtrX7btlavTh6mwvGJuvzMC3X1WXV0XY26YXN8dMMqF6hUUjHty0i1HQURhCsAsO6V69rolCIlbMc4pv9c0EhNqtWxHQNh4FBOlsavnKsnx/TX+T3v0dlv3aFuYz/QgpSVVnPF+mJ03dl1rWZA5KEAwKoLK5ylR+q1sh3juN5t1UFxMVwww9+t3p2iN3/6TJf0fVBnvXGbev38pfZnplnJUrdS+N1CQ3ijAMAax3H03k2dFOML/y/Dc06trPYNb7EdA0FwQfmq6tb4bs1oN0DXVL8kaOuu27tVXX54T6e9fJMeGtFDa/dsCdra+VHz1CohnYfIx480sOaui5uqYZULbMfItxeuuV/Df52k7al7bUfBCUiKS1Tjaher+Tn11fyc+n87OOfSM2pq0ur5QZ2XkZulwXNHa9iCcepwxa166dr/heRx0pqnVnZ9BqILBQBWFEssrB7N29qOcUKKJRbWW83b6p4vXrEdBcdRuVR5XV/jMt1Qs4EaVb1IheISjvr76pxWw7UMOf5c9ZjyucYsn6nk/72tyqXKuzZLkioUK6MShYroQGa6q3MQPSgAsOKFa+5X+WKlbcc4Yf+9uKkGzv5OMzcusR0FfxHri1H9yuer+Tn11Pyc+jq3XP4uhzeofL7iYmKV689zLdvynRt19cAnNPvxgSpbpKRrcyTplMIlKADINwoAQi6S76c7jqP3bu6kOu/8LyKPjo0mZQoX13U1LtMN59RX07MvLdAR0qcUKaHm59TTd0unu5DwT+v3blO7Ub319d3uXj0qmpDk6vqILhQAhFyflo9H9I76WhWq6aHLbtSAWaNsR/Gcc8tV0Q3n1FeT6pfoyjNrBeXr6IFLb3C9AEjSiN+maOW1m1SjbCXXZhShAOAERO6nMCLSLRdcpWtdfl55ytqFqlKqvKv3XF+9ro1G/PaT9hw66NoM/F2lkuW0tMunQV+3WY3LVKNsJa3ctSnoa//TuJVzXC0AxRIpAMi/8H/+ClEjKS5RvVq2c3VGjj9XbUf2UqfR/VydUyqpmF4L09MLo9W21D2u3HaJ9cWo300dg77u0aQccPf1w8a4ujyiDAUAIfPM1XfrjBKnujrjnWlfa+WuTRq1dJrGrZzj6qwH694Qlu8viFa5/jxtT9vjytpNqtXRrRc2dmXtv3L7VdepWYdcXR/RhQKAkDirzGnq0sjdN+ttS92jVycP++OfO3zf19WXt/gcn/re+IQcx3FtBv5uxU73LtO//5/Orl6el6RzTnV3/fScTFfXR3ShACAk3rmxvRJi41yd8eQP/ZWWnfHHP6/enaI+0752deZllc7VvXWauToDf3Lz8cvSScU17sGeKle0lCvrlyhURM3Pqe/K2oftSOOQKuQfBQCua1GzgesffNPWL9IXiyYf8euvTv5YWw66e9/1zesfUfHEIq7OwO9muXz+QuVS5TWuTa+/nRYYLC9cc/8xDyQKhgOZ6ZxSiRNCAYCrEmPj1efG9q7OyAv41W5UH5mj7IBKz85Ulx/6uzr/1KKl1P3aB1ydgd/N3LBE6dnuXuauVaGaFnYcqmY1Lgvamq0vvEodLr81aOsdzardm11dH9GHAgBXPXnVnapauqKrM96fNVJLtq875r//atGPmrJ2oasZ2jX4T75Pn0PBZeRm6ftl7j+zX6ZwcSX/7231bfXESb2q2uf49MTlrfXFXS+5vldkfsoKV9dH9OEcALimUsly6tr4v67O2Jm2Ty9OGHLc3/f4d320qNPHivXFuJIj1hejfq06qvEH7l7tCLZmNS5z/cmMk7Fmz5YjytsXv07WXRc3dX224zhq37C1HrjkBr07Y4T6zxypban5ewohPiZON9SsrxebPqALyld1OenvJq6aF5I5iB4UALimV4t2SopLdHVG17Ef5Ovs82U7NqjfjG/U8YrbXMty1VkX69YLG+vr335ybUawtW/Y2naEf/XZLxOOKADjV83R2j1bdFaZ00KSoUhCIT1z9T3q1vhuLdy6WmNXzNbCrau0K/2AdqTtVZ7fr2KJhVWmcHFdUP4s1Tm9hm6oWd/1R/7+Ksefqynr3L3KhehDAYArmlSro/9c0MjVGfNTVuiTBePz/ftfnDBEt9dq4upLiHq1bKexK2e7fp/ay/yBgN6eOlwDb3kqpHMdx1Ht085W7dPODunc/Bi9bAZfczhh7AFA0MXHxLl+spo/ENCj3/ZUwOT/ZLi07Ax1HTvAxVTSacXLqlvju12dAWnYgnGun6oXSQbNGW07AiIQBQBB98TlrV0/UOXDuT/oly2rTvjPffrLBNdf5dv5yjtCdnnaq7LzctVx9Lu2Y4SF1btTNHnNAtsxEIEoAAiqckVL6bkm97o6Y19Gqp4bP6hAf9YYo8dH9XH1Vb4JsXHqf3Mn19bH775dPFVjls+yHcO6Z8YNPOojsMDxUAAQVL1aPq5iiYVdnfHMuIEn9Ra+X7eu1sA53wcx0ZGaVr9ULWo2cHUGpMdG9tLeDO++kXHmxiUaueRn2zEQoSgACJorzqylO2o1cXXGL1tWafCcH056nefHD3b9Vb59bmyvxNh4V2d43eYDO3XPF6+e0F6QaJGdl6t2I3vz0z8KjAKAoDj8SlU3DzsxxqjdqN5B+bDfl5GqZ8YODEKqY6tauqK6NLrD1RmQxq6YrVcmfWw7Rsh1TR6gRdvW2I6BCEYBQFA8Wv8m1w88+XjBWM3ZtCxo6w2ZN8b109O6heAVyJBemjRUA2e7e1snnIxeNkN9Z4ywHQMRjgKAk1a2SEm9fO2Drs44kJmurskfBHXNgAmo3ag+rl4+TopLVK+W7VxbH78zxqjtyF764tcjXwgVbWZuXKI7PuvOpX+cNAoATtob1z+iEoXcfRveixOGaFf6/qCvO2/zcg2dPzbo6/7VLRdcpaur1XZ1Bn4vdPd88YoGz43eZ+J/27ZWLYY8pYzcLNtREAUoADgpdU6vofsuaebqjGU7NmjA7FGurf/0mAGu7yTv16qj4mI4eNNteQG/HhrRQx2+7xt1PyFPWbtQjQa00/7MNNtRECUoACgwn+PTgJu7yOe492V0+NJurj/PtRl7Mw7m64VCJ+OcUyvr8Ya3uDoDf+o7fYRu/+xFpWYdsh0lKD79ZYKuG9w5X++9APKLAoACe7DuDapzeg1XZwz/dZKmrV/k6gxJ+mD2d67vqO7e9AFVKFbG1Rn409e//aQLe9+neZuX245SYBm5WerwfV/d88UryvHn2o6DKEMBQIGUSiqm15o97OqMtOwMPTXmfVdnHOYPBPT4qD6uXjYumpCkN65/xLX1caSN+7bryvfb6fUfP3H1KpIbZmxYrAt63qu+09ntD3dQAFAgr1zXRmUKF3d3xqSP8/3+9WCYsWGxPls40dUZd9e+VvUrn+/qDPxdVl6Onh03SBf3eUCzNy21Hee4Ug7s0p2fd9cV7z+mdXu32o6DKEYBwAm7qGJ1PXzZja7OWLFzo5WffJ5Oft/V+8aO4+i9mzoqxsf/eqG2dMd6NXjvUd3yyXNatmOD7ThH2J66V08nD1CNt+7UF79OjrpNjAg/fArhhDiOo34h+AbW/rt3rNzz3J66Vy9NGurqjIsqVlebui1dnYGjM8bo28VTdUGve3XX5y9pbhjsD/h162r97+s3VPm1W9Rjyuc84oeQ4bkknJC7a1+rBi5fwv528VSrrzftN+Mb/e/SG1Tz1MquzXi1WRuN+G2Kp19kY1PABDT810ka/uskXVyxuh6u10o3n3+l67e1Dtuwb7u+XDRZny+cGJZXI+ANFADkW6wvRrde2Fi/bFnl2oyACajT6H6urZ8fuf48tRvVW2/f8Jirc+68+Br1m/HNv/6enen7Xf37Dncb9+9wfcbCrav18Dc91HZkTzWofIFa1GygK6vWUq0K1YJydoMxRhv2bdeCLSv145oF+mntQq3dsyUIyYGT496bWyJFlwYdZNTHdgwA4SUxNl4XVayu88ufqcqlyqtyyfKqVPJUJcTGq2ShooqPjZU/EJA/ENDBrHTlBfzalb5f21L3aNvBPdpycLeW79yopTvWR815BFGmk3rN9PRnP1cAAOAosvJyNHvT0oh4cgAoCDYBAgDgQRQAAAA8iAIAAIAHUQAAAPAgCgAAAB5EAQAAwIMoAAAAeBAFAAAAD6IAAADgQRQAAAA8iAIAAIAHUQAAAPAgCgAAAB5EAQAAwIMoAAAAeBAFAAAAD6IAAADgQRQAAAA8iAIAAIAHUQAAAPAgCgAAAB5EAQAAwIMoAAAAeBAFAAAAD6IAAADgQRQAAAA8iAIAAIAHUQAAAPAgCgAAAB5EAQAAwIMoAAAAeBAFAAAAD6IAAADgQRQAAAA8iAIAAIAHUQAAAPAgCgAAAB5EAQAAwIMoAAAAeBAFAAAAD6IAAADgQRQAAAA8iAIAAIAHUQAAAPAgCgAAAB5EAQAAwIMoAAAAeBAFAAAAD6IAAADgQRQAAAA8iAIAAIAHUQAAAPAgCgAAAB5EAQAAwIMoAAAAeBAFAAAAD6IAAADgQRQAAAA8iAIAAIAHUQAAAPAgCgAAAB5EAQAAwIMoAAAAeBAFAAAAD6IAAADgQRQAAAA8iAIAAIAHUQAAAPAgCgAAAB5EAQAAwIMoADIB2wkAAKHmeP6znwIQUK7tCACAUDPZthPYRgHwOTm2IwAAQsyhAFAAjLJsRwAAhJjhhz8KgGMO2I4AAAi5fbYD2EYBCDh7bUcAAIRYIOD5z34KgAnssR0BABBqMZ7/7KcAZCfssB0BABBiMUk7bUewjQLw/tR0SZ5vggDgIbvUc+Ih2yFsowBIkqONtiMAAELF2Wg7QTigAEiS0TrbEQAAIbPedoBwQAGQJDlLbScAAISKWWI7QTigAEiSMYttRwAAhIjjUABEAfhdwE8BAACvyMujAEhybAcIG50bbJNU3nYMAICrdqrXzHK2Q4QDrgD8abbtAAAAlzmaYTtCuKAAHGbMTNsRAAAuC5hZtiOECwrAYTH6yXYEAIDbfD/aThAu2APwJ0edG2yRVMF2EACAK3ao18wKkoztIOGAKwB/MpIzwXYIAIBbnHHim/8fKAB/44y2nQAA4BJHP9iOEE4oAH+VU2Sc5By0HQMAEHRp8vvH2w4RTigAf9VvXLYU4CoAAEQd8536zM60nSKcUACOYD63nQAAEGzOF7YThBsKwD8VnT1J4vXAABA9nC3aXGGi7RThhgLwT90VkDTUdgwAQJA4GqIRI/y2Y4QbCsDRxOhDSTm2YwAATlqeAr4htkOEIwrA0fSYuU0S94sAIPJ9pd7TUmyHCEcUgGNxTE9xYAQARDafr7ftCOGKAnAsPWctlZyxtmMAAArKmaC3py+0nSJcUQD+jc95QVwFAIDIZEx32xHCGQXg37w9faFkvrcdAwBwoswY9Z45x3aKcEYBOK6YZyXl2U4BAMg3v5yYZ22HCHcUgOPpNX25pAG2YwAA8m2wek5fbDtEuKMA5Ecg0F3SXtsxAADHdUA5vhdsh4gEFID86DN7n4zzlO0YAIDj6qZ+03fbDhEJKAD51XvGUEmTbMcAABzTHBWdOch2iEhBAcg/I595VNIh20EAAEfIkt//wP+/zwX5EGM7QESZlbJfDU7fLTktbEcBAPyV6aQ+s5Ntp4gkFIATNStloeqfUVPSubajAAAkyZmgXjOfsJ0i0nALoCACgUclbbQdAwCgrcrLvVec2nrCKAAF8ftTAa1klGE7CgB4WK7k3K6+c3faDhKJuAVQULM371S907fJcVrZjgIAnmScJ9R7xre2Y0QqCsDJmJ2ySPXPSJTU0HYUAPAWM0i9Z3Lgz0ngFsDJ6jXzGTn6zHYMAPCQcSoa/5jtEJGOAnDyjIrEtZE02XYQAPCA2XIKt1b3qbyk7SQ5tgNEje61k5SWOE7SFbajAECUWqxA4Cr1mb3PdpBoQAEIpqdrF1deoYmSudR2FACIMkvlmKvVc9Yu20GiBbcAgumtXw7KSWos6SfbUQAgahizUIq7im/+wcUVADd0r52k9MRvZXSd7SgAENGMpisuq4Xe+uWg7SjRhscA3TB1e66aVv1KOYGykurYjgMAEcnRtwoEblbPeem2o0QjrgC4rXODZyS9Kv6uASD/jHlLvWd1E0f8uoZvSqHQqcH1/39WQEnbUQAgzGVKelS9Zg6zHSTaUQBC5ckrqikQ+FYy59uOAgBharUCgVvUZ/YS20G8gD0AoTJr0z5de+ZQZfvj5Dj1RfkCgL8wnyoz/kb1m7HFdhKv4JuQDZ0bNJP0oaQKtqMAgGV7ZJy26j1jhO0gXsMVABtmp6zVFWWHyB+XJEeXiCIGwIscjVCOr7n6zphvO4oX8Y3Hts71r5CcdyVdaDsKAITIKinwhHrNnmA7iJdxBcC22SmbdNplg1UsbZt8qiupsO1IAOCSA5KeUVrW/Xpv3mrbYbyOKwDhpG2jIkrKe0zGPC0eGQQQPQ7JOEPkC7zGcb7hgwIQjro2LKk8PSFjHpNUxnYcACgY56BM4APlxvRSv+m7bafB31EAwln32klKK3SfZJ6QVN12HADIp40ypp9incHqMTPNdhgcHQUgMjjq0vBKBUwbObpZUqLtQADwDzmSM1ryf6iisyepuwK2A+HfUQAiTffaSUot1FxO4B7JaSop3nYkAJ7ll9EcOc4IOYEvuL8fWSgAkezp2sWVm9BEjnOdpGslnW47EoCot13SBBmNlwlMUp/Z+2wHQsFQAKJJh8sqy+drKJ+vvoy5WNJ54rFCAAVllCFHyyTzq4xvpmICM/X2rHW2YyE4KADRrLt8OljvTMU4Z0tOFcmpImNOk1RWckpLprSkQvr9PIhidsMCCKFUSX5JmZKzVzJ75Wi35KTIBDbK+DYoxrdKhaet415+9Po/AsQnGpxXUnQAAAAASUVORK5CYII=;direction=south;rotation=-90;" parent="1" vertex="1">
          <mxGeometry x="15" y="332" width="35" height="35" as="geometry" />
        </mxCell>
        <mxCell id="HK9NlegRddoSVr3_TbAF-4" value="" style="shape=image;verticalLabelPosition=bottom;labelBackgroundColor=default;verticalAlign=top;aspect=fixed;imageAspect=0;image=data:image/png,iVBORw0KGgoAAAANSUhEUgAAAgAAAAIACAYAAAD0eNT6AAAACXBIWXMAAA7DAAAOwwHHb6hkAAAAGXRFWHRTb2Z0d2FyZQB3d3cuaW5rc2NhcGUub3Jnm+48GgAAHqNJREFUeJzt3XvUbWdB3/tvSEyQEC5CkIuEHRDkqiDK/SKIirRFi41yO2AVL9jjkKqn9gxOq462o0Pa2tMjlVq13tCqSLEiVUAIeJciIFEiQQjEW0ARMCSQy07OH3NHwibZede711rPmmt+PmPMsQfhHe/6vc9aYz6/9cxbAQAAAAAAAAAAAAAAAAAAAAAAAAAAAAAAAAAAAAAAAAAAAAAAAAAAAAAAAAAAAAAAAAAAAAAAAAAAAAAAAAAAAAAAAAAAAAAAAAAAAAAAAAAAAAAAAAAAAAAAAAAAAAAAAAAAAAAAAAAAAAAAAAAAAAAAAAAAAAAAAAAAAAAAAAAAAAAAAAAAAAAAAAAAAAAAAAAAAAAAAAAAAAAAAAAAAAAAAAAAAAAAAJ/klNEBqOr06u7Vkepu1R1usN2iunX1aaPCAazo6uqj1bXVB2+w/Vn13upPj/0MAykA23d29ajq86sHVZ9bnds00QMswdGmIvAH1QXVW6rfqf5qYKbFUQA273bVk6onV4+t7jM2DsDOemf1G9WvVr9WfWRsnP2mAGzGnap/VJ1XPaY6bWwcgNm5pqkMvKx6efWBsXH2jwKwPqdXX1E9r/ri6tSxcQD2xtHqtdWPVr9UXTU2zn5QAE7eXatvrb6u6Zs/AJvz/qYi8OLqLwdnmTUF4PDuV31X9Yymb/8AbM+V1c9UL6r+eHCWWVIAVnek+r+rr88yP8Bo1zadI/DC6l2Ds8yKAnBwn1F9b/XNOakPYNdcXf1g0376Q4OzzIJvsDfvFtW3VK+oHp/r9QF20anVI5pOxP7bpnsLXDc00Y6zAnBi965+uGniB2A+frv6huodo4PsKisAN+7U6p9XP1/da3AWAFZ396bVgKua7jJoNeA4VgA+1TnVT+ZbP8C+OL96TtOzCDhGAfhkT6leWt1+dBAA1uqD1bOqV48OsiscApicUv3L6oeqWw3OAsD63arpvi3XVL85OMtOsAIwXdL3Q0138gNg/720aZ+/6EcSL70AnNn0oIkvHx0EgK36tepp1WWjg4yy5AJw++qXq0eNDgLAEG+q/l7116ODjLDUAnDXpudNP2h0EACGurB6cnXJ6CDbtsQCcNemE0DOHR0EgJ1wcfXoFvZ0waXd1va21asy+QPwCedWr2lhl4AvqQB8evXK6sGjgwCwcx7Y9AVxMZeCL6UAnNp02cdjRwcBYGc9svrZFvLE16XcCOiHm+4ABQAn8jnVnZpWA/baEgrAt1YvHB0CgNn4guq91R8MzrFR+34VwCOrN1SnD84BwLxcXj2sPX6c8D4XgNs1tbdzRgcBYJb+qKkEXDE6yCbs8yGAH2+6rhMADuNO1V2qXxodZBP2tQA8t/p/RocAYPYeUr2rumB0kHXbx0MAd246ZrOoGzoAsDEfqO5bfWh0kHXaxxWAH6seOjoEAHvjzOqs6n+NDrJO+7YC8OXt2RsEwE44Wj2ievPoIOuyTwXgtOpt1QNGBwFgL/1+9fCmMjB7+3Qr4G/J5A/A5jy0et7oEOuyLysAZ1bvabpkAwA25dLqntXHRgc5WfuyAvBtmfwB2Lw7V187OsQ67MMKwG2qi6vPGB0EgEV4b3Wf6urBOU7KPqwAPC+TPwDbc6R65ugQJ2vuKwCnVX9S3WN0EAAW5U+abg402ysC5r4C8LRM/gBs32dXXzk6xMmYewH4xtEBAFisWc9Bcz4EcM+mBzTMvcQAME/XVfeu3j06yGHMefL8x807PwDzdkr17NEhDmvOKwAXNTWvfXNp9frqN6s/blrluLw9ewoVsNduX926aR993+ox1ROrzxwZakMurO4/OsSSPKRp6WVfto9XP159UVY1gP10i+oJ1U9UVzZ+v7vO7XPXOE7cjH/d+Dd8HdvV1Q9Ud1vv8ADstLtXP1hd0/j98Dq2713v8HAiv9/4N/xktzdVn7fugQGYkYc0PV539P74ZLffW/fAcOPuXF3b+Df8ZLbvr05f98AAzNDp1X9q/H75ZLaj1dnrHhg+1bMb/2Yfdrum+qb1DwnA7H1L00Q6ej992O3p6x8SjveSxr/Rh9mOVs/awHgA7IvnNN8V3hdvYDw4ztsb/0YfZvu2TQwGwJ75jsbvrw+zvXUTg8EnnNU8l4h+ahODAbCnfrbx++1Vt2ua7n3Ahjyq8W/yqtt78qEAWMVtqvc1fv+96vaITQzGpsztpjNzvGzu26qPjg4BMCN/W71gdIhDeNDoAKuYWwF4wOgAK3pd9crRIQBm6BXVG0eHWNEDRwdYxdwKwL1GB1jRvx4dAGDG5rYPvefoAPvswsYf4zno9kcbGgOAJbmg8fvzg25/uKEx2Ig5rQCcUt1jdIgV/MToAAB74KdHB1jBkdEB9tXtGt/uVtnus5lhAFiU+zd+f77KdtZmhmH95rQCcIfRAVbwF9VFo0MA7IF3NO1T52I2c5UCsBlvGh0AYI/8/ugAK5jNXDWnAjCbZZXqnaMDAOyROe1TZzNXzakAzOnxuX86OgDAHrlkdIAV3HJ0gIOaUwE4Y3SAFbjzH8D6XDY6wApm82V1TgXgtNEBVnDF6AAAe+Ty0QFWoABswCmjAwDAzZjNXDWnAgAArIkCAAALpAAAwAIpAACwQAoAACyQAgAAC6QAAMACKQAAsEAKAAAskAIAAAukAADAAikAALBACgAALJACAAALpAAAwAIpAACwQAoAACyQAgAAC6QAAMACnTY6AHvjbtW9mz5Tt6jOqC6u3lddNjDXnJ1VHTm2XVldW11Tvav682GpON4tqntU51RnHts+VH206b364LhocNMUAA7rPtV51ZOrB1a3O8HPXlq9vnpt9avH/jef6i7Vl1VfWj2huvMJfvZD1R82jecvVBdtPB039AXVU6snVg+tbnmCn/2r6jeq11Uvr96/8XSwZ86rrpvJdt6GxmC006rnVm/r8GNzdfXfq4dvOfsue0T1c01jc9hxfVv1nJT6TTqjen71R53c5/+V1eO2nH3u7P8XzgdgrGc1fctc5zi9tumwwVLdp+lb4TrH9KLqmdv8IxbglKZy9eet9716fdPqGTfP/n/hfADGOLv6n21urD5WvbBlfXM9rfoXTX/7psb1F6s7busP2mN3a5qoN/U+XVV9b3Xqtv6gmbL/XzgfgO17XPWXbWfMfrW6zXb+rKFuU7267YzpX1SP3c6ftZeeUH2g7bxX51d32M6fNUv2/wvnA7BdT6muaLvj9vbq7tv44wa5e9PfuM0xvbzpRE1W81XVx9vue3Vh05UEfCr7/w1wHwBuzFdWr6g+fcuv+6Cms6WPbPl1t+FI09/2oC2/7q2aDgc8dcuvO2f/oPrZppP+tum+TYcbTnT1B6yNAsDxHli9tDp90Ovfo3pjdc9Br78J5zTt2O8x6PXPqH6mesCg15+ThzVdkTHqnJR7NV0lcKLLCmEtFABu6Kzq55tuZDLSOU3HRPehBJxTvaE6d3COM5tWdW47OMcuu13TN/9tr3wd7wuq7x+cgQVQALih76/uNzrEMdd/az4yOMfJOFL9euMn/+vdu3rR6BA77P9td96r5zfdFAo2RgHgep9X/ePRIY4z58MBo5f9b8rzmu5cxyd7bNO1/rvkB9r+eQgsiALA9f5ju3kt8hxXAo60W9/8b+gW1feNDrGD/k3TDX92yb3bvVLOHlEAqPr8pmued9WcVgJ29Zv/DX1x9eDRIXbIo9vd+yV8V8u6SRZbpABQ9fWjAxzAHE4M3JUT/g7i60YH2CHfMDrACRypnjQ6BPtJAeCWzefe8bt8OOBIu7vsf2OenePLNZ3x/7TRIW7Gs0cHYD8pADysEz/Kd9fs4uGAOSz7H+/2TZebLd2jmy5/3WVf2u6dn8AeUAB49OgAh7BLhwPmtOx/vDm+9+v2+NEBDuDsPDWQDVAAeMToAIe0C4cDjjSvZf/jPXJ0gB3wuaMDHNC2byHNAigAHBkd4CSMPBwwx2X/4x0ZHWAH3Gd0gAP6nNEB2D8KAHN/BOmIwwFzXva/obm/9+twp9EBDujs0QHYPwoAnzE6wBpsswTsy+RfdcfRAXbArUcHOKBdP1GRGVIAGP3gk3XZRgnYp8m/9ue9Pxmjnnq5KpdssnYKAPtkkyVg3yZ/YOEUAPbNJkqAyR/YOwoA+2idJcDkD+wlBYB9tY4SYPIH9pYCwD47mRJg8gf2mgLAvjtMCTD5A3tPAWAJVikBJn9gERQAluIgJcDkDyyGAsCSnKgEmPyBRVEAWJobKwEmf2BxFACW6IYlwOQPLNJpowPAINc/zrfm/UhfgENRAFgyEz+wWA4BAMACKQAAsEAKAAAskAIAAAukAADAAikAALBACgAALJACAAALpAAAwAIpAACwQAoAACyQAgAAC6QAAMACKQAAsEAKAAAskAIAAAukAADAAikAALBACgAALJACAAALpAAAwAIpAACwQAoAACyQAgAAC6QAAMACKQAAsEAKAAAskAIAAAukAADAAikAALBACgAALJACAAALpAAAwAIpAACwQAoAACyQAgAAC6QAAMACKQDMxZ9VR0eHOICjTVkBdpoCwFz8TvWM6prRQU7gaPW1TVkBdpoCwJy8rHpmu1kCrp/8Xzo4B8CBKADMzS6WAJM/MDsKAHO0SyXA5A/MkgLAXO1CCTD5A7OlADBnL6ue05gScE31f2TyB2ZKAWDu/nv1lOqyLb7m5dVXHnttgFlSANgHr62eWL1nC6/17upx1au28FoAG6MAsC/eXH1+9WPVdRv4/ddWP3rsNd6ygd8PsFUKAPvkI9XXVY+q3rDG33t+9cjqedXfrvH3AgyjALCPfrd6QvWIphWBDx/id3y4+m/Vw5sOL7xpbekAdsBpowPABv3ese35TasCj68+r7p3ddfqzGM/d3n1F9W7qrdVb2y6ne+VW84LsDUKAEtwZdMy/vmjg3Cz7ty0evOY6n7VZ1dnVberrmgqa++tLmoqd2+oLhiQc05u2TSej6se3FSAP7O69bH//6PVpX2iAP969VvVx7eelK1SAIDRTq+e3nRTpcd304cmb3VsO7v6wupZx/77u6qfqf5L00TG5FHVN1b/sLrNCX7u9se2+1VPPfbfPlK9ovqhpkNq7CHnAACjnFr9k6bLN3+i6Zv/YfZJ966+u2ll4CXVndaUb64eXf1G07f453biyf+m3LZPPNnyjU0nwbJnFABghIdWv1+9uLrbmn7nGdU3V++svmlNv3NOblv9eNPk/5g1/t7HNZWJHzv2GuwJBQDYthdUv910QuYm3K7pcMDLW86E9bDqrU3f+E/ZwO8/pWlF4C3VF2zg9zOAAgBsyynV91f/sem4/6Y9remb62dt4bVG+vtNJ7ieu4XXumfTIYG/v4XXYsMUAGAbTmk6zv9Pt/y6D2g6q/3Ill93W57RdLLerbb4mrc69ppP2+JrsgEKALAN/77p6YkjnNv0DfnIoNfflGdUP9WYq7lOq3666fwAZkoBADbtq6tvH5zhSNPS9T0H51iXr65+sulKilFuWf1C0021mCEFANikc6sfGR3imHOq1zX/lYBnNN33YBfu43J206GdTZx4yIYpAMAm/aemO/ntiiPNeyVgF775H+9JTTdyYmYUAGBTvqT6B6ND3Ihzqtc3v5WAXfrmf7wXNd2HgRlRAIBN+eejA5zAPVrvI6M37ZFNJ/zt0jf/G/qsxp3kySEpAMAmPKjpMcq77B6jA6zgs9rdyf96LxgdgNUoAMAmPOvmf4Q984A2d3dHNkABADbhH44OwBBuDjQjCgCwbnep7jM6BEM8fnQADk4BANbt4aMDMMzDMq/MhjcKWDff/pfr01vf453ZMAUAWLdzRgdgqCOjA3AwCgCwbrt05z+2z/s/EwoAsG6njw7AUO4IOBMKALBuV4wOwFAfHR2Ag1EAgHX70OgADOX9nwkFAFi3d48OwFDe/5lQAIB1e8foAAxzaVYAZkMBANbtTdWVo0MwxG+MDsDBKQDAun2s+p3RIRji10YH4OAUAGATfm50ALbumuoXR4fg4BQAYBNelssBl+ZV1QdGh+DgFABgEz5Y/djoEGzVvxsdgNUoAMCmvCirAEvx2uq3RodgNQoAsCmXVN83OgQbd031HaNDsDoFANik76veOjoEG/WvqgtGh2B1CgCwSVdWT68uGx2EjTi/+jejQ3A4CgCwaRdVX5GbA+2bd1T/qDo6OgiHowAA23B+9dxMFvvifdWXV38zOgiHpwAA2/Jz1TOaThpjvi6pnnjsX2ZMAQC26WXVM1MC5uqS6gnVe0YH4eQpAMC2KQHzZPLfMwoAMIISMC8m/z2kAACjKAHzYPLfUwoAMJISsNtM/ntMAQBGUwJ2k8l/zykAwC5QAnaLyX8BFABgVygBu8HkvxAKALBLlICxTP4LogAAu0YJGMPkvzAKALCLlIDtMvkvkAIA7ColYDtM/gulAAC7TAnYLJP/gikAwK5TAjbD5L9wCgAwB0rAepn8UQCA2VAC1sPkT6UAAPOiBJwckz9/RwEA5kYJOByTP59EAQDmSAlYjcmfT6EAAHOlBByMyZ8bpQAAc6YEnJjJn5ukAABzpwTcOJM/J6QAAPtACfhkJn9ulgIA7AslYGLy50AUAGCfLL0EmPw5MAUA2DdLLQEmf1aiAHDV6AAHdOXoACswpuMtrQSY/FmZAsBHRwc4oMtGB1iBMd0NSykBJn8ORQHgA6MDHNBcctZ8ss4l58nY9xJg8ufQFAAuGh3ggN45OsAKjOlu2dcSYPLnpCgAvH10gAO6YHSAFRjT3bNvJcDkz0lTAHjD6AAH8IHqj0aHWMEF1V+PDnEA548OsGX7UgJM/qyFAsBvt/sng72mum50iBVc15R5l32k+p3RIQaYewkw+bM2CgAfq14+OsTNeOnoAIfw06MD3IxfaL8vAzyRuZYAkz9rpQBQ9cOjA5zAe6tfGx3iEF5TvW90iBP4kdEBBptbCTD5s3YKADUdBnjj6BA34d9WR0eHOIRrqn83OsRNeF31u6ND7IC5lACTPxuhAHC9F7Z7x9kvqn58dIiT8KPVu0eHOM61Te81k10vASZ/NkYB4Hq/1e5Ntv9n87mt7o35ePWto0Mc579Vvzc6xI7Z1RJg8mejFABu6NvbnZ3Nf65eOzrEGvxK9V9Hhzjm3dV3jg6xo3atBJj82TgFgBv6cPU11RWDc7yp+o7BGdbpBdVbBme4ovrqpsv/uHG7UgJM/myFAsDx3tw0UYzaCb67emr7dYnax6onN+7Wu0erZzW+hMzB6BJg8mdrFABuzKuaVgI+vuXXfUfTzu/9W37dbfir6kurP97y6368Oq/6xS2/7py9rHp62y+hF1aPzeTPligA3JT/UX1Z25uMX9e08/vTLb3eCJdUj2l7t1++tKl0vGJLr7dPXt70+d/WExPPb/psXLKl14NZOa/pMrU5bOdtaAxGuEvTyXibGqurqn9ZnbqtP2gHnFp9b9PfvqlxfXV15239QXtsG5//725Zn//DsP9fOB+AsZ7Z9O18neP0mup+2/wjdswDmlY+1jmm72tavmZ9Tmkzn//XNX0GuHn2/wvnAzDe6dU3Nj3t7rBjc1X1P6tHbzn7Lnts9UvV1R1+XN9ePa/pPWIzzujkP/9XN73Xj91y9rmz/184H4Dd8pDqe6pfry7vxOPxl00nVn1zdfaArHNxp+r5TQ/qubQTj+nlTbdv/u7q80aEXbgH94nP/xWd+L26tOnz//ym95jV2f9vwGmjAzBbbz22fU/TEuk5x7ZbV2c23VPgw02X9X1oTMTZ+UD1kmNb1WdU96puW92uadL/aNOJYpc07WwY423Htu/ppj//H6n+JJ9/dpQCwDpc13TseZeffjdHf3NsY7f5/DNLLgMEgAVSAABggRQAAFggBQAAFkgBAIAFUgAAYIEUAABYIAUAABZIAQCABVIAAGCBFAAAWCAFAAAWSAEAgAVSAABggRQAAFggBQAAFkgBAIAFUgAAYIEUAABYoDkVgOtGBwCAmzGbuWpOBeCa0QFWcKvRAQD2yJmjA6zgqtEBDmpOBeDK0QFWcNboAAB7ZE77VAVgA2YzqNXdRwcA2CPnjA6wgtl8WZ1TAfjb0QFW8DmjAwDskTntU2czV82pAHxwdIAVPGx0AIA9cUr1haNDrOCvRwc4qDkVgNkManWX5tVYAXbV/as7jw6xgtnMVXMqAJdVHxsdYgVfOToAwB74itEBVnD5sW0W5lQArqveNzrECp4zOgDAHnjm6AAruHh0gFXMqQBUvXd0gBXcv3ri6BAAM/Yl1QNGh1jBe0cHWMXcCsC7RwdY0QtHBwCYsX8xOsCKZjVHza0A/OHoACt6YvXU0SEAZuirqseODrGiC0YH2GePajoXYE7bxc3rLlYAo92muqTx++9Vt4dvYjCYnFUdbfybvOr2M5sYDIA99fON32+vul1T3XoTg8En/EHj3+jDbP90E4MBsGf+WeP314fZ3rKJweCT/WDj3+jDbNdWz97AeADsi+c27StH768Ps/3ABsaD4zyr8W/0Ybej1besf0gAZu9bm+ch3uu3r1n/kHC8z2y+DfH67f+rzlj3wADM0BnVf278fvlktqPVHdc9MNy4Nzf+DT/Z7c3VQ9Y9MAAz8tCmY+ej98cnu/3eugdmG+Z2H4Dr/croAGvw0Op/Vy9pXs+6BjhZ96h+qHpT+/FFaB/mpNl4cOMb3zq3K6ufrL64+ZYygBO5RfWk6qeqqxq/313n9qA1jtPWnDI6wEl4Z3Wf0SE24APV+dVvVhc23VryI9WHRoYCWMHtq9tWn13dt+mOfk+ozh4ZakMubHr2y+ycNjrASfi55nef6IO4U9PZpM4oBdh9Pzs6wGHNeQXg3OpPsmQOwBjXVvdsXo+q/ztznjwvbloqB4ARXttMJ/+adwGo6SxSABjhh0cHOBlzPgRQdWp1UdMSDABsy8VNJ6JfMzrIYc19BeBo9eLRIQBYnP/QjCf/mv8KQE2PCL64usPoIAAswl81nYh++eggJ2PuKwBVlzU1MQDYhu9r5pN/7ccKQNWZ1XuarqEHgE25tLpXdcXoICfr1NEB1uTq6uPVU0YHAWCvfUf1u6NDrMO+rADUVGbe2kzvyQzAzntz9fCmGwDN3j6cA3C9o9V3jg4BwF46Wn1TezL5134VgKrXND0jAADW6SXVW0aHWKd9OgRwvTs2PZ3pjqODALAX3t/0VMMPjw6yTvu2AlD119W3jw4BwN54QXs2+df+XAVwvLc3tbUHjg4CwKz9SPVvR4fYhH08BHC921d/UN19dBAAZumCprP+PzY6yCbs4yGA632o+urqytFBAJidy6uvaU8n/9rfQwDX+7Pqg9XfGx0EgFn5hup1o0Ns0r4XgJpu3HDX6qGjgwAwCz/Ynh73v6ElFICqX6keUN1/dBAAdtovVV9bXTc4x8bt80mAx7tl9erqcaODALCT3lg9uenZMntvSQWg6jZNb/CDRwcBYKdcUD2+6QTyRVhaAajpfIDfrM4dHQSAnXBx9ejqL0cH2aZ9vgzwpvxF9ZimtgfAsl1YfVELm/xrmQWgphLw+Oq3RgcBYJg3NZ0XdsnoICMstQDUdJznS6tXjQ4CwNb9cvWEpufHLNJSLgO8KVc3PT74btXnD84CwHb8VPWsFn6n2KUXgJqu9Xxl020fvyhjArCvrq7+WfVd1dHBWYZb4lUAJ/KFTSsCrhAA2C9/Wj29+u3RQXbFks8BuDH/u3pI9fLRQQBYm1c23f/F5H8Dlrs/1ZXVy6rLms4OPW1sHAAO6ePV/1W9oD1+qt9hOQRwYveqfqD68tFBAFjJ66t/Uv3x6CC7yiGAE3t39ZTqqdX7BmcB4Ob9efXc6osz+Z+QQwAHc1H1I9WnVQ/LuAHsmquqf1+d1/QYeG6GiezgrqpeW/1k08rJ5zYVAgDGubb6heqrqp9vutSPA3AOwOHdpfrO6puqMwdnAViaK5tu6POi6l2Ds8ySAnDy7lh9W/UN1WcOzgKw797fdEj2xdWlg7PMmgKwPp/WdLLg11dfkssHAdblmuo1TRP/L2eZfy0UgM24Y9PxqPOa7iXgXAGA1VxV/XrTfVleXn1wbJz9owBs3lnVk6ovayoD9824AxzvuurCpkn/1dXrmm7IxoaYiLbvDtWjmm45/KCmqwnumUMGwHJcXb2nent1QfXWptv0/s3IUEujAOyG06rPqo4c+/cON9hOq25VnTEqHMCKrqyuaDp2/8EbbH9WXXzs38U/jQ8AAAAAAAAAAAAAAAAAAAAAAAAAAAAAAAAAAAAAAAAAAAAAAAAAAAAAAAAAAAAAAAAAAAAAAAAAAAAAAAAAAAAAAAAAAAAAAAAAAAAAAAAAAAAAAAAAAAAAAAAAAAAAAAAAAAAAAAAAAAAAAAAAAAAAAAAAAAAAAAAAAAAAAAAAAAAAAAAAAAAAAAAAAAAAAAAAAAAAAAAAAAAAAAAAAAAAAAAAAAAAAADYMf8/byUJPiSQSGcAAAAASUVORK5CYII=;" parent="1" vertex="1">
          <mxGeometry x="53" y="325.5" width="40" height="40" as="geometry" />
        </mxCell>
        <mxCell id="HK9NlegRddoSVr3_TbAF-5" value="" style="sketch=0;outlineConnect=0;fontColor=#232F3E;gradientColor=none;fillColor=#067F68;strokeColor=none;dashed=0;verticalLabelPosition=bottom;verticalAlign=top;align=center;html=1;fontSize=12;fontStyle=0;aspect=fixed;pointerEvents=1;shape=mxgraph.aws4.sagemaker_notebook;" parent="1" vertex="1">
          <mxGeometry x="92.5" y="321" width="49.69" height="57" as="geometry" />
        </mxCell>
        <mxCell id="NJQEp5nP68rqL0rwDxV9-2" value="&lt;span&gt;&lt;b&gt;Chunking Strategy&lt;/b&gt;&lt;/span&gt;" style="edgeStyle=orthogonalEdgeStyle;html=1;endArrow=open;elbow=vertical;startArrow=none;endFill=0;strokeColor=#545B64;rounded=0;fontSize=14;strokeWidth=2;" parent="1" edge="1">
          <mxGeometry x="-0.037" y="20" width="100" relative="1" as="geometry">
            <mxPoint x="150" y="321" as="sourcePoint" />
            <mxPoint x="335" y="321" as="targetPoint" />
            <mxPoint as="offset" />
          </mxGeometry>
        </mxCell>
        <mxCell id="NJQEp5nP68rqL0rwDxV9-3" value="" style="shape=image;verticalLabelPosition=bottom;labelBackgroundColor=default;verticalAlign=top;aspect=fixed;imageAspect=0;image=data:image/png,iVBORw0KGgoAAAANSUhEUgAAAN4AAAAlCAYAAAAtMldtAAAAAXNSR0IArs4c6QAAAARnQU1BAACxjwv8YQUAAAAJcEhZcwAAFiUAABYlAUlSJPAAAABfaVRYdFNuaXBNZXRhZGF0YQAAAAAAeyJjbGlwUG9pbnRzIjpbeyJ4IjowLCJ5IjowfSx7IngiOjIyMiwieSI6MH0seyJ4IjoyMjIsInkiOjM4fSx7IngiOjAsInkiOjM4fV19eoJ2uwAAOOFJREFUeF7lfQeAFtW59rP7be+VbezCsrCUBWlKkaZIV5NYAH/TFMxNNPYk1hT0KiYaE0uiSW4Uk9yY2FsEFERFFLCAKE360mF7b9/u/s/znpndb9FEc+O9f3L/d3a+mTkzc95z3vPWc86cDTtl5tc66+qq0BkWRHtnGzoQ5HkHEAZ08qozLAwdPA/jsRNgCtM7mcAHwvmbn52JGRMmITkxEeNHjGCKQHcEYcoG4Xw3OjoGiQkJiI2JRbC9HQ0N9aitrUVHp8MlbMpfx0+DE5+w1w3cWZg94HBHR8UgKSmJ+KNRXlmHAwcP4cnnl2LNuncQzmKGB5hfWDvrqJrzqFe94nfj6WReulKeypVlVbl1zuQw0iOsMxwRYRFAexjiouIxbMhJGHHSSKSlpWNP6T5sfH8j9h7Yg9aOVuJp5WPtxOthcFl7J0ZhXTDJu++BPRIW4DECYR0B6CzAo3CmJiajZNBQjB45GhFRUSg9uB/vbXwX+w/tRVtnC+vEtgxni3aKzm4LC7ccDQuT7ah2tuqrjZkYFqYrprF+SlNdO9s7EBmIRPGAgRg94mTkZOeioqICH27ejC3bN6OpuQGR8eEIdrSzrcVXjlbKUvjFD65mjo4qi84dCRzOgOFSUwQQGxFHmiaiuP9AlAwbisTkeJQe2Ic3167BkWNH7H3RsoO7imv86+Uq8M/Cu/iSpWGS8IXrBTG4aMnz9pYgUmKTcRLbb+TwkUiITcA+td/mD7H/2EE0tTfzcbUdd7aV+Mbht2wNSGZ31I/qYZjcA+G8Fs6wHz/4Quf7G9/D9u0foqGpFuERzCRcDNjh2JDPs12tQqpOBxMS4xMxb9YszJs9CyX9+1uG/2pwvLwK69/ZhCWPPoVtO3aiI0DB8wTQEVNgJPVIRhqQYezItA57wD0lwnaKocicYZ0Uh/ZwxETGIjM1k403GgOLByEiEIFtW7di7dtrUV5Tjo4IUdcJnzaXl/JtZ4Y893D56Q6URhwSPuHhFhBOMo6OkRT8XhlZOHnUKejbpxCtra3Yum0zPtz2ASqry9EZICbhY/1MGNimQuMLhGFggsPM55ik2lua8GgjLgmOBFCKJjk+mUpmGEoGD0MUlZwEb/27b6GythyBCMfoprgp5EHlaoLlYRCtWV/R20SRf+6OMPFXTMs9QEVDpjSGzcnJwZjRY5BfkI/Ghjp8tH0bldr7qK6rQSCSz0RY69jWTlyqlRNEx/TCr4p7OodlcWU09LxnVCXDR3ZEYkC/YlNm+bn5aG0L4r33N+CDrZupyFqZZzvlgkrlBFmRIlGOTrBVFqtJN11FduIMXPCVKxb1yS9AWnIKWptb0VDfQCLZq9zVyDzqlBnJYl124Zfx4I9+hFmTJqJXWpqy+peE+LhYDBzQF/PPnYPeuTnYvmMf6hsaXUPpAaOSnXnnPKi1PFVp7ad0Y2SXZuk8qKE7OzqYXz2OHz+G5sYm0jcVBb3zkc89KiIKdbT2bS1tTvvxHcfWHj6Bl5fL2DGrf9cJg/DornAzhU2mRm9pbsLRw0dRX1ePrMxMCmBf4u2DttY24qxDB8tlLyoPtrMvBMLuzt21AfMN5zPGvkw2fCqH1Vel6UQ7rVp5WRmqqqoQHx+Pwn59kUvhaGtrQU1VNZqbWsw6hlNZWC2ZiTbLz9uMhkInnCFgxeQN3W0XTVm/hsYGHD5yxGial5NLochDRloGmhqaUK/6BSkCbe30ZChcxscODCfzUfm76+zyNjVr3oCElepBdeRWW1eHI8TV1NyMRHpNAwcOQnZWjrVdfU1tVz4qu18ftae79u/xqFN3ac9oC8Qk5yyKj40zDdm3dyFdsziUH69AU1Mr343wNGEYSooH4M/33ouZkybxmSiXy/8SGFTcD1+/4Etk1mZs/GCbaT4jKv/U+D5h/RMjiYFHTe9g2lRMZO+79GCwFZV0ww4dOkit2YI+vQtQ2LcQyQlJCLYG2YB1fIgan8+quR1eMgeF3Efj5+WekbDo6N0lvjAyjXuEuCkIbe1tqKgsR3lFOSIjI4xB+xT0QUJ8gglkCy1hh5lsjwm5W26GyIGP244SUGFwSNxuwLsUCOGrqq3GoSMH6Vq2IT8/j0xajHQq5vZg0ITBwhM+7udroHxIK6V117YbDA1/hNssk8rHx1oozBLqmspqWvkA+hcNoHLpi6iwKDTVN1EZ6FEnAKqfX0flpF2/XY3YVWde89SEXc+I/hTEptYW1q0GR44epQWPRO+83uhf2E8uAqoqqhCkJfSVp3PSrbRdOLvwE4wv7Akwr4T0RceOHqOmbEV2dh4KmWlmrxwwDKN2aaTmCuL8s2ZhyU/vQBIt3v9mmDRuFAry8rDq9fVGLGMJRzNHTF3Yn3futZ3Ae4zg3rP3TQglCM6TKK8sQ3V1jQlAfn4f5GZnm2uje8GWFtdI1uA+M4rZuoXR5W6Yu0DJYhB3W0Lo8Mr5aWxqRFnZcTQ1NiM5OQkFBQXIzOxFZRBEDQW+ndYvEE43TtCVqauUy0956Vw//iM60TNuN1zE38ZYTvgk8DXV1YilR1FYWIg8xn+trFtDXSPayUvG78zP6url486V7KczuQvsBuvlrLPcXFky5VlVWYWK8nIKYqtZvX59i5CWkmHWvZbWr10CTwFxVtvR1auEgaFX3nbBo92XG+rKoRuKG5upPOtpacto2VtbmhlCpJnyTEtJRTOtYRPlRIIe4dOS7Wb15G6Gq4f2dnsgKS9/UUNTA47SJaqsrkJUdAx60x3KoRAmJaXg6kvm4dKvz9db/1/AoAGFmHn6JCx9eTWJrKjENYB+Pr4xVW2lIxvKo7XtajfXsl4EwJigsbWJjFmJg4cPmbCkZ6QhJyvbGlAdFmpEuW7KUUJnmlT5Gn6X6o7dYHiIkU87vOZdSSDkNrWhmQxaXlGG42Qa3c/L7W3ublpqBmOkFuJs0Vt6yf1amXV0P4bTIeHBMJiwWZlCGdk4DWijUFdT8MSkHTxX3Qr79qNgpJuCaaRLaLVTnvbn8jBGJ3gYDaXL0V27HwLrJ7XkNtKMglBWfhzHjh9nHB2JPn36sH59EEnrVF/bQCFkGyojr6yOljr3MOmPiR5WQyC6O5dRdXWdi3JH5T43MK6sKC9DYiKVJ72XbLafXOnG+kZzq7vz0c5fw6Or7k1XgbTCfovaOoJoDVJL1Nfh8OEj1FxNSKWbMG3yaMycMtIy+DTYtmsXrrzlFnzvx3fgniVL8PKaN9ErPR1F1LL/apCeloLhJUOwYtVadFAgPJ7ySBayufYTL1jb2gXT9edADOoYxDptmJEYU8xSzsaTC5qUmEhmKaCr1BuR0VEmfC0tdPNNlNT43Dz8oVlbg/qNangFKhAPJhgOr45tbNu6hgYTPnkxCXRzxTS9MrOs00cxi6yD5e9nJeiBwxXCVwICd0f3dNb9spRHE3mo/HgZLauz8HLRcujySsE0MpZup0slC6M39Otn6+MzsCydQrOsVQYerSR2rRN66nRvhaesrNw8tHRaP8W2iaynLF59XYNZ5YiIAI9SbMrPMrcKOUfRpXXVxSWYByGrJzoKv0KHBsZ+5bK0VGrpVCgF9F5SqGCkqBsZe3a0q0ZdudpvV9t4EEju02eRBZdEou7fhma5CxV0EVLwra/O8R77dDj/0suwdedOnolROulWVeGFV17BwSNHMYNx4f8LELP9ZdUqvPzGGjz85JPYvX8/0+o/kzLondsLA4v6470N20wYfO63RnF/tne5JZbobrjGcyD2t0QjsdIlTmHW41jHBqyoqjBhSElLRS7d3FxapMgABZDuoVwmy8Nwy6opJx+fBzr1y8Z0EwyHTgneNZmHKYrtamvrzR1sZeySTVc3h3sihT/Y5srTTsFQt7qXjds9fNL+oWDCqCSrm7O4TpRUpE7DUceYspJWXkyaRmWen59PdzfDBL25qZmM7Cy8QUj2QuVc7jAMGdAfRfkF6J2dxetO1NBA6L5E0srG3epHHBVVVajmHhkZRVrmIosWKToqmqEUFRotEh/0PAkzncxDLWIYvc2d+3Q8f/YszJh4Ks87cejoEb4jBapOnkZ6iNUWOmioKo+KpVevXgwdwomnu+3UNq4t+EchdvlT8JIoeLpyEs0UHmOjI/HIvbd85k6U2+/7JVa//bZD4ufsHbfs3IHxo0aRaNku4X8IXl6zBhdceaUJ/7r3N1LoSrF200Y8v2qlXZcMKEbmp/TKFvbJIdGiSWS6ZCRmC90yaxyRiru5SwTHmK6xjBn8NP3pQu/4YhPyjrr06xrrqaQqUEU3X3FMZkYvsw7xcQnmmrWyAeWWugCeueh9IvIZTuA1rbLvBu++yuS3iZ5qa5NnU0v3TNav3noixaAZ9E6i2N6yRlIKekX4nBsmcCneBQ/C6uH1DuRpAi/8R7l3SJmTSSuqKk3oY2LEpHmsZyYS4hJRVVVtHRR6QTQVCKPlrmvm8ctbfoRrFlyMubNno5au3rpNm5Rs4B+trjy00B3U+LC8CSmRzMxM61hKSUxmjEl3X50vQZ+eDpdtlpHLzWjG48J55+P2a6/F+JEjMY+4H1++FHUUevVLKYBoJS1ladV+aqdUKs/sXll049Os97iBSidID8fy5o/L3eEMJBUULPIv3Z1OXPq1+Zgy9mRL/TR4dtlK3P3gf/DMUS2UCfyUdRs3shLz7Op/Ap5cvhxXLFpEDa/4RaCScLeW7cRBai4J5Gljx32q8PXOzURZZQvdswS6SZ3GmOqlU/e4s12imwjn9GYX93ggrT1+5Ch6EDnIp/KROy/m0ON6Um5MK62NgnfFf2rI2Ng4Cl+euUzC0dLcZrGKxtKsW16c4VqTp9L6dqo/A8dIYkSl+C3ijnpeLm9razMqKQyyRuJwWaG83DxzCzvImBpaEodJ8Lrq2QUmFkTEXx5UHN0WQ6qXUzhs15NK55mYtI4C38I4t3/fXIwdPRSjRpRg3MnDER0ZjWBLG61HrVkMveipKcM6d86sLsW9nkpz3cb3LV27sBCVIzsTZIXVs9tEz62yptLoGhMTS4HohV5pvUzYJQytises4MLoY3LltZ2lvuFb3+phMLbu3oktu+jVCZnX3Bq/a5T1k2Jh28ax7eS5ZMn60bW1YSO2r8Bh4ca26RI8odWen5ON39xxq5I+Ezzy5xdQWnrAYiHLgaV2Wp27d5B7l0/GGzJggF75b4Unly3Hd+64wyyDWG/mpIm4/Tvfww+vvAqjhgzBngP7UU4itVDL7i7db1r0b0F8XAyOl1ciMirOxUThAbN87RQEY0jhkdtilXVgzGA0cLD2yacwb84czD1zDl5fvx4HKPh6hnJkr1kMwU3jRdW0AHKVxIwShCziTKD1C1Jbtza1uWEA0ljMYbN++J7ycPqeR3OjHG4dXM56xqXpaGUOMLRoD6KB7nhtbQ0tepO5ZLk5eaxnLzJQLNoo8HJ5NYTtOhvUe+oEVzgdgzrQ0TCpLhQ+3bd04lLnhDojfvSdy3H7DVdj3OiT0Kd3NvJzMzGgXz6mnTYOF849G4UF+Th08CgqKmj9maEEQhmdd+bMLgGQ0PmC58CpFxXA1Vu9mPzl3kLlUlXjej5bGTergyc/rwApSSkW+6m3tzPoBs0tC0OnjFRTHpjHzIkuTBIPL/7Ng3Rz6x0p6Ta64jnlJ2VaV1drY38djF8zqMiy6BonxMXzsTAbNZB7rfYRLUMEzzXINQsvwkgy6GeFzTuOIjkpmZq6kbGQGMNKZYRQobyyYSs1xVwy33/nGODTy1bgu7fdafjE03fddCOu+ya1Vk6O4S3q0wdf/sKXzA09TldElm/mpMmfavVSk+LxzNJVSKM7Jk2WmJDItgmnFWq1zhLrwveeNSYXqBB23olrFyy0JMETy5ZR8I7acz7jquFkOuwNMkQjG1eWr5HaOp4WSD2Rsn5RFMZ2Wl31RKpzwrGHN+uDL+v9rl/id7GhnyI8/PF24TQB5N5GpqyRe0aXSZ0TmuaWn5ePpMQU63yRlVcHhhjSNsvX1dnP0oHDp6MTAj5D2pQwRlu65DcYWfK3+aq4qC/OnHm69Xxu3vaRKx/Tz6XFy6NBEKx/n4LHXeUwc0tw+HnuFUYCo6NYsb0jiHq6pzU11TZBIpzlUayZm5WDlPhk+t7tqCe9vSrZ7qx1B63bDlq5XdY3IKHbxXDF8re66Vl3tLKEd9pMGQ3wVxGX3PhI8lweFZl6rqMYc7bKcyGtTdh9wZMUChZ/59q/a7wuMyMNF547HVNOHYcvzZmGZSvXGQJVJKCxFxWKII2xhxU464wz7Przhrfe2YRrf/gTuoOut+yum6/HeX/FmmVSgJ6nq6mS9UpPw/gRf7vnNiE+Dn966jns3befgiA3sDeyGItFMV6RLy83SnGKYxM1nLWOKU/BNQsWuBPCE7TIEviuRtOjPOpdbdYOTLBeQY2J1dSaBldMlEMLmJyUajjVkRAkXr9Lw+/k0WYZ6GBn3omX7q5MfOxo5eCfYjExoGahKLaMovVTV3lOTm9ERkTYfcW57RRAP151u7LwW7kbjDlZF00pfPzee3rwVB3z37RlO5XZy+SRgAl3fHys3YuKjMTkU09BKS3f/tKD1vlyzlkzQwRvk4UuVnYPq6uN6uJd8Wh3da3JBSyurHs1BUKxrax7OuOwAim0FFo/PqaeX9HUWTKXn+ogoVtL97asqkKZ85bXRjrXbrgcTiXoXKGDYnaNM8r6KebLzclFMuNM+eOadWOC5zIIt96jy758ofL8zJCWEu8dE+kWpSE6Ohl7S4/a+JGkz3UGuAJK8MR00/8bejkff2ENK9RqcwkXffdynDNnhnfn45BJjf7Ao3/kmbRxMU4bM9bd+BuwfdduvPL6GtfzRyZMSU62Tom0jAyjnayQ9dAZLzjGNLqyRa6mF+GDL3jOjeJ9NbT/LIkkOulCWleupLS1ZqAIbxyFXhOSRw8fgr75vZGTmWkdBrUUzoiumJO4ibOHELpCGehq7MgRjDmzkJSUwPiVMR7BaXmNVbUag1Zaz2ebuWVu3C8NCYxfBvbrixxa/WRa/fLKasPhMDiL7YPvfv/nXXf1iJPuWfIILv7u9Xh66UtYv2ETnnxuOX7/p2esC34s4z0fBhT1w4db9pp7NvOMiRS8LEt/e6ME731m3cl8czCYgp1EN/YYPRhXAAmBdvkCrk5KV5o6sxT7xUZHIJV8m5AQTRc4iV5MDuLoEipckksqIRX4dbA20bFr8915nQsczjzWc8iAfqYkKtkmFdWMocsrrJPFYj8qMoUOsn5hvSdOpNPksrt6wcW4+uJuJvmvwOFjNXjwD8ux/aPN2H9gDxmnBsGOFhZMc+BkwDvMdbjzxpu8N/4xWL9hMzZu3g16J9Yp0CstjhXroJWKxtmzp3pP9QRpzflXXcmS0BpdfDGuuejT67xt52584auXGsFjNMmA2lKTn9U9LoHbt/8ASveV4ujxo7TuFE5u8CZd712z0ssFmH/5Vdar6lpTrCFwjSjB8dtCN0Kvk2ITceuN12Dy+NFsxBh7y4cjx8pw5z2/xsur37BgX5uy2LHmFe8J4Nb778e4ESM+NrRTSyv30BNP4pEnnkZdLeMXaXQqL2GOi06gm55P928qpp82FkV9uwVIUMd3lzz+DHF14sqLv2ZpP1+yxHYxrbri777hBksX3PqLX+Bh4uLjhscmXOtIXJ2Mmf/taxfge1d+03ua8foLb2Dd2+/jogtnYehg1z/we+Krqq/FxfPO62FFVY+XVr+OW+6/l+cNRNBthZW/FIXaWmU60aPbR0Ox7p2PsHvfAWzbsQ17yLeVtZU4efQw/Od9P/WeAvpOnmzHq+nBXO3xjNzel9e8gQXnz+2hYATrqCTuf+gP2LBxC7LSepF+hSgqLEIM2y+QUtCXFo/NSwJcs/Dij73890JiQgze33YIBQyU4+LizAVrpxmXJhHBNX1H433qYPhHx/duvP2nuOv+32DLtp10E1qRkpqCWWeMxdp3d+CttzfhnQ0f4JTRQxnfRXpvOLjujjtpdY6LN7Fw7tzPNK6XSZf03oceMYZuC8qVqDZXsKWl2bSmPyCtMThZCnXJKw4TXLXwq3YUPEX36tCRY6K44Zf8mfbkbgd7SpzpnfNncHERnv3dAygZ2N/mXp4IiQnxmDVtMsqOV2Pr9l18RT2fwBULnTAIpoyl4DDGPREU+46nBZwy5hQ8/+oqc5PUUM4SAxeeNxuXXjyXHs3Hww+9O3bkcNt9eJtKbT0ZTrX72Y03dsXPUnY33303z1Qxs0N2KsukXZ09Gz/cgvPOmmWT8bd+tAdbPtpHK5+CEUOLaHkd/uElgzGO5T2xr0DX8l6mjB1nPdbNGoZxVWD6ACx/+OFPfE+QwroNHdIXVRruiEtEbEyMhSwZaak4e8bp3lPAfUt+z98w+/xNeQkkL1PoMX1SeNablu88el4Hjx7Du6SJOnnkzkeSH8PdpyxqdOe3fh7QUEetz2Bds7knnDoRw0qGIys9G9GBGGq4CNvlanxv8WLvjb8frl/8EzyzfLl9mlFdV8lGew9r1tPdbKXpiwzH6DFjGGQm4s/PrPDecHD94rux7r0PyPjhKMjOw4yJE7w7nw6yXvqOTnuQW3lVGTZs2oA1a9dgOzWlpimNHD4Kk06dRCbvh7iYOGLRrPxuUHygXTzhdL12nYsV5bJ43fEh5w8svqVHwx6m0tBk7v0Hj3kpDhbdeAWKi4oRCCNzdfbEGwqaWHDo2FHvyoHCjKsXfN16WLXra4ApE0/BZQs+HnqUldd4Zx8Hs5jcU+IT6QYWeamuU0lVVD3dwLjqRzzqlODeRnytgU7c89Dv8OXLvodzLrocf3ziGcaCH/JtT4JOAMWK6+V2hoCE7LeLf8w3uImvmfbb2xd/TDAUt8lih8K0ySNJm2oU9SvE6ZOmoDC/p6Ky4Rzuf608gq27dhl9Q+HHN38HOXm90BRswa59u2nF1ytuVwM5BpDf/3lARCCIV15biU2b3kcMtceYk8fi9CnT0L9fMeJjEsgYFD5E4pllK7CErsffC9eRsE8uW4pgZ5BBeTTOPWs6XawgA/J99kHm/LMm4OjRw8gv6IPy6k4cOFxm7910+7149sVXESBTav/1bZ992ESgrxgkDB1klI5wJ4QtdKP3HyrF2nVvYv07a20qWEFePiaMO5WaegRysvK8tx2I0vYxJJnQdqaQ/7ymdMwoh9zGw7idO3tmj3a57b4HcNrcC/F/Lr0KZ134DVz3o3u8Ow4uPP8cxhG5iArEeSndsI1x6gVXXYWhs+dg/Lx5GHrmHHOVfFhw/vmGW0InJXPzlZd6dxyTX3r9LRgz7QJ8+7rFuHnxf5DpP/LudoM+z42gYi0p6jl09DbxuLjIA6un6utcY9FUeB+jgL65aSNaSdtj1WV4Z+O7NiAeChVVNbjmpp/g1Jnz8ZXLvosRM8/CU4ydfZA1ymcsLNpeMnd+Dy9u0S/uQ96UCZh7xbdRwpDn1vt/4d1xn4pFhLfS3dyKQCAc/Yu6FYcggjwTro+Q2X4nws8fWYKSM8/ErIWX2PHfvv8D746Diy44x9WRe019DZWvWSCNZIT/w26mDwP7F9Cd2o+31r+Jt9560z6JycrKwuTJp2PkiJPRi9YvNjKOzB+F2+/5lbkmnxW+eweFbvlS08oJSbH4/f0/w7cXfJXXjCHD23H3rx+ie5OCqeNLKAxrKeQBCkYtXnjpXZSW1iAzMQMxYTH4yQ3fw+ABPQn7aZCUGG+MYsJBwZPwiUGDaENdcy3do814lQrnnXfftk6lk0eOxmRav1CQsEnQzNLJvTSR8xqSB8ebfIDMKDx62NegTy17iTHSY8TXiiAZpKWziVb/Rby6Zr3dFwykW3ra5KmMiU7yUhxIcL58xTV4e4NzA8U80vjfuaOn12EuFMswfdKEHgL/zRt+YFPvappq8eH2zVi1+jU89Idn6NZv955wEBPNGDucMYwG+kNA7rWqpprZCcHq5ykZRxSKPa1eO+kaDFCVhgfRGGxEY3Oje8GDla9+yJgtGycVD0N6fDpa69vwY/KR6ujDLIYxvsXzQbGnFL0+Gpbl0vYIr+UG+5CUHI/1G9Zj1RuvuskFIZCemI6Y8Gjm2dM71HREdRrVe/iFVUNWTy1/ya4F4jVfWbeSX8JT4lIRE4glz4Zj+6493mP/GEybNB6ByDDGOC3mgq18Rcz4jvUqjR07HtOnzUIJGSMlKYNeYTSu//e7ehDtr8HPlzxMl2UprVsn4hPj8Oh999mgvHzpMyaPNwHYTlN+9kXfZHwZzRhvHVZREJ56diXds3qMP2UsJo6biJ/fdhPOmTPNy/WzQ22D75o4TW2MwqPbhb0VR8sPY/3bb+J1MqY+oszMyPDecaCB8cjwKKfspEG9o9wYQZcV8HbVd/6VV9okdGlVP13WoY3bmFOG2RxbH+JjAxYjnTpunJfiQJ0S9bWNnrWnn+Mxn9zWHkBOVRn8GEYgS/nW+xvIOBSGsDYKRzsq6d6vfXcd7n3wd95TDrIZ52alZ2HCyaO8FAd+SMOsu3fDpM1Zd//XPArVk4xKM9MlqIIPt+zEO++9j/TUVJw69lSMGX4yclJz0NEMbN/Zzb/qTJFgLXnsKdLvalNeDz/xFFISkhijjcI1Cxbi6osX4M4bb+jhEmsSdT0FfXfpXmz68AMv1cGEsRPsa/QohhShcM/Dj1jdnChLqTk9IrfTh1wqMV9ZS7GEnzFlBvrmFlGS41BX9+nM/1lA/vQZE8eQhOrba0N1fRU17Xose2k5Nm/dipTkNLqeZ2Aq98KCImqWBtz/2//03v7r8FtqezFlO2v1+H2/wJD+3e7MnTfdgOIBhWYN9h07YFN7YhIiUHpoN15dvQIrVi63r8EXfOVMTDvt04cPPgm27vQJaVzjOkPEFGQUW8+EwhcWqXilDXtKd2PlqhV4i/FfKBQPGERhzEFsdBJfi/Z2ui900dR0ZDWbdaH8rKGoITWQO/uShXRRanHerNm468ab8cbjj2PPG6/hj7/4GaZPPtVlTqiprcGbb61GTU2Vl+KgpqaBligKUWGR5jIFvB5F7aGg8Ve5hENClvRYq3GzkPK0dbaZkmsKNmHj9k04crzcexI26+W0KafheHlP95AN18WcPkaJmdDbrk3I7UY7nxEl3OdUxsUevLH+HVr4VVj79ltobGqgOz8cMyZPx6C+A21WkQ+GS8qFm6z8hPMuwI+uuBybXvwLHrvvXpv7qR78E3s5r2L6A3f8O04ZdZLlHwpFhf0Y+51Oj62Xl+I8iYbaJoR3SLF4RVUMy72bX1wnjIaHtMnShw8eOBhnz/kCtcdEm3nyecHNV12KpKQ4a6zOgPZOi4WW0k187Y3XcazsOIPYIsyYPhNjTxmHF1e+yUr0dClCQV3wUgxqm0vOn4chRT3XehHx9IX8eSRkAq2hxn2qGCi3h7WiOViP6pqj+Mr8ySjun+O98feDXAiTM0kby6FZJiKmJjGbpqZSCIopuYs5pXA++LCnGz2geACmTj0DxcVDkELXJSogt4zui4TPE0Bh0qiYMSM39Vqq+/rNxx7H3TfdZNPc/lpY0N4epIXaimUrlnopDvLzCzGo/yBEhkUhQO8mkluEFkzSYkkhoPp1CYAH+hrAL4st8sN6Ou2tLqY2HDh0xHtSa9mU2eJSQ4cN81IcpMYlm1cVIIM6K++Ew9990Jlfe3NBKXyhoKUZ5NZv2vY+Vr6+Ajv37LTvGmdMm2EzqHwwkSMe7UP7F2PNk38yIfssMGPyRPzh/rtx2cKveCkO3nnvHfu0qCA/30sBduzeZzGteRLe5urX0x11ILqKirR46pWTBI4bfypagz0b4R8BDSbeeOW3zOap40OMKIvQ3KZZCxvx/NLn8CZjQDHKeLpFZ805C6vefM97++Mg7SF9qQqVkJCfBBK+u2+8CWvpt8ufl8XtCG/BDddcgpXPP0Kh6+s9+feD3C37QlmE49ExSDc4keRdHhxzUmuTnBZ7hsChw4eQnJKCCRMmY8LEKcjL7YMYxrsRFL7wzkhqTjZcOxuunTnSKmn7+U3fp+Bd/LGeOYE6Rw4d7e7dFH51+Byr6tnjmUacUxljTzl1Cgpy+thKaDGMxSJxYvd6aK26wZVEtRcOCp520Zf1TGTs60PpwVLGf69g20f6RKwbvjhzGiIZ0wufY1TuFEKzvP7O5+bOmoVFV1yBoYyJzOoZHmF1YHGhvIrwNuw/vh8r1ryM1W+vxvHq4zbBwIeY6FjDlZqQgl/dcevHaCfX3Z9+JqUe2snkw5iQYRLB+vfW46UVy20oyQcJe05atsV+Ee0R1n4mfNxDFUo3OB4Kf/X1V/DcC89hz769tAyfn+AJZH3uvOk62QLTVBJBWT71RlZUl+OtdW+aBdy2bSvS0lJR2xyG5pZPtrqaZG2uA/cTu2tDQffmXXGlM/Os9+Di/vj6vPO9u/918HvNRMpQctp5jwQvPlFdyZTmKoXAuxveY8y7AhWVZRjA+HTq1KkYNWI0UhPTjFEi6XraTssUwZRLzp+P6RMmem9TcI8etZ64OQsvQd/Jp2H+FVfZxPAuMPxUcrRGoaDlBTW7ZsTwEThz9lmMdSchmfF9oKPnuKDFYmSb0PhEn8UI3Hij4iDWTx+USlJY18H9+9l9QbCjDVt3bMEzzz9HS9g9ZPGV+efyuUGIprsrK2uCJyvBc1/BiFHnzZ6DS+bOw7KHHjYleiJI8IJUZup4ae5sRnVzNQVoPZ598RnU1nW7twMYhgwcMBBzz57dNetF8LsnnsaoWWfjzIsW4ILLryD9LsdDdNt/tuS31st57eLFf5W/gmzVfVQse/Z1x5L6rGrOzNkYM+oUxMfEsy6kHy27WT0KXyjYMIrnTYQ3tzdi78E9eO7F5/DIH//MwjfZjc8Lzp8zGxeR8aUhWRobKHUak1IfGYbjFccY+y3D0888jU2bPsD+I25O3Img6UFiCk2NWrH6TS+1J5jQMZDesns38w+zToYHb7/du/uPwcrVaxxzaGPe5m4aOH2sjiOdWT11y6ydcz9DoTXYQmuwBX9Z+izefncNIqPCMGniBHxh9hdwUvFwxCIBURS86A5ao45IlBR1W/cVa9ZgwrwLbPbHNvMAHJzYO+uPNYbCLjLLY088jvXr9d1kGEYMG4kvnXkOhgwo8Z5wIIaRMG4N6ajQjBeN8/lru3gzqQjtbN8TpuYpFqRyrW2qw69+96iXCPTpnYWrL78E06dOQ25mtlk6Y1KzdOSJ9k5au9mGywebGtZVSx+cYpPwtUd0oC3AmJPnZTXlqAkRvLi4WMycOQtfmjPdSwFeWb0Wi3/+IOrrFNIoX+5sPE1if/zeX2DL0uU2kXoWhTLUi/ChTaaD9bPPujzQlx3R0ZEYc/IpmHHGdBT27stYMxKdbcyYdesJXRwkXhZzBNHCQHnz9s148oWeA86fByhGEWNqOlNudqbHkEEyXTgaWxosJlL89zpjvwce/rP3Vk8Qc02gVpEpX//eB7hu8Z09ekJFqHlXXoPNO3aSlhK6RMZ893wuQyTbd+7G4UPHKEsaf5QP71xeEVBgWox1koUjtU34ujen4XyQf09Vj/rGGgreOry8cjl27voIGRnpmHbGNJz3xXMxpH8JYsNjGYNF2ZcVPtSRYVzc4iy/LMQl8+ZhxsRui2icJHeMDBIKon1NUw1ptw5LX1qKTR98gFi6ZtOmdTOmgM6IWaFVr6/rQd+f3nAD4+oBqp6hEI7pkybiB/QuQkHKR1Zegv/ki8t79JpOHDsEF5w7G2fNOhOTxk9CZkqm1UcW4hvz5uPum2/0nnSWXcMXhisEui5FenVCsRzMAsEAaU0e82EvPbjjZcftO0ofjh4rp+KOtKEO4ZUCWki8mu/pgyZ1i5dk+U4Ektw69szd9UAfxr5Ir02L3mo1N8XvUxhCZFO5yEiEgsV9xKliRmgOZScT+Msj8OAfHsW8L06zGfmfF6j3UZ9MCL7zjQW49o47DNeCC841DafxqeeWr0J9Sx2WrnwZGWkJ+P7Vl9jzofD9qy/DWV/WXL5OPPXiSmrED0wT15BBtuzcieoGdQKEWVfy4/f+7HNbbPd3j/2FLlKcKQz7PIZMLUa2Zjal6QROHQKdMgckrjMLH4cfXHWZzSt0IkvRNesZsPmf+gg1KnIY494zsGNXKW744Z346KN9GDPCjcmdO3uGdX1r3FOKSC7UJykW8yi6ecOgna5Za5imsbWh9Og+lFWVoZTKTqtdh0Kv5AzEB+LQVNdi8wxvuupblq5hm6VLHjIXXh98Kmb65O8rnUXScn4qwreu/yGe/92v3C3CqJP6o2RQH1RW1eGj3fuRnhKP9LRkKuTunkLBbfc+4OaOipReWhcwY9fBJe/JLj9W32MVx7H8leWYeMpg5PRKtbQvzz0bmVRwu/buQ3ZWBsaOGt7DDXUgbGE2z1JxYKhQOsUqfN3I9G3ioWOH0by22VY5KyKvlwwazPrkoKOt58wYCbu4RkUPb6evLqunDhCN01TWV+Lhx572Hv18QB+j5lNzjx81wnrkFEBLaygo13jRXTddj2cf+qXXAdOO3z/5HB59JiRu8aC4qA9++eNbkEHmkOU7fKgcK15fa1PAajUUwlYYOqAYj9/z+Qnd4WOVSEvvjckTTkev1Gw3OEwXMNAZSQ2mnkj58hIgNpe/h7tr10A9OUKKQnXWFwKa4yihOnl4CYYOKkLf/Cw2WCry8zIxhNfnfPE8vPbGJnN/fJDAXTTvXHv3b1nzE+Ve437BgIuN2iiADcEG7Nq/Gy+t6h7kFYwaORqDigYiNiIGf/jTc3h2aU8PyJV/5F8ROldb1dssERWUvmf7wte/2cN6au5sTlYaTjt1BIYNGdBD6PTcjbf9FCtee5OM6qz6iSCD43oNjcgOp1kiu20gvi6vLsfPf/UQGhubvVRgxumn2jS4c8+c8QlCpxy9jQR8SRY3BOSt+GGSD6prK/m2rLoCmz7chNdffw1bNm9GfGwsSkp6uvEd7Yr6NGHFeSxeZm6XCCrY/CQf97OCZkQ89MQT+NnDS2zmu47qkv4G3SJ9l3ftggXUUJ1YeP5c7w3XoA8sXoQxI4fhS7NOw0N/eopxzF7vbjdolvzyP/8a/3bhBUiPpyYzAxSGYQOLce3FX8fj991tH15+XvDYsy8jIiICw0qGYcbUmRhRMhoxkUnoCNJdYSwkBrBeLCoC3w0Us7jNMcV/BfQ1ekpKCkaMOBkP/XEpNm/r7uwIBbXTbff/0rvyQBzY7XUZmKMvF5BKto0KVszSxPi+vLZ7DE6QkJSICRMn44yp09G/sD9+eMf9uOHWnm59KDy5bJm5haFgc1FNEJz127JnF86+6Bs2P/dvwYYPtuPiy27Ecy++YuV3tPQEzAPH8+7at3Jifm2h1JaQtHa0YDtxf+2K63E0ZKwxFKTUnn7xZe/KgbVcRyfWnjCjStZNe4825aNWT27NjP2OlR/Hexvfw+rVr6PqxJkvSWkUO2+mWMGkycYmXbWQqibIPXzsvnssPvt74SAbQsK2lsGx1hlZOPd8myS77I038IVpZ2Djli32FbaWga9taMA35p4Yp/xzwE23/wwvv7YWeVm5GDRgMIrIiC2tQZTu34+tO7aaq6bYuJNWJEzjlerpE8OJnqSj30huFkiP5iI4OjuwYNs6GfQrQZZ2DFK49elRZq8MWxKwqaEGSfGRiAiEoaq21oY4NNlXPcbjRjp3VLNr5HYre1lVKwHPN+/cYcpPbW1xqikLx9T6EDgQiEBibCKamtqRm5OPvNxc1NfX2j8H2bV7Bw4e2o/+9Dh6987BwAH9sHbDRstTCyftW/OG4RZ8l2HEU5oQbSB3U5qdZ6o+OS05IdnCi6HFA2wBWH3BEh4eiZa2MApBE+Oww4ypP8K+/fvQ0NRodRs8qD+9I4U+br2cA0co6CIfaWxWSKf0MsSz4lcpvoNHjthXAf5MHdVaX2iMHj4MfQsKkJqaynzK8NY7G7D/wH7SNZpt2Uq38RhKte4p89V3foOL+xkeIdQHuNJpebTQ4mvRUtPEttNAuJlArodWPpCUdW/ScNKE8cjJyUN0TDTe3bQFO0mzPXt3U/AmT2LbMDdP8Lq/Uui09SZ+vfg27/ofB8U26qb+j8cex6Irr7T1Xf5ZQZ/v3ECXR02m/3UghumT3wfFEoT0Xua+7Nm7F1u2bUZZxVGEMbhXVzq5mZRjs5GkMjo2wM7NU9WOCXXQj50pSaKqcyd4GtNSj5+6p9NTMlDYrxBFRf2RmpxiC8Xu2LGDMeAO1DXWoa2jlTgo8JY94wf1Gmsz/Dr6sage8PHo0gm6HtQmpomKiEZcZCziouMxcthwfPHM0xm35CKXMdJ1t96LjZvet487gwpPuCnO/f5Vl+LikOGaSfRqpHh9MCXkTjzs9BJYN9tYBs2k0bok2VlZGDxwILKzs2xV6tLSUuz4aAeOHD+CprYm0lVFVY08ejp5ZppdIVz1Nhysrd0QUldtKTK9ICGMCrAtE5PpZubZBA4tcai1MHfSJd5J61hZU4Wm1mbmovVRRD+WmrgUi5siNXyK513ejorm83T10BqNNbmiowMxMQn29XkxQyB9u6nlQvZTcQeSC/ra0g/KrruL3F3v2V9qvVLqvfo8QN9CKS75Iq1eMrXJPyuos+e7t98pniR02hfJzS1NqKQfrzVH9f8AMtIz7CuE7IwsJMTE2apVweY2T774oikzNoFHU//X30LXqBStrUGZ5BY+IvPwKLyaAuZWgj5m3zL2ZuNlU2ElJdPdJSPY2pS28JI1PXOT4tSRu6epBd2YuTFdt/zbbuaN2p+eOxlD60KGk8lvvvYSCnuCzdY4hSFAcko6yiu1FkwTRg4dgisWfA0XnnO25S8Q3bRb3l6aD0ZL2/2bUgdWc1vxTN3yWu9T/75NM18kGFJw0ZFR9g1bUGvb6DX+qvw2icHPS66t1dvlJ9pZctePw697Wj1Ai1XpK3stc6HV1NSWWs5D090kvP4Sh7qQ2xwI0Ia5DFz+3H0Bk6EyehpGghiAu31eRQXVFmy3nk+tQlZfp04p1i03D4GUPk7wHIOo8AJl7sBG+Onrzpj8v++flXwSaBXsW+67nwRx1yK02RBeSxPrPwBpGT41mh7J6ZVtC+dkpmaYZbS1MPXRb5fnoKz0JHdrIJ0qR5e3z5BmHe2mGMprCT6kxXr0z07UeBVV5aiixYlh4C7LoPUptTSDNK5WsdKX8GIS978CHBgLdjGHUJFFvXP3DH/dDbd7h4rKauTn5dDFdoPjcbHROGlIf8z/4kx882vzce6Z0zGkuHv8UDHgVYtuR22d32PraqgLw6NKsbImNNz0jP7Zir7SlyWTS6llGbQoUUWFlhx08z614K6WndC6LFpY2ATCMhWdlIuOHq3J7IZLp7qnP3tGJ6bODLcu9ZFyE11Zt8xFpeUv65fbKwuJWuKQ9yWUGl90Yq18lI0wiH4uX20+PfWju1YGd5seSDjbUEsANtjS9hI+lT2QWlDYJXj2cgj414foU7+x/m2MLCn51BW5/lVBg+83/fSn1inkSOv/qGElIG7XsEgT463qWjFImX3wGxsVjYLeBbZqcRLdGAlAkyxgmyb70kWh2+H+6YZjEOMFghM611QeK9pu/Gip7qgXxDZiTH31Xl5eYZYpKSnZluPTOizRUbG2PkmTFiSidTAklo8TOp3Zb/cPd+IVA3frCPeUmIuHFavX2DjiiQP0J4K8ooXXfh97Sg86HA6xcneoLM2dOD7z00VTz33UkbTQgrtaX0b/9ktKTv/8RMLXO7+3zRKRUpMAyo1zuJwS04XwWaKlehj9mzrVM8ThhNKettUE9L2fhKJBwyTEIXwZGZk2AUOrgjVq/FTKy/Ly3Etl5rLtxqMT7jpV7sYzOvceUJllvbUIUiAtv3CRK4jd9d91mXlH3Sqji/Xocy+Y/66vfD9p3uC/IkjgfvXHR/HtHy3Chq1bvFSBo4ATOhHPI6R3rhhAs9e1JF4lrZAWz01ISLSVwLQ6l75La9eKUhJAWaJwxjYkpM+Uyt01i4eJ8Y7OpFm7mMZSuNEHNNx8RDGjeo31wa9WYdZyf2l0AW0JQMaDcs1a6XpqAdxOxYqe4FkTW34eeNcqhdt17bALLIU4X1r9hi0wlJyUyDpF9+hsO3C0nML5Lh585AmU7j9MJqXAs84Cx06qoU5cnvbLH3fPnRsmHh1zuku5vk1yB6ncqhlzNZO2ySnJyKJA6F9/6Ut/KRe5jDZ5wVMewmZ2jQiMmszUr4/hUObu1MPp4+5EY7OzSLW0gEHmnU73U3Gn/q+hOoG0vqhWdTPX0nIQDp3zzCrk5aUztZW/2x1P2HXOsopXworGT+2UOZTeUbDsXvWPjmwGfNFl6lI0HqeeyH/G3sjPAlo1TPMvn1y6HNXUdNYIrKHiJoFPXJ8OXdBFQGo+NqxN9O2MQFIMfffs3ijs08/+O04gMpLWqQIf7XA9dLUNtdYR4k+gFoNoc3hFceceKnebdKLpDUyxchhOPqvxQV0riO8MkCGiqKFp9bJ6o2TIMOLPo8C14MDBA9i1ZzcOHD4I/ScoG6Plrzp+LB/iN0Q65+7qp5zFrmQm0y66T5ZhRR378Alj5ABxphBnnv0r5j4FBcTZZv/sZvfuXTh8RDjpTmlKF91HzfQQLqsSj6qKoe7K1d1TmrMkkiBdOTUgSxMTFWOrc/XrV4S+BX3tn04ePnQIe0v34uChA1SetTb7SWOVnda5ZLWwTblbB5dDauDS3a//nOpm7ckU0TTPenbz6G7nsyk6sHffPlr0vThecdx6mOU+8lHljjD9F1rr0VbTCJ9fO69mpKHq5nquhYFY+4+d3hmI1D+gVNP48zGc3+1e1K5fZq7oW2CMIJS8x3M9qZqFUftG67OT1gASo1n4rFz06VOIPvpfYulpOHL0MHZa13QpmZIVaG10M/jZQDaL3zSEmFLE086akfB27qPWj2lVVZZPGMFcuiNguPXO9UrPsu+n+hcPtE/6tUDsbjLjvn17UM1AV50lIMFUY5tnKYIRUzfBxIT+ucA7yvroiriF04jZEbBpVvrANTkhhe5ZbzLJAOSTKbXYkwRh34FS7Cvdg3oyZYfNExKNmRMzEU7Fdz4ml8xUlsvXlEYb7xQS9vBI6x3UixGkeQ6FXuu8aCk+jf81NDTatCl1XR8tO2pr0YjWJnThTvCtjU3ACZa3KKh6EzyB02Y8wWv13WnCQKc+K2Jd01LS0L9ff/vHkFpwt5Y03kv67iXOsrIjhpNksbJbp5FJnWtZq4/DZEehF3ZXSUdj156sov7XAeksfDY7pLCIFindrN4+CQTxSeCt9zMyzHpdHY868OthmCxdeNzBV3eGW+4rX3XTyiKRmpSKItZP/wsvKTGJFriWPLSL/HuQlrjGzdlUPURXtanVUfQ6Aadkg5vqoPNwhOP/AmJ2QztaHeStAAAAAElFTkSuQmCC;" parent="1" vertex="1">
          <mxGeometry x="193" y="326" width="90" height="15" as="geometry" />
        </mxCell>
        <mxCell id="NJQEp5nP68rqL0rwDxV9-4" value="&lt;b&gt;&lt;font style=&quot;background-color: rgb(0, 0, 0);&quot; color=&quot;#ffffff&quot;&gt;Chunk 1&lt;/font&gt;&lt;/b&gt;" style="outlineConnect=0;dashed=0;verticalLabelPosition=bottom;verticalAlign=top;align=center;html=1;shape=mxgraph.aws3.search_documents;fillColor=#F58534;gradientColor=none;" parent="1" vertex="1">
          <mxGeometry x="349.5" y="181.5" width="47.5" height="18.5" as="geometry" />
        </mxCell>
        <mxCell id="NJQEp5nP68rqL0rwDxV9-5" value="&lt;b&gt;&lt;font style=&quot;background-color: rgb(0, 0, 0);&quot; color=&quot;#ffffff&quot;&gt;Chunk 2&lt;/font&gt;&lt;/b&gt;" style="outlineConnect=0;dashed=0;verticalLabelPosition=bottom;verticalAlign=top;align=center;html=1;shape=mxgraph.aws3.search_documents;fillColor=#F58534;gradientColor=none;" parent="1" vertex="1">
          <mxGeometry x="350.5" y="236.5" width="47.5" height="18.5" as="geometry" />
        </mxCell>
        <UserObject label="&lt;b&gt;&lt;font style=&quot;font-size: 15px;&quot;&gt;...................................&lt;/font&gt;&lt;/b&gt;" treeRoot="1" id="NJQEp5nP68rqL0rwDxV9-8">
          <mxCell style="whiteSpace=wrap;html=1;align=center;treeFolding=1;treeMoving=1;newEdgeStyle={&quot;edgeStyle&quot;:&quot;elbowEdgeStyle&quot;,&quot;startArrow&quot;:&quot;none&quot;,&quot;endArrow&quot;:&quot;none&quot;};strokeWidth=0;opacity=0;rotation=90;" parent="1" vertex="1">
            <mxGeometry x="303" y="344" width="150" height="10" as="geometry" />
          </mxCell>
        </UserObject>
        <mxCell id="NJQEp5nP68rqL0rwDxV9-9" value="&lt;b&gt;&lt;font style=&quot;background-color: rgb(0, 0, 0);&quot; color=&quot;#ffffff&quot;&gt;Chunk n&lt;/font&gt;&lt;/b&gt;" style="outlineConnect=0;dashed=0;verticalLabelPosition=bottom;verticalAlign=top;align=center;html=1;shape=mxgraph.aws3.search_documents;fillColor=#F58534;gradientColor=none;" parent="1" vertex="1">
          <mxGeometry x="350.5" y="421.5" width="47.5" height="18.5" as="geometry" />
        </mxCell>
        <mxCell id="NJQEp5nP68rqL0rwDxV9-10" value="&lt;font color=&quot;#0066cc&quot;&gt;Python Books&lt;/font&gt;" style="text;html=1;resizable=0;points=[];autosize=1;align=left;verticalAlign=top;spacingTop=-4;fontSize=16;fontStyle=1" parent="1" vertex="1">
          <mxGeometry x="24.5" y="226.5" width="130" height="30" as="geometry" />
        </mxCell>
        <mxCell id="NJQEp5nP68rqL0rwDxV9-11" value="" style="shape=curlyBracket;whiteSpace=wrap;html=1;rounded=1;fontSize=14;size=0.5;rotation=-180;" parent="1" vertex="1">
          <mxGeometry x="400" y="174" width="20" height="290" as="geometry" />
        </mxCell>
        <mxCell id="NJQEp5nP68rqL0rwDxV9-13" value="" style="shape=image;verticalLabelPosition=bottom;labelBackgroundColor=default;verticalAlign=top;aspect=fixed;imageAspect=0;image=data:image/png,iVBORw0KGgoAAAANSUhEUgAAAVQAAAAlCAYAAAAdmxFlAAAAAXNSR0IArs4c6QAAAARnQU1BAACxjwv8YQUAAAAJcEhZcwAAFiUAABYlAUlSJPAAAABfaVRYdFNuaXBNZXRhZGF0YQAAAAAAeyJjbGlwUG9pbnRzIjpbeyJ4IjowLCJ5IjowfSx7IngiOjM0MCwieSI6MH0seyJ4IjozNDAsInkiOjM3fSx7IngiOjAsInkiOjM3fV19M+scMgAAGbhJREFUeF7tnQlYFEfax/8z3ALDcA8oIIggN4KC94WSxBhj4qcxmpi47ve5GDfHJll13U2yeeKuZtf9NDFx/dYrMcZsTIwxK7ueRI2oKKKIiCCHIofc9zkOX1VP9UzPOMMRBoWkf8/TD9U9PdPVVW/9662qtxtJ0DuHOyAiIiIi0muk7K+IiIiISC8RBVVERETERIiCKiIiImIiREEVERERMRGGF6Vk9pgR5Ibpfo4YYs2OKduQU1SDM9fLcLSkhR0UEVETGumHWe7mbK93NNwtxebLdWzv54nCwwNPxrpjkssgDJFLUF3ZjGvXbmJNys+7XPo7eoJqi8cfCcKb0Q5wNuq7dqCuvAI7j2ZjW54orCJqnpw3Ee8FWrK93lFxIxNT95WwvZ8b1pg7OxJvhNnCTsIOMX7e5TIwEMimHK8vGYU/je5MTCkSyFxd8cqzMdg1Sc6O9XMCg/DNG5OR/EYUVrBDIiL9kejp4VgZrhVTZXsLcotqkU62SyWN6oMi/RaNhzpt9jj8b7gNU9gONFRW4eClUpypVHJH6DTA48GemORjzSq7A7mXLmFOYg33cb9megyujrEniXrsei8FG9RHRUxIV0N+Jy8PPKZgn9dUYU+OcXH42Q75Zb7YleCHaAu6cw83L2UiIbEMpdyHIgMBtaDK/PDpcl+M5Oy9A2U3srBoX7HhinQegvXzhyHeshrv7UzH1wPA7rXDUVFQHxY6UwIltxG2PUedFtEyIRoXp8hhRdO1pXjlw2s4wX0gMlBQO6TRzojgnYvau1hrTEwplXewcstJjNw0MMSUMtSO6/JFRPo1E5ys1GJKqLpbLYrpAIQT1CddrDWTqa21TT+xipTBwUpvdl9EpB/ibGXGUoCqQ3wifCDCDfmFwzFVUQEiduZy6d5jjeARboj3sYa1uRmslffQ0tSII5lFuFTJTjGAr5cLvGhX3dqMU4WCuTZnFyyOcIKnTfd/C/DEB68FYaotTfd8yO/rNRjxwbZw5PPf3oLUrkLHnOWY5EhdfiUKb9YgX32UYIupsQrEyi1JeZDfUrYjN7MM+4T32BUspC1aTvJD8tRC81RTgyMkT5ndGTGQvM0LdsOwQfT7NA/3UHyrDEey6vt0rq67Q37DdU/sKMIDs30dEGbTjgt5d/Ht+QpBuTLIvc30d0a4iy0C3CzRWl2HGyVdlQ35bT87uBCPor2xAWcF9cqFLoXba+q+po/LWVhGPVvRp/fgjInDBXYKYls5FTid10W9GrFV9b07IdLTAnW3qvCfK7eRRNsZsb+xblawgAoVZVWaslB4kHYeJIcfaZstyhYjdq3VAzlnu20/wvZMqSndsaueXY8T1NCZY7A3ilMcUq712P15Ct6/rd79cVgjPj4Yr0fI4WnIO+xQoayoCOv3Z+OIAeN8fWkcXvQgiY46bFt7AZtkbvjt0wGYP5gMifR/TqVE5uXreEVn8t4Zry7wxRQ3W7hZSWFLNn6xrbnlHjEdIfX4/K+XsJnt8USPDcHKMe4IsjXk3apDx7b9Ox07DZWTZhGsA+lnTmBREi2PUKyMksHNXP/3yG+VFOOP+7IMloUGWgazh+MpzaKgHqQcbubcwl8OFyDZ0O94+2B9vDfiFZbgZ3eEKFsacfJMFl492zeLjN0VVG3dk87vQ9r5eWLtouGY5WyuGUUBjdi34xzeLWa7zgqsfsIfcw3ZB0XVhpSz17AmqcpAw/XAxleDEWdHkvVlWLnpKhJJWW18bCgmu5rfV1YqZTPOnMzEcmPlJHPCy7ODsdjHcF5UrY1ISs7GujMsLyEh+O4xF2KxpDGSBmvH7EOlVKJR11BRmZOFJ769y/Yo1hg3PgBvjnWBv7WhG2f1elZwPX0Etpp5LhnPHIPBsK3cSxcwJ5EYVng4kma7woUcK7uegbivW7Fk3gj8T4B+mNc93ErPxi8PqqcPFX7DsPYJb4yy59uiFmVjNXZ+m4kPOg3DNJWmdN+ufKND8Lep7kbKtgOVd+7gL99l45BAWM1cpzz/TpnUAXNC7ECLFVIrhBFF9qirwfdl7dxJPYOGX0XjzSBbyJhxKNuJcbSr0KZUkStKYS6RwFbmgBnBcrSWlOJyLXeahnFRfoikmSHnVbebY8GTAXiU3Ph9WkSRSOFKesdp8gbsudHEDsowL84bo2VSWJEvab8mgYU5PSbclMg4VYSz7AxacXPnxuKvMXK4W6q/SY27oU2df5VUCguSLytbW4wlHohrVSVOVuhZvt9gLB9Cu0MJzJpVsB0VgtXBg2AnNXgDsLKXYUaADbIvlN/vdVG8h2PPC8MR72IBliVCB1pb76Gdyw/ZJeXg5OKEx8PkaLtZijS+KAiKkWHYP9cLUfZmauMhxtdAvttK7qetg1zfTAKpuSX8/NwRb9eEkzmNaOC+aTpGhPhgmgsb0jbUYktalTqth7DuK+/WIWRGCJ5xMxfUIaUVFw6p6yx6bCQ++S8fjHMwYh8UiRkGe7thlGUNvrqv0drj0TGu8KNab6VCab0DVs/xwUgDDZ8ikVrAh5RTrKoUB27r1bvMExteCMV8BZ8XdR01C8pZQsvZV4HpTo34LIt4Sm4K/DLMHk7EFi0F9iEh9aprp1IoayrwSSZfM3IsXxyFt0lhOQtvXEWu18FsgsDVK7neDE8VMjNqcZ/PK7BVCfHQMzwD8OdoO+j7EaW3skjZkYS7O14MtMUgkrQl7WJQ5DAs87U20HlIIXcnHq5ZFfarvLH9GR9E2gjbohappQ2iR8hhmV+M8/XsoA6m1ZRu2dX00dg+xRkKviBJuda36l5vELnedOLFd+SW4CJzelnYlDWWLR6DFd7aORxqDA01dTh/vQSfXu5qWM1DxGjeKLwVaMUZo6qpDl8cz8LOKwKXngzbfzUjEMv8rbnev/VuIZb9Ixup6k85NL0JyQPNP7El0huUYEfybXyarc45HZIkzA7E064szx0N2LvzPP7E9y6hvnhmMF2MIsPs0U6kP6K04BwRLd0JjRacP0yGM2wvmvTYW0iPbUN32ptwPDkHm04LhgFkyDNnUjBWRtipe+SGCryz44ruAp2m1ydloCLFSxqKqrEWB5MLsIsfUrDf+V2knfpa5F5vXryIp/6j172SRrpxyQjE2asrlvNwzt3UyZNvgDdeHOeD2UMs0U68vwTi/WnKk4jxP5/1RjALxbl14xY2nMhXD9846LDHF+/GeyCQaxVtSDp0AS+nmfahjR57qCQfyTdaER1oT3SODEfLanG1kPQSTjIMQS22783BCZL6+PVATOQKkHoMxEbO3dEMIamNLHl0OBYQO+DEsb0Gm7ekYqtOEQs8VM7eJKSxKJGfW4QdJ+/gAJsC8A3wxarHfDGO1QOaK/GnDZexV73HIQw9VNVX4cPvrgsefqHlPAQrxgzGWHkTdu0mIy9mqwoPJwTY2mDSFH88w0LLGkrJ8LOwjUvzaMPJdNsZOtqRfqUA286yYTmFtrNp/nhB4zl2EI/yOvEo9SRVYKsVeeUo83ZFsDkZNVU3IL2oBreIdIY5ApeSL2PDDXKSwENFRwdIcaHp7l1sOVnA2iZpb3Ej8McxcjjS69ZWIqndCVPJFxr0z5s4HKsnOsODuwly6s0bmPDFHfWOBlNrSjfsSj987XIWfvOvUq0G0KnHsUPxQqgMyNEtU00cKm24a58LwGwnoagyiEdTU1OLExdvawXBEMLCbieu9V7iWhucOrDG8wtj8Fs/muN7SP3+HF78QduAtTdPIMaSmpyBVYaGayTPH/wiCFO5xiAYluhABOX3RFC4dBdzqJ7k3MXkXForHa04nngRrxoRluiZY7AjypZUcgfupF/FYwfL2ScEgZFSQ66+fQurDuQaGIoTY5k/Gu8EMKGpKMKzf89ChnqPY9qc8dgUyp7/7bRM6TyRE2xqtfNapIBIWUaTsqSm2EU4nPcIHHh+MIaRRqCqLsFrH2WadHGy54LKIPe8e1863jcyHFSMDMaWcXa4eu4a3kplboIOrlj/63DMdKBpflgr/C2hoBJIJ5p4LB0rDf2WdwD2LfTCCE7zlEg+chLLUrhPCM5Y+1IkZhPxoZ104r4zWEkFqAd0ew41MASH5ymYk9CG0/++hOUG713PQehoxsGvkrFGmC8dW6XcQ2ZKOl45YmSKQNjGqU1lk2H9l3fu0wQduyWoiG3/gti2UOQooeT6u8j1qY9MXHBsXkc6PO4TRl9oCqUzuxKEr7UW5mPWJ3mGy8IArG8g1BVjzccXsOpCLcqUeiuMZDgpd3TE0zMicGDVBHwW7wYF+0iLNZaPdNYUdO7VbKMNnxrc7u/LmKdohlA/4Z3qUpVzEy8anPsikDz/p7CV7RBBcXdlqR/HtBg3tZgSavNvYV0nXlpqYhHOcZeWYIiXKyZwRw3QWIlNnxoSU0oLvr5WgzK2B2d7xLGkGl8sHsEbpQppZ9M7KVMgv1AopoRAL8Tz3X9zNXYd7iQc7nYWvs5XD2GljnLEDeOSDxniLR8xLqaU0rRMPPVRihExpZRjdy7/mQTebp3bSFZammExpdzOxg93+bZhDn8vd5amWMKW82go7aTzYsk+YFmsGxNT2uCL8K7Reyd2eiwLB8pZniU2mDxyiDpthAoikEbF9D4akGhATCknrlZD62uqcCWz4D4xpWQcK0cGP3NiboOAEJbm6BtN6dKurM004Wv1Tc3dFlOKVlA5GnHo8EXErTuPl48W44eKFjSTIbcQqbkVImJC8eVi4hKzY2o8EMM3XjTh0uUuFjeKa1HApoOsnOzxpDp5H12FjyTWaodFUqne7fQIZ8QN5sVLiWs3C7soyEJk89OAjnaIZcn7IPnXm2nT5VoLKlgSEjLcZEmOGDkC+QOtNTh6yriwGGJCoIOm4TWUVGC3QVHXsrusmaVs4O/LkpQAb6x6JKCTzRtT2ammRFVehv/rpFPrLhltWiO2s9F6TYZQqTq/XkGDdl1B195UuKcxVTvMnD+EdId9gRei3PnrKpF6vSvvqQ47chtI7tQ4KJyMtjU6bXb0h0463Z6Q206uzNOO8kpj5dqCGs1HEpjpDJD7SFO6sitSkXx5ufh5Ea+3c5sRYkSBGpF0/joS/n4GMZtT8JujhThdrhQIgwSO3kPxHnHFNYTbw0fT+FWwC9NvdPqbDDI+13bW8GfJXmFvY9xYusQJ/txwjaIkXpqhPOtunmb32PlW8ApnyV6h+zsTFDakaTKqGrCbJbtLrKt6dpZSR7wTQ/egszlIiNmqcXMU9PDeCiwa7dXJpkAUO9WUVFXV6Ux/9DdcZJraIdzFofxm1hAlcAsIxP7XYrCRdjZ0Cd9UDLOHN+8+oRnZmikH45TmN4APiKBtLVDG0vo0NuOa5kRT0obiayzZKZbwcGNJSh9pSpd2lVqBNL7ftLDH88/G4vBzIVgWYW9gZK5L1y5dXT2Ons/G8q0n8fSBYtzUdNBkqBvsjWVsj7rJGh23ssdjBhuecBuC0cYq9mHgqXXz6VBjjME8627xbgbmm02IMNC7oq6n6+4ywRCU3J6v4XvQ2YLsuNXbAQ2NRY0dRhpXCLYsGYU9dAvovofRG04czMSnRUqNd2Nua4+40cPxQcI0pLxMxDXOA8G9tXlbc207a2xFAUt2io63aAXPoSzZ33lYmlKXj1VHylDCV6TEnJSZAiueiMHhVZOQ+FwQFgewMFM9uhZUAfkZxGtNqoImIsF8EIJ4j8pSCk37bazFNxcKsae724kC7GFffWjYSLWCeq8JJw3l09iWnIfd6ey7/QYLaPVYhYIcA/k2uhVgy3nBgsixFIS9d7yTrZOFvgeBzAkLZ0Uh8fWpuJIQjfUzhpLGpcCEwQ4Ip5uToGfpU2qwYedF/O5sOa7XqzTCSp0PGxkR17HB+OeK8fh4rIne0tbVdNJA5yFqSmnaVSz+Ihv7C5pRp61ISM0t4DXUE2/Oj8XZ/x6BeD0B75GgUkpT7uKSZg7cHHL+B+vaoQkh62hD6uFsrOvultwP3qgj7MXJUD7fUD6NbSeKDE64mxJrC53Z1W5QiSrNNJEUTZUG8m10y8WXnSx+9Seix4bj4LJIrI50hBfpFKU0IqW6Hum5peqGdTILL6WZOqq2Mxpx6Hg65m9KwpxPsrA5oxqFzQJxlVpj4rQwfBxjAq/ZwoyMQ37CPGRNKc0rxNufJWM8m/Y8XipcU5LAzn0w1j8bqLOW1GNBJXcGGlqpRokaXoUKBIsrtlYYKKMKLY24q+koLOGps9r4cMht1C6A2MlsEcrS3aWgXrtg5+IgXJH+aaAYGY73p7nCl8bP0ljMC5l45sMkTPwoBYv2XlM3rNNFONXa+cJmX5FfWIStBy5h5gYirgcKkd7Er7ZbYvxInx7XJ0dFm3aEaGUFX37VsTNCrNlKOaUVhf1uNGWE/qIpbNrz1W10TSkNm240gV++NXd1x9JRbIfQc0H1dMBQzVx8O6r4O66rRHY1S0vsED3pwcxbmY5iXKvkux8rhA7vXQiWKci406Q1KGcZHumhO/J1cRNpPmrcPF0wjaV/GsjwixgXuHFB6yqknSYierike8/ZPwTyM7Kx6KsS3GL7Uhsr/KjINMFKNheN4d91Owv1sYVmrae6AedZst/THzWlrgrb9qVhCwsxpFNrzoIZHCKo9FHL8Uh5bRR+G9RVhsm5E1y1hlBRg/2aVcFKHC/ix5hSRIT5DbgG/G1BvUaAPAO9sexhj6fSq3Cd7wqJQU2f0kORT69GJl/vDq5YPGGgdXKdQUTChlNTQiOu9DCk7KFwW0ly2ltKcL6UH7mQdhY8VC98UR9XPD9Mu4BSXFSOH1i6/9NfNaUFVYJQPCFSxchArCBCamPrgOefjsVXc7wwzqCQ2OLxWRFYyT/VQ59GyCjQCT84caIYqayupY4KrFnoY7yyZU745bwxOLk8DHMfmHCZw6kTt6D01C0crmbDMgs5lj57/6SzFvr/t0bhKOmIXvdmh0zOHWy/3sjm3yQYEhaIjSONiKLMDW8tnYhDcz21oR11ediVyYfymCF6fATe6qTT9A0NwGcvT8Rn0wfIv7bRYDxsTeEXgD0jheFNfYciaChWTVQYjT9VxNhhMEu3VtXjW5buKXtPEU+cdZRSFw/8YZahB20o9LHNQDzKPSVGaCcO0AnBE30DgIejKXLMnzYMC43Gn8oR4cwvlzXjpuDJBuKhqtDOi63EHIGkUW1dMQVHfzUKO+YFYdXj4dixZAyOr4rFOs1z5+RnigrxV8GjXRw03OD7Sqg1SQI3P39sY7F4M/1dMIluod5YPS8Gx5dH4pVAWzg5ueGNWX2mSIQGlAiGSDMeCcevQl0wMzYI2389BSmLfQXGWI41x4o0oWE2roPxl2XjsX2OL+bx+fcfjGVzopD4BimP0Q5QkI5o8eMjEKP+islJTczCpyUs3lVihbiZsTi4IACLyT2o86PA4llROLwsFPM8LOEdNBzvCp4yOHEwB1+Ws+9b2GEe6TS5mLoo/vsumDcxBNtfmoz9pDONkFkiInYE3u73k+AluF7FG64lJkwMxXMeggZAn7eeNQpfLPBCuFSlmfPqM2S+WDd7GBZNDsbnK6KwOkouEFb63Ho4tk11glrb2vDDZaMPcHdNcQ7ev1jP7kmKYZGh+CYhEqtjFZo6nRkbgI8TYrXP+xMHKD0lR+89BgOAh6Ap02YHY824oVi9YDS+JG1/hsCu6PshVi8Jx1wX9eiotaQcewUvB5GqwwNycbpGuBJpBoWLA0YHemLRSFeMHkyGV5o32nSgsiAfCTtzDQbHlp6/jNdOV4OfjuRj8dYviMBHdJszHAsD7dnvdaDhbhHe/ldfLimX4GAe76URkXRyxUtzIrB+hidiHMxg4z0Ea0ayDyk3biDhSAny2UKG1MoaMaF+eIvP/4IRWBHqCC/2Si9lbSU2HspCN+KrfyQ12LAvGwereFE1h6+/F94k96DOTwjejHRkrzS7h1sZufizziRZOdbuJd+vZPGRfEzdTP77xGudrECMI3tVnaoFp09k4Y/dCnB8uGz9vhg3WcVaObpj5dJxuPjmZCSvnIarCRGkXBzg2FKDf+y7iXO9H2t3jlyCe23UZiSwkzti4cxoHPx9HK5y2xh8MNkVPpxTQ/9X1A2s6+XCUOqxdLx6pkYjNHbOzlg4I0RTp+tneGEi/2o6+vrCU5exKGmgqamaB6sp1nAkLYVbP5RaIoi0/b8tHc/qMQ5HlwZjIXvZDn0BzkdHc3R0kCvv0rwCLN98FgmHi5FS3Q6Di6JcOEo1Pj9wHlM+y+s0TCj11CVM2XoNnxc0o0b/vQAU1T2UVlTi8+8u4Kl/dPEeUBNAA6433mhEg15W6Lsijyddw9o0doBBnw+fvfUyNmXUo7TdQP65sqhF4skrePrDy4bfiWpKNO9ZqEZhi5HyLC3FR19ewKwDBp6tpt/fch4JSaW4Xqf/PlhKB1qbm3ElIw8vbz1j/F2f/Y3bpPP7phBXNDGfElhZmcPeQgKVshXXSeeSsC0VH+TdwWXeS+8rbudh6fYL+IOxOiJlXMe1H2LzJvnHey1ITkrFfNJZ6sdK8qiU7SgsKMQfdl7A0lMDpE6N8OA0pQVfHzyHhfvykFjaalALNba1M+2+tq9925QOtojyFzz2SJqg7pvne4bmbdkU/bfwP0g0bxsn9CAf6terqQdOULUiu6u3oPcxOvn5MeUpLAciRcI3rw9Uel0mJkYnPw+ojPtNO3sAPLh71dPCLq5lRFBFRERERHoK34WKiIiIiPQSUVBFRERETIQoqCIiIiImQhRUERERERMhCqqIiIiISQD+H6OVxLjZ3s+QAAAAAElFTkSuQmCC;" parent="1" vertex="1">
          <mxGeometry x="438.5" y="324" width="141.5" height="15.4" as="geometry" />
        </mxCell>
        <mxCell id="NJQEp5nP68rqL0rwDxV9-22" value="&lt;b&gt;&lt;font style=&quot;font-size: 14px;&quot;&gt;Search Results&lt;/font&gt;&lt;/b&gt;" style="edgeStyle=orthogonalEdgeStyle;rounded=0;orthogonalLoop=1;jettySize=auto;html=1;exitX=0.75;exitY=1;exitDx=0;exitDy=0;strokeWidth=2;" parent="1" edge="1">
          <mxGeometry relative="1" as="geometry">
            <mxPoint x="784" y="560" as="targetPoint" />
            <mxPoint x="783.7349999999999" y="340" as="sourcePoint" />
          </mxGeometry>
        </mxCell>
        <mxCell id="NJQEp5nP68rqL0rwDxV9-14" value="" style="shape=image;verticalLabelPosition=bottom;labelBackgroundColor=default;verticalAlign=top;aspect=fixed;imageAspect=0;image=data:image/png,iVBORw0KGgoAAAANSUhEUgAAAJIAAAAhCAYAAAAyJfJVAAAAAXNSR0IArs4c6QAAAARnQU1BAACxjwv8YQUAAAAJcEhZcwAAFiUAABYlAUlSJPAAAAVZSURBVHhe7Zo9jx01FIa3oUFCIEERikgoEkoTCW2TJiKkSUEkoIKOFKn56PlooYEqJUjQJz0IWir4BfAPwj+guplnNtaeee9re+y9QevdifQo99rHH+PzzvGx7x5N/3aH4oWXXtm9enx75vqDr2auvvvx/P3lN9+ybTYuDLZwNYjn2oef7G5+82j3wR//Fbn76O/d8Rc/7K68/Z7ta2NobGEVBETEuffLEyuaGnd++nP32vE7tu+NIbGFRa7eu98tIOXWw99mUbpxNobCFmYhCjlBnAW2vIuWQ/Fy1J6JiPzi62/YugGxhRbyGyeExN3H/+xufP79vEBxEfl+5fb7u+Mvf5xtXFsiHDZxvFHhOVLEZgtXsfA9RvSb3z5e1A+KLdyjJCLE0ZLvzFvjr//u9cPiXoTIpM/GCxTrrz/4elF/6+Hvi/pBsYULSiJiUVybGoR+3kTtjzd49JxJn0mFcimFVBIRkcW1aYGtUPvVN3g09AXRdbp0QuoREVsc7Uigky1R5sZn32UTS4QT+4aRk1Ai6rWPPp0F5dbpUgmpVUTzVrXiUhJBua3rzs9/Lez+j6iEWLl1T7fvOfGSt1HPxWvJbi0jCgmf8excJnNy5zMEX+436hERUcfZO1weRCRTO+ew3pwswli5+XKvlRJ+7GJkVbuS8FI7/tfTaElI9EnfqS2RLbaN4Is0Di9xHIe60skRdJ7Ot9jUAgTznWyXDXu2MxbC2ZdgcrV+3HicEJmjlq+FPuMYDhyw5r4sd8rU51Dxl4Sk2zwOjm0TCCPaQRSd1rlTteZyOk+eLV5TlJjsTxv2iGiNY3Low2lf7n4lOalHTETBtQuzFt52HeeQQgInAu0DYtTROtdHbZ5aD6QglGvdZH/SqEdEoLlNCyoUHK02sR7iAraKKSd6tzBKyUajktq1CIntKdaByxf1YlfXMtZBq5BcxHMXxpQ9G7tfRG6wVjRX0oeLdaBOaBGTtoUoArYGrV9jo046i5BARUIUjevkxKZzqNVDaZ7YxzogHckeNnpFBG6wVmpO0LfdiUEdlaPmQNBbaWcT66H2DDq/2jycWKMvNLdBeLE9xHpoFRLEOgfbOvqZ+3YG4BZQyW0VLdScoPXqBHAL6VgjpNriQqyHQwtpzuVE0CkXc7uAe+HVpkdILl/LcVQyHiUicTsebXLUHAi1xYVYD4cWkrMBxtFyBKdtIdpAj5AQtNrkmOzLyiuJ6VzkSCYRzbHGgbXFhVgPz0NIbm15Vs2f3Pwg2oDzox6Ucn3xMvOyMk/3YztMdifGvWLSB2tBFxBRqU2sh+iEFhHBGgfWRACxHp6HkKDkE8Cp+iIm1OHcR0VbfBrrwT1rrn/EFYU4lZ1W9ojJTWgt6gDtq3iP1CgiGE1ItYhf2tI1IQdOf9xC5271XRpBG37W4qeRKCo+xxvvqey0IfSIqecuyYvk5KeBhBuPCNgjIhhNSFDyhz2GPwNRuDY5dA4IpeXydmqznAC0iolBW8SErYZMnKF2bqGcY9cyopByUWnNAWPtbuH84e6qSkxtloMnesSkC+hgAXTSoOHWRayzMqKQQO1LuZFCZHLbHBDd6TvXFyLGX6UgkfqY7Pc7SPRscywq7WKyl7YjXfCEuxQthe2NPlj/RM/6xvamj6Wx0iOmFtyv7IzpbDfONbZwQUlMCMG1qUE4dZHI7dcbQ2AL9yiJiTsKQp1r5+AvEtMfVEXYDvUIujEMttBSEhMgDu4c+IU4CoLP3EMQgZyAABG5P1PYGAZbmEVPEIeAZHyLRMNjC4uQZOsVfC8cfbec6EJgC6vgfKJTr6BIqlvyqo3zzNHuKRmcG24nALu3AAAAAElFTkSuQmCC;" parent="1" vertex="1">
          <mxGeometry x="612" y="300" width="176.98" height="40" as="geometry" />
        </mxCell>
        <mxCell id="NJQEp5nP68rqL0rwDxV9-15" value="&lt;p style=&quot;line-height: 20%;&quot;&gt;&lt;font style=&quot;font-size: 8px;&quot;&gt;The most challenging part in my opinion..&lt;/font&gt;&lt;/p&gt;" style="rounded=1;whiteSpace=wrap;html=1;fillColor=#007CBD;strokeColor=none;fontColor=#FFFFFF;fontStyle=1;fontSize=22;" parent="1" vertex="1">
          <mxGeometry x="170" y="250.5" width="130" height="30.5" as="geometry" />
        </mxCell>
        <mxCell id="NJQEp5nP68rqL0rwDxV9-16" value="&lt;b&gt;&lt;font style=&quot;font-size: 14px;&quot;&gt;User&lt;/font&gt;&lt;/b&gt;" style="outlineConnect=0;dashed=0;verticalLabelPosition=bottom;verticalAlign=top;align=center;html=1;shape=mxgraph.aws3.user;fillColor=#D2D3D3;gradientColor=none;" parent="1" vertex="1">
          <mxGeometry x="6.5" y="547" width="45" height="63" as="geometry" />
        </mxCell>
        <mxCell id="NJQEp5nP68rqL0rwDxV9-17" value="" style="endArrow=none;dashed=1;html=1;rounded=0;strokeWidth=2;strokeColor=#3333FF;" parent="1" edge="1">
          <mxGeometry width="50" height="50" relative="1" as="geometry">
            <mxPoint x="339" y="492" as="sourcePoint" />
            <mxPoint x="399" y="492" as="targetPoint" />
            <Array as="points">
              <mxPoint x="20" y="490" />
            </Array>
          </mxGeometry>
        </mxCell>
        <mxCell id="NJQEp5nP68rqL0rwDxV9-18" value="" style="shape=stencil(fZbdcgIhDIWfZm8zQAg/17Z9j85U606tdqz9e/tmZ0c0uJ47xP0I5JwEBl59bp8/1kNwn6fj4W39M76ctgM/DCGM++36OJ50NPDjwKvN4bh+PR6+9i/z74/n6ctp9H74nlb4nbmSKZeJCu5vngmZ6jzzNAO7cX8FVKEsBuBKrgKg9oAE8gkCbLeUhEoEQKSUDZDLeWYRKIl8MEDRmHwfyBrBG6Amyu4+kDxxMoB3jhwgYu7TVAsVkFcWCs4CTBEoF4RctKeOxHIf8IXYpikHikAIf+MNUW94AGSSaoAoFIE3AlOyeWU+p2E5S9yfQZcQILVuQOwZdJNoS9Ls3wA5u2XZTIHECqeJ9kDpSaauRiNVcAY1QhdBzeLBli5WazpkSsBLV25uRaqWRyFawTQzRRIQYirJzq5atkBqLfouwqUxLBepthWb10vrWZY6UOAeyKCCtDV625mm9gmUC4Wc3VLJMMIE1BsA2FW9JraVlQB7n3c9oMKhCLEvIM1zBPZ25/umNQ1tVEC2G+fFCC8g398O2hNQuQlVu752DBfA+q0ptnqO5JFmeuIuo9DY7KjY71UxdJV4EntifPWorW++R/dC4t7V3DlIB5cHx2bc7eb3yvX//QNFp+bHDT/+Aw==);lineShape=1;" parent="1" vertex="1">
          <mxGeometry x="693.2013348659134" y="631.2086254468006" width="4.672539772115215" height="4.665236216357243" as="geometry" />
        </mxCell>
        <mxCell id="NJQEp5nP68rqL0rwDxV9-19" value="&lt;b style=&quot;background-color: rgb(0, 0, 0);&quot;&gt;&lt;font color=&quot;#66ffff&quot;&gt;Generate embeddings&lt;br&gt;for the Query text&lt;/font&gt;&lt;/b&gt;" style="outlineConnect=0;fontColor=#232F3E;gradientColor=none;fillColor=#116D5B;strokeColor=none;dashed=0;verticalLabelPosition=bottom;verticalAlign=top;align=center;html=1;fontSize=12;fontStyle=0;aspect=fixed;pointerEvents=1;shape=mxgraph.aws4.sagemaker_model;" parent="1" vertex="1">
          <mxGeometry x="206" y="556" width="29" height="29" as="geometry" />
        </mxCell>
        <mxCell id="NJQEp5nP68rqL0rwDxV9-20" value="" style="shape=image;verticalLabelPosition=bottom;labelBackgroundColor=default;verticalAlign=top;aspect=fixed;imageAspect=0;image=data:image/png,iVBORw0KGgoAAAANSUhEUgAAAVQAAAAlCAYAAAAdmxFlAAAAAXNSR0IArs4c6QAAAARnQU1BAACxjwv8YQUAAAAJcEhZcwAAFiUAABYlAUlSJPAAAABfaVRYdFNuaXBNZXRhZGF0YQAAAAAAeyJjbGlwUG9pbnRzIjpbeyJ4IjowLCJ5IjowfSx7IngiOjM0MCwieSI6MH0seyJ4IjozNDAsInkiOjM3fSx7IngiOjAsInkiOjM3fV19M+scMgAAGbhJREFUeF7tnQlYFEfax/8z3ALDcA8oIIggN4KC94WSxBhj4qcxmpi47ve5GDfHJll13U2yeeKuZtf9NDFx/dYrMcZsTIwxK7ueRI2oKKKIiCCHIofc9zkOX1VP9UzPOMMRBoWkf8/TD9U9PdPVVW/9662qtxtJ0DuHOyAiIiIi0muk7K+IiIiISC8RBVVERETERIiCKiIiImIiREEVERERMRGGF6Vk9pgR5Ibpfo4YYs2OKduQU1SDM9fLcLSkhR0UEVETGumHWe7mbK93NNwtxebLdWzv54nCwwNPxrpjkssgDJFLUF3ZjGvXbmJNys+7XPo7eoJqi8cfCcKb0Q5wNuq7dqCuvAI7j2ZjW54orCJqnpw3Ee8FWrK93lFxIxNT95WwvZ8b1pg7OxJvhNnCTsIOMX7e5TIwEMimHK8vGYU/je5MTCkSyFxd8cqzMdg1Sc6O9XMCg/DNG5OR/EYUVrBDIiL9kejp4VgZrhVTZXsLcotqkU62SyWN6oMi/RaNhzpt9jj8b7gNU9gONFRW4eClUpypVHJH6DTA48GemORjzSq7A7mXLmFOYg33cb9megyujrEniXrsei8FG9RHRUxIV0N+Jy8PPKZgn9dUYU+OcXH42Q75Zb7YleCHaAu6cw83L2UiIbEMpdyHIgMBtaDK/PDpcl+M5Oy9A2U3srBoX7HhinQegvXzhyHeshrv7UzH1wPA7rXDUVFQHxY6UwIltxG2PUedFtEyIRoXp8hhRdO1pXjlw2s4wX0gMlBQO6TRzojgnYvau1hrTEwplXewcstJjNw0MMSUMtSO6/JFRPo1E5ys1GJKqLpbLYrpAIQT1CddrDWTqa21TT+xipTBwUpvdl9EpB/ibGXGUoCqQ3wifCDCDfmFwzFVUQEiduZy6d5jjeARboj3sYa1uRmslffQ0tSII5lFuFTJTjGAr5cLvGhX3dqMU4WCuTZnFyyOcIKnTfd/C/DEB68FYaotTfd8yO/rNRjxwbZw5PPf3oLUrkLHnOWY5EhdfiUKb9YgX32UYIupsQrEyi1JeZDfUrYjN7MM+4T32BUspC1aTvJD8tRC81RTgyMkT5ndGTGQvM0LdsOwQfT7NA/3UHyrDEey6vt0rq67Q37DdU/sKMIDs30dEGbTjgt5d/Ht+QpBuTLIvc30d0a4iy0C3CzRWl2HGyVdlQ35bT87uBCPor2xAWcF9cqFLoXba+q+po/LWVhGPVvRp/fgjInDBXYKYls5FTid10W9GrFV9b07IdLTAnW3qvCfK7eRRNsZsb+xblawgAoVZVWaslB4kHYeJIcfaZstyhYjdq3VAzlnu20/wvZMqSndsaueXY8T1NCZY7A3ilMcUq712P15Ct6/rd79cVgjPj4Yr0fI4WnIO+xQoayoCOv3Z+OIAeN8fWkcXvQgiY46bFt7AZtkbvjt0wGYP5gMifR/TqVE5uXreEVn8t4Zry7wxRQ3W7hZSWFLNn6xrbnlHjEdIfX4/K+XsJnt8USPDcHKMe4IsjXk3apDx7b9Ox07DZWTZhGsA+lnTmBREi2PUKyMksHNXP/3yG+VFOOP+7IMloUGWgazh+MpzaKgHqQcbubcwl8OFyDZ0O94+2B9vDfiFZbgZ3eEKFsacfJMFl492zeLjN0VVG3dk87vQ9r5eWLtouGY5WyuGUUBjdi34xzeLWa7zgqsfsIfcw3ZB0XVhpSz17AmqcpAw/XAxleDEWdHkvVlWLnpKhJJWW18bCgmu5rfV1YqZTPOnMzEcmPlJHPCy7ODsdjHcF5UrY1ISs7GujMsLyEh+O4xF2KxpDGSBmvH7EOlVKJR11BRmZOFJ769y/Yo1hg3PgBvjnWBv7WhG2f1elZwPX0Etpp5LhnPHIPBsK3cSxcwJ5EYVng4kma7woUcK7uegbivW7Fk3gj8T4B+mNc93ErPxi8PqqcPFX7DsPYJb4yy59uiFmVjNXZ+m4kPOg3DNJWmdN+ufKND8Lep7kbKtgOVd+7gL99l45BAWM1cpzz/TpnUAXNC7ECLFVIrhBFF9qirwfdl7dxJPYOGX0XjzSBbyJhxKNuJcbSr0KZUkStKYS6RwFbmgBnBcrSWlOJyLXeahnFRfoikmSHnVbebY8GTAXiU3Ph9WkSRSOFKesdp8gbsudHEDsowL84bo2VSWJEvab8mgYU5PSbclMg4VYSz7AxacXPnxuKvMXK4W6q/SY27oU2df5VUCguSLytbW4wlHohrVSVOVuhZvt9gLB9Cu0MJzJpVsB0VgtXBg2AnNXgDsLKXYUaADbIvlN/vdVG8h2PPC8MR72IBliVCB1pb76Gdyw/ZJeXg5OKEx8PkaLtZijS+KAiKkWHYP9cLUfZmauMhxtdAvttK7qetg1zfTAKpuSX8/NwRb9eEkzmNaOC+aTpGhPhgmgsb0jbUYktalTqth7DuK+/WIWRGCJ5xMxfUIaUVFw6p6yx6bCQ++S8fjHMwYh8UiRkGe7thlGUNvrqv0drj0TGu8KNab6VCab0DVs/xwUgDDZ8ikVrAh5RTrKoUB27r1bvMExteCMV8BZ8XdR01C8pZQsvZV4HpTo34LIt4Sm4K/DLMHk7EFi0F9iEh9aprp1IoayrwSSZfM3IsXxyFt0lhOQtvXEWu18FsgsDVK7neDE8VMjNqcZ/PK7BVCfHQMzwD8OdoO+j7EaW3skjZkYS7O14MtMUgkrQl7WJQ5DAs87U20HlIIXcnHq5ZFfarvLH9GR9E2gjbohappQ2iR8hhmV+M8/XsoA6m1ZRu2dX00dg+xRkKviBJuda36l5vELnedOLFd+SW4CJzelnYlDWWLR6DFd7aORxqDA01dTh/vQSfXu5qWM1DxGjeKLwVaMUZo6qpDl8cz8LOKwKXngzbfzUjEMv8rbnev/VuIZb9Ixup6k85NL0JyQPNP7El0huUYEfybXyarc45HZIkzA7E064szx0N2LvzPP7E9y6hvnhmMF2MIsPs0U6kP6K04BwRLd0JjRacP0yGM2wvmvTYW0iPbUN32ptwPDkHm04LhgFkyDNnUjBWRtipe+SGCryz44ruAp2m1ydloCLFSxqKqrEWB5MLsIsfUrDf+V2knfpa5F5vXryIp/6j172SRrpxyQjE2asrlvNwzt3UyZNvgDdeHOeD2UMs0U68vwTi/WnKk4jxP5/1RjALxbl14xY2nMhXD9846LDHF+/GeyCQaxVtSDp0AS+nmfahjR57qCQfyTdaER1oT3SODEfLanG1kPQSTjIMQS22783BCZL6+PVATOQKkHoMxEbO3dEMIamNLHl0OBYQO+DEsb0Gm7ekYqtOEQs8VM7eJKSxKJGfW4QdJ+/gAJsC8A3wxarHfDGO1QOaK/GnDZexV73HIQw9VNVX4cPvrgsefqHlPAQrxgzGWHkTdu0mIy9mqwoPJwTY2mDSFH88w0LLGkrJ8LOwjUvzaMPJdNsZOtqRfqUA286yYTmFtrNp/nhB4zl2EI/yOvEo9SRVYKsVeeUo83ZFsDkZNVU3IL2oBreIdIY5ApeSL2PDDXKSwENFRwdIcaHp7l1sOVnA2iZpb3Ej8McxcjjS69ZWIqndCVPJFxr0z5s4HKsnOsODuwly6s0bmPDFHfWOBlNrSjfsSj987XIWfvOvUq0G0KnHsUPxQqgMyNEtU00cKm24a58LwGwnoagyiEdTU1OLExdvawXBEMLCbieu9V7iWhucOrDG8wtj8Fs/muN7SP3+HF78QduAtTdPIMaSmpyBVYaGayTPH/wiCFO5xiAYluhABOX3RFC4dBdzqJ7k3MXkXForHa04nngRrxoRluiZY7AjypZUcgfupF/FYwfL2ScEgZFSQ66+fQurDuQaGIoTY5k/Gu8EMKGpKMKzf89ChnqPY9qc8dgUyp7/7bRM6TyRE2xqtfNapIBIWUaTsqSm2EU4nPcIHHh+MIaRRqCqLsFrH2WadHGy54LKIPe8e1863jcyHFSMDMaWcXa4eu4a3kplboIOrlj/63DMdKBpflgr/C2hoBJIJ5p4LB0rDf2WdwD2LfTCCE7zlEg+chLLUrhPCM5Y+1IkZhPxoZ104r4zWEkFqAd0ew41MASH5ymYk9CG0/++hOUG713PQehoxsGvkrFGmC8dW6XcQ2ZKOl45YmSKQNjGqU1lk2H9l3fu0wQduyWoiG3/gti2UOQooeT6u8j1qY9MXHBsXkc6PO4TRl9oCqUzuxKEr7UW5mPWJ3mGy8IArG8g1BVjzccXsOpCLcqUeiuMZDgpd3TE0zMicGDVBHwW7wYF+0iLNZaPdNYUdO7VbKMNnxrc7u/LmKdohlA/4Z3qUpVzEy8anPsikDz/p7CV7RBBcXdlqR/HtBg3tZgSavNvYV0nXlpqYhHOcZeWYIiXKyZwRw3QWIlNnxoSU0oLvr5WgzK2B2d7xLGkGl8sHsEbpQppZ9M7KVMgv1AopoRAL8Tz3X9zNXYd7iQc7nYWvs5XD2GljnLEDeOSDxniLR8xLqaU0rRMPPVRihExpZRjdy7/mQTebp3bSFZammExpdzOxg93+bZhDn8vd5amWMKW82go7aTzYsk+YFmsGxNT2uCL8K7Reyd2eiwLB8pZniU2mDxyiDpthAoikEbF9D4akGhATCknrlZD62uqcCWz4D4xpWQcK0cGP3NiboOAEJbm6BtN6dKurM004Wv1Tc3dFlOKVlA5GnHo8EXErTuPl48W44eKFjSTIbcQqbkVImJC8eVi4hKzY2o8EMM3XjTh0uUuFjeKa1HApoOsnOzxpDp5H12FjyTWaodFUqne7fQIZ8QN5sVLiWs3C7soyEJk89OAjnaIZcn7IPnXm2nT5VoLKlgSEjLcZEmOGDkC+QOtNTh6yriwGGJCoIOm4TWUVGC3QVHXsrusmaVs4O/LkpQAb6x6JKCTzRtT2ammRFVehv/rpFPrLhltWiO2s9F6TYZQqTq/XkGDdl1B195UuKcxVTvMnD+EdId9gRei3PnrKpF6vSvvqQ47chtI7tQ4KJyMtjU6bXb0h0463Z6Q206uzNOO8kpj5dqCGs1HEpjpDJD7SFO6sitSkXx5ufh5Ea+3c5sRYkSBGpF0/joS/n4GMZtT8JujhThdrhQIgwSO3kPxHnHFNYTbw0fT+FWwC9NvdPqbDDI+13bW8GfJXmFvY9xYusQJ/txwjaIkXpqhPOtunmb32PlW8ApnyV6h+zsTFDakaTKqGrCbJbtLrKt6dpZSR7wTQ/egszlIiNmqcXMU9PDeCiwa7dXJpkAUO9WUVFXV6Ux/9DdcZJraIdzFofxm1hAlcAsIxP7XYrCRdjZ0Cd9UDLOHN+8+oRnZmikH45TmN4APiKBtLVDG0vo0NuOa5kRT0obiayzZKZbwcGNJSh9pSpd2lVqBNL7ftLDH88/G4vBzIVgWYW9gZK5L1y5dXT2Ons/G8q0n8fSBYtzUdNBkqBvsjWVsj7rJGh23ssdjBhuecBuC0cYq9mHgqXXz6VBjjME8627xbgbmm02IMNC7oq6n6+4ywRCU3J6v4XvQ2YLsuNXbAQ2NRY0dRhpXCLYsGYU9dAvovofRG04czMSnRUqNd2Nua4+40cPxQcI0pLxMxDXOA8G9tXlbc207a2xFAUt2io63aAXPoSzZ33lYmlKXj1VHylDCV6TEnJSZAiueiMHhVZOQ+FwQFgewMFM9uhZUAfkZxGtNqoImIsF8EIJ4j8pSCk37bazFNxcKsae724kC7GFffWjYSLWCeq8JJw3l09iWnIfd6ey7/QYLaPVYhYIcA/k2uhVgy3nBgsixFIS9d7yTrZOFvgeBzAkLZ0Uh8fWpuJIQjfUzhpLGpcCEwQ4Ip5uToGfpU2qwYedF/O5sOa7XqzTCSp0PGxkR17HB+OeK8fh4rIne0tbVdNJA5yFqSmnaVSz+Ihv7C5pRp61ISM0t4DXUE2/Oj8XZ/x6BeD0B75GgUkpT7uKSZg7cHHL+B+vaoQkh62hD6uFsrOvultwP3qgj7MXJUD7fUD6NbSeKDE64mxJrC53Z1W5QiSrNNJEUTZUG8m10y8WXnSx+9Seix4bj4LJIrI50hBfpFKU0IqW6Hum5peqGdTILL6WZOqq2Mxpx6Hg65m9KwpxPsrA5oxqFzQJxlVpj4rQwfBxjAq/ZwoyMQ37CPGRNKc0rxNufJWM8m/Y8XipcU5LAzn0w1j8bqLOW1GNBJXcGGlqpRokaXoUKBIsrtlYYKKMKLY24q+koLOGps9r4cMht1C6A2MlsEcrS3aWgXrtg5+IgXJH+aaAYGY73p7nCl8bP0ljMC5l45sMkTPwoBYv2XlM3rNNFONXa+cJmX5FfWIStBy5h5gYirgcKkd7Er7ZbYvxInx7XJ0dFm3aEaGUFX37VsTNCrNlKOaUVhf1uNGWE/qIpbNrz1W10TSkNm240gV++NXd1x9JRbIfQc0H1dMBQzVx8O6r4O66rRHY1S0vsED3pwcxbmY5iXKvkux8rhA7vXQiWKci406Q1KGcZHumhO/J1cRNpPmrcPF0wjaV/GsjwixgXuHFB6yqknSYierike8/ZPwTyM7Kx6KsS3GL7Uhsr/KjINMFKNheN4d91Owv1sYVmrae6AedZst/THzWlrgrb9qVhCwsxpFNrzoIZHCKo9FHL8Uh5bRR+G9RVhsm5E1y1hlBRg/2aVcFKHC/ix5hSRIT5DbgG/G1BvUaAPAO9sexhj6fSq3Cd7wqJQU2f0kORT69GJl/vDq5YPGGgdXKdQUTChlNTQiOu9DCk7KFwW0ly2ltKcL6UH7mQdhY8VC98UR9XPD9Mu4BSXFSOH1i6/9NfNaUFVYJQPCFSxchArCBCamPrgOefjsVXc7wwzqCQ2OLxWRFYyT/VQ59GyCjQCT84caIYqayupY4KrFnoY7yyZU745bwxOLk8DHMfmHCZw6kTt6D01C0crmbDMgs5lj57/6SzFvr/t0bhKOmIXvdmh0zOHWy/3sjm3yQYEhaIjSONiKLMDW8tnYhDcz21oR11ediVyYfymCF6fATe6qTT9A0NwGcvT8Rn0wfIv7bRYDxsTeEXgD0jheFNfYciaChWTVQYjT9VxNhhMEu3VtXjW5buKXtPEU+cdZRSFw/8YZahB20o9LHNQDzKPSVGaCcO0AnBE30DgIejKXLMnzYMC43Gn8oR4cwvlzXjpuDJBuKhqtDOi63EHIGkUW1dMQVHfzUKO+YFYdXj4dixZAyOr4rFOs1z5+RnigrxV8GjXRw03OD7Sqg1SQI3P39sY7F4M/1dMIluod5YPS8Gx5dH4pVAWzg5ueGNWX2mSIQGlAiGSDMeCcevQl0wMzYI2389BSmLfQXGWI41x4o0oWE2roPxl2XjsX2OL+bx+fcfjGVzopD4BimP0Q5QkI5o8eMjEKP+islJTczCpyUs3lVihbiZsTi4IACLyT2o86PA4llROLwsFPM8LOEdNBzvCp4yOHEwB1+Ws+9b2GEe6TS5mLoo/vsumDcxBNtfmoz9pDONkFkiInYE3u73k+AluF7FG64lJkwMxXMeggZAn7eeNQpfLPBCuFSlmfPqM2S+WDd7GBZNDsbnK6KwOkouEFb63Ho4tk11glrb2vDDZaMPcHdNcQ7ev1jP7kmKYZGh+CYhEqtjFZo6nRkbgI8TYrXP+xMHKD0lR+89BgOAh6Ap02YHY824oVi9YDS+JG1/hsCu6PshVi8Jx1wX9eiotaQcewUvB5GqwwNycbpGuBJpBoWLA0YHemLRSFeMHkyGV5o32nSgsiAfCTtzDQbHlp6/jNdOV4OfjuRj8dYviMBHdJszHAsD7dnvdaDhbhHe/ldfLimX4GAe76URkXRyxUtzIrB+hidiHMxg4z0Ea0ayDyk3biDhSAny2UKG1MoaMaF+eIvP/4IRWBHqCC/2Si9lbSU2HspCN+KrfyQ12LAvGwereFE1h6+/F94k96DOTwjejHRkrzS7h1sZufizziRZOdbuJd+vZPGRfEzdTP77xGudrECMI3tVnaoFp09k4Y/dCnB8uGz9vhg3WcVaObpj5dJxuPjmZCSvnIarCRGkXBzg2FKDf+y7iXO9H2t3jlyCe23UZiSwkzti4cxoHPx9HK5y2xh8MNkVPpxTQ/9X1A2s6+XCUOqxdLx6pkYjNHbOzlg4I0RTp+tneGEi/2o6+vrCU5exKGmgqamaB6sp1nAkLYVbP5RaIoi0/b8tHc/qMQ5HlwZjIXvZDn0BzkdHc3R0kCvv0rwCLN98FgmHi5FS3Q6Di6JcOEo1Pj9wHlM+y+s0TCj11CVM2XoNnxc0o0b/vQAU1T2UVlTi8+8u4Kl/dPEeUBNAA6433mhEg15W6Lsijyddw9o0doBBnw+fvfUyNmXUo7TdQP65sqhF4skrePrDy4bfiWpKNO9ZqEZhi5HyLC3FR19ewKwDBp6tpt/fch4JSaW4Xqf/PlhKB1qbm3ElIw8vbz1j/F2f/Y3bpPP7phBXNDGfElhZmcPeQgKVshXXSeeSsC0VH+TdwWXeS+8rbudh6fYL+IOxOiJlXMe1H2LzJvnHey1ITkrFfNJZ6sdK8qiU7SgsKMQfdl7A0lMDpE6N8OA0pQVfHzyHhfvykFjaalALNba1M+2+tq9925QOtojyFzz2SJqg7pvne4bmbdkU/bfwP0g0bxsn9CAf6terqQdOULUiu6u3oPcxOvn5MeUpLAciRcI3rw9Uel0mJkYnPw+ojPtNO3sAPLh71dPCLq5lRFBFRERERHoK34WKiIiIiPQSUVBFRERETIQoqCIiIiImQhRUERERERMhCqqIiIiISQD+H6OVxLjZ3s+QAAAAAElFTkSuQmCC;" parent="1" vertex="1">
          <mxGeometry x="162.5" y="539" width="141.5" height="15.4" as="geometry" />
        </mxCell>
        <mxCell id="NJQEp5nP68rqL0rwDxV9-21" value="&lt;font style=&quot;background-color: rgb(0, 0, 0);&quot; color=&quot;#66ffff&quot;&gt;Semantic Search using&lt;br&gt;HSNW - cosine similarity&amp;nbsp;&lt;/font&gt;" style="text;html=1;resizable=0;points=[];autosize=1;align=left;verticalAlign=top;spacingTop=-4;fontSize=16;fontStyle=1;glass=0;rounded=1;strokeWidth=5;" parent="1" vertex="1">
          <mxGeometry x="486.5" y="501.70000000000005" width="220" height="50" as="geometry" />
        </mxCell>
        <mxCell id="NJQEp5nP68rqL0rwDxV9-23" value="&lt;b&gt;&lt;font style=&quot;font-size: 14px;&quot;&gt;Prompt&lt;/font&gt;&lt;/b&gt;" style="outlineConnect=0;dashed=0;verticalLabelPosition=bottom;verticalAlign=top;align=center;html=1;shape=mxgraph.aws3.rekognition;fillColor=#2E73B8;gradientColor=none;" parent="1" vertex="1">
          <mxGeometry x="745" y="558.7" width="76.5" height="93" as="geometry" />
        </mxCell>
        <mxCell id="NJQEp5nP68rqL0rwDxV9-26" value="&lt;b&gt;Send to LLM&lt;/b&gt;" style="edgeStyle=orthogonalEdgeStyle;html=1;endArrow=open;elbow=vertical;startArrow=none;endFill=0;strokeColor=#545B64;rounded=0;fontSize=14;strokeWidth=2;" parent="1" source="NJQEp5nP68rqL0rwDxV9-23" edge="1">
          <mxGeometry x="-0.037" y="20" width="100" relative="1" as="geometry">
            <mxPoint x="783.25" y="689.7" as="sourcePoint" />
            <mxPoint x="390" y="718" as="targetPoint" />
            <mxPoint as="offset" />
            <Array as="points">
              <mxPoint x="840" y="605" />
              <mxPoint x="840" y="688" />
              <mxPoint x="441" y="688" />
              <mxPoint x="441" y="718" />
            </Array>
          </mxGeometry>
        </mxCell>
        <mxCell id="NJQEp5nP68rqL0rwDxV9-28" style="edgeStyle=orthogonalEdgeStyle;rounded=0;orthogonalLoop=1;jettySize=auto;html=1;" parent="1" source="NJQEp5nP68rqL0rwDxV9-27" edge="1">
          <mxGeometry relative="1" as="geometry">
            <mxPoint x="30" y="650" as="targetPoint" />
          </mxGeometry>
        </mxCell>
        <mxCell id="NJQEp5nP68rqL0rwDxV9-29" value="&lt;b&gt;&lt;font color=&quot;#00ff00&quot; style=&quot;font-size: 13px; background-color: rgb(0, 0, 0);&quot;&gt;Response&lt;/font&gt;&lt;/b&gt;" style="edgeLabel;html=1;align=center;verticalAlign=middle;resizable=0;points=[];" parent="NJQEp5nP68rqL0rwDxV9-28" vertex="1" connectable="0">
          <mxGeometry x="-0.2526" y="-1" relative="1" as="geometry">
            <mxPoint as="offset" />
          </mxGeometry>
        </mxCell>
        <mxCell id="NJQEp5nP68rqL0rwDxV9-27" value="&lt;b&gt;&lt;font style=&quot;font-size: 14px;&quot;&gt;LLM&lt;/font&gt;&lt;/b&gt;" style="outlineConnect=0;dashed=0;verticalLabelPosition=bottom;verticalAlign=top;align=center;html=1;shape=mxgraph.aws3.machine_learning;fillColor=#2E73B8;gradientColor=none;" parent="1" vertex="1">
          <mxGeometry x="312.5" y="658.21" width="76.5" height="93" as="geometry" />
        </mxCell>
      </root>
    </mxGraphModel>
  </diagram>
</mxfile>
